{
.appVersion = "3151";
.formatVersion = 3;
DisplayStrings = (
H
);
axes = (
{
name = Weight;
tag = wght;
}
);
classes = (
{
automatic = 1;
code = "iMatra-deva iMatra-deva.0 iMatra-deva.05 iMatra-deva.10";
name = DevaIMatras;
},
{
automatic = 1;
code = "iMatra_reph-deva iMatra_reph-deva.0 iMatra_reph-deva.05 iMatra_reph-deva.10";
name = DevaIMatraRephs;
},
{
automatic = 1;
code = "iMatra_reph_anusvara-deva iMatra_reph_anusvara-deva.0 iMatra_reph_anusvara-deva.05 iMatra_reph_anusvara-deva.10";
name = DevaIMatraRephAnusvaras;
},
{
automatic = 1;
code = "ka-deva kha-deva ga-deva gha-deva nga-deva ca-deva cha-deva ja-deva jha-deva nya-deva tta-deva ttha-deva dda-deva ddha-deva nna-deva ta-deva tha-deva da-deva dha-deva na-deva nnna-deva pa-deva pha-deva ba-deva bha-deva ma-deva ya-deva ra-deva rra-deva la-deva lla-deva llla-deva va-deva sha-deva ssa-deva sa-deva ha-deva qa-deva khha-deva ghha-deva za-deva dddha-deva rha-deva fa-deva yya-deva zha-deva jjya-deva gga-deva jja-deva ddda-deva bba-deva la-deva.loclMAR sha-deva.loclMAR jha-deva.loclNEP zha-deva.loclNEP na-deva.post ya-deva.post ra-deva.post va-deva.post";
name = DevaFullforms;
},
{
automatic = 1;
code = "k-deva k_r-deva k_ss-deva kh-deva kh_r-deva g-deva g_r-deva gh-deva gh_r-deva ng-deva ng_k-deva c-deva ch-deva j-deva j_j-deva j_ny-deva jh-deva ny-deva tt-deva tth-deva tth_r-deva dd-deva dd_r-deva ddh-deva ddh_r-deva nn-deva t-deva t_t-deva t_r-deva th-deva d-deva dh-deva n-deva nnn-deva p-deva p_r-deva ph-deva b-deva bh-deva m-deva y-deva rr-deva l-deva ll-deva lll-deva v-deva sh-deva sh_r-deva ss-deva s-deva h-deva q-deva khh-deva ghh-deva z-deva f-deva l-deva.loclMAR sh-deva.loclMAR jh-deva.loclNEP";
name = DevaHalfforms;
},
{
automatic = 1;

glyphs = (
{
color = 6;
glyphname = A;
kernLeft = A;
kernRight = A;
lastChange = "2023-01-27 11:07:39 +0000";
layers = (
{
anchors = (
{
name = ogonek;
pos = (683,5);
},
{
name = top;
pos = (397,742);
}
);
hints = (
{
place = (40, 0);
place = (40, 0);
type = Stem;
},
{
place = (40, 0);
place = (40, 0);
type = Stem;
},
{
horizontal = 1;
place = (-13, 0);
place = (-13, 0);
type = Stem;
}
);
layerId = "E777F328-EA17-4AE7-9EBA-8002E537BA4F";
name = Light;
shapes = (
{
closed = 1;
nodes = (
(257,697,o),
(40,475,o),
(40,223,cs),
(40,74,o),
(122,-11,o),
(237,-11,cs),
(351,-11,o),
(434,96,o),
(487,328,c),
(492,328,l),
(492,115,ls),
(492,36,o),
(537,-4,o),
(591,-4,cs),
(640,-4,o),
(680,33,o),
(692,68,c),
(681,79,l),
(670,59,o),
(643,42,o),
(621,42,cs),
(591,42,o),
(573,69,o),
(573,109,cs),
(573,630,l),
(492,594,l),
(492,317,o),
(377,50,o),
(257,50,cs),
(181,50,o),
(125,125,o),
(125,249,cs),
(125,472,o),
(289,654,o),
(517,685,c),
(517,711,l)
);
}
);
width = 690;
},
{
anchors = (
{
name = ogonek;
pos = (665,5);
},
{
name = top;
pos = (392,742);
}
);
hints = (
{
origin = (0,2);
target = (0,2);
type = Stem;
},
{
horizontal = 1;
place = (24, 0);
place = (24, 0);
type = Stem;
},
{
horizontal = 1;
origin = (0,5);
target = (0,5);
type = Stem;
},
{
origin = (0,31);
target = (0,5);
type = Stem;
}
);
layerId = "39185045-6A8C-415A-8312-7B8F11386A4C";
name = Regular;
shapes = (
{
closed = 1;
nodes = (
(260,711,o),
(19,489,o),
(19,223,cs),
(19,77,o),
(92,-9,o),
(217,-9,cs),
(325,-9,o),
(401,69,o),
(430,214,c),
(439,214,l),
(439,134,ls),
(439,37,o),
(478,-9,o),
(559,-9,cs),
(625,-9,o),
(668,13,o),
(707,66,c),
(680,92,l),
(662,71,o),
(643,60,o),
(625,60,cs),
(608,60,o),
(597,75,o),
(597,96,cs),
(597,637,l),
(439,592,l),
(439,317,o),
(363,59,o),
(280,59,cs),
(217,59,o),
(181,125,o),
(181,251,cs),
(181,458,o),
(347,644,o),
(558,671,c),
(558,719,l)
);
}
);
width = 683;
}
);
metricLeft = "2-3.6";
unicode = 65;
},
{
color = 6;
glyphname = AE;
kernLeft = A;
kernRight = E;
lastChange = "2023-01-27 11:07:39 +0000";
layers = (
{
anchors = (
{
name = top;
pos = (498,742);
}
);
layerId = "E777F328-EA17-4AE7-9EBA-8002E537BA4F";
name = Light;
shapes = (
{
closed = 1;
nodes = (
(427,203,l),
(389,101,o),
(332,-11,o),
(222,-11,cs),
(110,-11,o),
(44,97,o),
(44,223,cs),
(44,455,o),
(221,698,o),
(634,692,c),
(634,670,l),
(248,653,o),
(131,437,o),
(131,249,cs),
(131,169,o),
(154,50,o),
(242,50,cs),
(319,50,o),
(368,122,o),
(401,214,c)
);
},
{
closed = 1;
nodes = (
(891,177,l),
(830,76,o),
(717,-11,o),
(585,-11,cs),
(478,-11,o),
(394,59,o),
(394,168,cs),
(394,273,o),
(491,353,o),
(585,394,c),
(517,409,o),
(472,458,o),
(472,522,cs),
(472,658,o),
(628,714,o),
(723,714,cs),
(771,714,o),
(808,694,o),
(842,657,c),
(791,609,l),
(760,635,o),
(722,670,o),
(665,670,cs),
(595,670,o),
(522,625,o),
(522,558,cs),
(522,494,o),
(598,441,o),
(665,441,cs),
(681,441,o),
(697,441,o),
(707,447,c),
(716,421,l),
(626,394,o),
(491,320,o),
(491,203,cs),
(491,125,o),
(540,64,o),
(628,64,cs),
(736,64,o),
(834,132,o),
(871,194,c)
);
}
);
width = 896;
},
{
anchors = (
{
name = top;
pos = (504,742);
}
);
layerId = "39185045-6A8C-415A-8312-7B8F11386A4C";
name = Regular;
shapes = (
{
closed = 1;
nodes = (
(430,214,l),
(406,95,o),
(345,-9,o),
(217,-9,cs),
(97,-9,o),
(19,71,o),
(19,223,cs),
(19,460,o),
(234,711,o),
(572,720,c),
(572,673,l),
(340,644,o),
(181,446,o),
(181,251,cs),
(181,150,o),
(203,59,o),
(280,59,cs),
(330,59,o),
(368,125,o),
(392,213,c)
);
},
{
closed = 1;
nodes = (
(917,196,l),
(857,88,o),
(740,-11,o),
(600,-11,cs),
(458,-11,o),
(385,64,o),
(385,169,cs),
(385,273,o),
(460,349,o),
(535,394,c),
(485,427,o),
(464,467,o),
(464,520,cs),
(464,643,o),
(584,730,o),
(725,730,cs),
(792,730,o),
(857,702,o),
(896,652,c),
(780,590,l),
(756,653,o),
(719,678,o),
(681,678,cs),
(635,678,o),
(591,634,o),
(591,570,cs),
(591,492,o),
(635,451,o),
(698,451,cs),
(719,451,o),
(743,455,o),
(768,464,c),
(777,427,l),
(628,380,o),
(545,322,o),
(545,197,cs),
(545,131,o),
(588,77,o),
(658,77,cs),
(756,77,o),
(839,154,o),
(879,229,c)
);
}
);
width = 907;
}
);
unicode = 198;
},
{
color = 6;
glyphname = B;
kernLeft = H;
kernRight = B;
lastChange = "2023-01-27 11:07:39 +0000";
layers = (
{
hints = (
{
horizontal = 1;
place = (611, 0);
place = (611, 0);
type = Stem;
},
{
horizontal = 1;
place = (224, 0);
place = (224, 0);
type = Stem;
},
{
place = (79, 0);
place = (79, 0);
type = Stem;
},
{
origin = (0,32);
target = (0,22);
type = Stem;
}
);
layerId = "E777F328-EA17-4AE7-9EBA-8002E537BA4F";
name = Light;
shapes = (
{
closed = 1;
nodes = (
(306,381,l),
(391,426,o),
(520,525,o),
(520,625,cs),
(520,689,o),
(467,720,o),
(410,720,cs),
(217,720,o),
(80,574,o),
(80,354,cs),
(80,-5,l),
(160,25,l),
(160,409,ls),
(160,498,o),
(196,670,o),
(332,670,cs),
(392,670,o),
(427,635,o),
(427,585,cs),
(427,477,o),
(293,394,o),
(200,356,c),
(208,329,l),
(249,345,o),
(296,354,o),
(345,354,cs),
(427,354,o),
(513,299,o),
(513,218,cs),
(513,59,o),
(319,-21,o),
(183,-49,c),
(187,-69,l),
(351,-66,o),
(608,25,o),
(608,225,cs),
(608,341,o),
(508,389,o),
(406,389,cs),
(372,389,o),
(340,384,o),
(308,377,c)
);
}
);
width = 644;
},
{
hints = (
{
origin = (0,10);
target = (0,10);
type = Stem;
},
{
origin = (0,21);
target = (0,11);
type = Stem;
},
{
horizontal = 1;
origin = (0,35);
target = (0,35);
type = Stem;
}
);
layerId = "39185045-6A8C-415A-8312-7B8F11386A4C";
name = Regular;
shapes = (
{
closed = 1;
nodes = (
(340,386,l),
(425,437,o),
(548,532,o),
(548,621,cs),
(548,689,o),
(486,720,o),
(418,720,cs),
(205,720,o),
(59,547,o),
(59,354,cs),
(59,-21,l),
(217,29,l),
(217,409,ls),
(217,498,o),
(239,663,o),
(326,663,cs),
(360,663,o),
(381,630,o),
(381,584,cs),
(381,474,o),
(264,391,o),
(176,347,c),
(186,320,l),
(236,339,o),
(275,349,o),
(319,349,cs),
(389,349,o),
(464,299,o),
(464,218,cs),
(464,59,o),
(273,-9,o),
(141,-36,c),
(154,-83,l),
(324,-76,o),
(634,25,o),
(634,226,cs),
(634,343,o),
(527,391,o),
(420,391,cs),
(398,391,o),
(368,386,o),
(343,381,c)
);
}
);
width = 653;
}
);
unicode = 66;
},
{
color = 6;
glyphname = C;
kernLeft = O;
kernRight = C;
lastChange = "2023-01-27 11:07:39 +0000";
layers = (
{
anchors = (
{
name = bottom;
pos = (308,0);
},
{
name = top;
pos = (381,742);
}
);
hints = (
{
place = (43, 0);
place = (43, 0);
type = Stem;
},
{
place = (125, 0);
place = (125, 0);
type = Stem;
},
{
horizontal = 1;
place = (291, 0);
place = (291, 0);
type = Stem;
},
{
horizontal = 1;
place = (-4, 0);
place = (-4, 0);
type = Stem;
}
);
layerId = "E777F328-EA17-4AE7-9EBA-8002E537BA4F";
name = Light;
shapes = (
{
closed = 1;
nodes = (
(226,730,o),
(42,542,o),
(42,291,cs),
(42,126,o),
(135,-11,o),
(300,-11,cs),
(427,-11,o),
(501,62,o),
(547,120,c),
(528,140,l),
(478,89,o),
(413,62,o),
(347,62,cs),
(213,62,o),
(125,177,o),
(125,361,cs),
(125,527,o),
(238,671,o),
(366,671,cs),
(451,671,o),
(506,617,o),
(506,535,cs),
(506,472,o),
(467,411,o),
(410,385,c),
(419,370,l),
(498,394,o),
(580,506,o),
(580,600,cs),
(580,678,o),
(525,730,o),
(441,730,cs)
);
}
);
width = 613;
},
{
anchors = (
{
name = bottom;
pos = (310,0);
},
{
name = top;
pos = (360,742);
}
);
hints = (
{
origin = (0,2);
target = (0,2);
type = Stem;
},
{
origin = (0,15);
target = (0,15);
type = Stem;
},
{
horizontal = 1;
origin = (0,5);
target = (0,5);
type = Stem;
},
{
horizontal = 1;
origin = (0,2);
target = (0,2);
type = Stem;
}
);
layerId = "39185045-6A8C-415A-8312-7B8F11386A4C";
name = Regular;
shapes = (
{
closed = 1;
nodes = (
(214,730,o),
(28,533,o),
(28,285,cs),
(28,106,o),
(138,-9,o),
(309,-9,cs),
(402,-9,o),
(515,51,o),
(581,140,c),
(548,169,l),
(492,113,o),
(436,81,o),
(384,81,cs),
(271,81,o),
(191,198,o),
(191,355,cs),
(191,522,o),
(269,666,o),
(364,666,cs),
(419,666,o),
(457,619,o),
(457,547,cs),
(457,483,o),
(418,421,o),
(361,395,c),
(379,361,l),
(513,398,o),
(608,498,o),
(608,599,cs),
(608,678,o),
(545,730,o),
(451,730,cs)
);
}
);
width = 620;
}
);
unicode = 67;
},
{
color = 6;
glyphname = D;
kernLeft = H;
kernRight = O;
lastChange = "2023-01-27 11:07:39 +0000";
layers = (
{
anchors = (
{
name = center;
pos = (335,370);
},
{
name = top;
pos = (335,742);
}
);
layerId = "E777F328-EA17-4AE7-9EBA-8002E537BA4F";
name = Light;
shapes = (
{
closed = 1;
nodes = (
(283,707,o),
(120,643,o),
(33,556,c),
(50,538,l),
(131,605,o),
(239,652,o),
(353,652,cs),
(489,652,o),
(532,536,o),
(532,446,cs),
(532,248,o),
(384,89,o),
(177,37,c),
(177,570,l),
(97,538,l),
(97,-13,l),
(358,2,o),
(630,203,o),
(630,463,cs),
(630,609,o),
(549,707,o),
(391,707,cs)
);
}
);
width = 673;
},
{
anchors = (
{
name = center;
pos = (341,370);
},
{
name = top;
pos = (341,742);
}
);
layerId = "39185045-6A8C-415A-8312-7B8F11386A4C";
name = Regular;
shapes = (
{
closed = 1;
nodes = (
(221,742,o),
(92,663,o),
(17,591,c),
(49,554,l),
(120,617,o),
(225,671,o),
(308,671,cs),
(414,671,o),
(500,606,o),
(500,446,cs),
(500,260,o),
(391,115,o),
(236,60,c),
(236,600,l),
(80,554,l),
(80,-13,l),
(329,2,o),
(657,169,o),
(657,462,cs),
(657,630,o),
(566,742,o),
(377,742,cs)
);
}
);
width = 683;
}
);
unicode = 68;
},
{
color = 6;
glyphname = Eth;
kernLeft = H;
kernRight = O;
lastChange = "2023-01-27 11:07:39 +0000";
layers = (
{
layerId = "E777F328-EA17-4AE7-9EBA-8002E537BA4F";
name = Light;
shapes = (
{
closed = 1;
nodes = (
(13,374,l),
(-8,324,l),
(330,324,l),
(351,374,l)
);
},
{
ref = D;
}
);
width = 673;
},
{
layerId = "39185045-6A8C-415A-8312-7B8F11386A4C";
name = Regular;
shapes = (
{
closed = 1;
nodes = (
(3,375,l),
(-21,322,l),
(340,322,l),
(363,375,l)
);
},
{
ref = D;
}
);
width = 683;
}
);
unicode = 208;
},
{
color = 6;
glyphname = Dcroat;
kernLeft = D;
kernRight = D;
lastChange = "2023-01-27 11:07:39 +0000";
layers = (
{
layerId = "E777F328-EA17-4AE7-9EBA-8002E537BA4F";
name = Light;
shapes = (
{
closed = 1;
nodes = (
(13,374,l),
(-8,324,l),
(330,324,l),
(351,374,l)
);
},
{
ref = D;
}
);
width = 673;
},
{
layerId = "39185045-6A8C-415A-8312-7B8F11386A4C";
name = Regular;
shapes = (
{
closed = 1;
nodes = (
(3,375,l),
(-21,322,l),
(340,322,l),
(363,375,l)
);
},
{
ref = D;
}
);
width = 683;
}
);
unicode = 272;
},
{
color = 6;
glyphname = E;
kernLeft = H;
kernRight = E;
lastChange = "2023-01-27 11:07:39 +0000";
layers = (
{
anchors = (
{
name = bottom;
pos = (271,0);
},
{
name = ogonek;
pos = (341,5);
},
{
name = top;
pos = (324,742);
}
);
layerId = "E777F328-EA17-4AE7-9EBA-8002E537BA4F";
name = Light;
shapes = (
{
closed = 1;
nodes = (
(268,714,o),
(113,658,o),
(113,522,cs),
(113,458,o),
(157,409,o),
(226,394,c),
(132,353,o),
(34,273,o),
(34,168,cs),
(34,59,o),
(119,-11,o),
(226,-11,cs),
(358,-11,o),
(471,76,o),
(532,177,c),
(513,194,l),
(475,132,o),
(375,64,o),
(268,64,cs),
(181,64,o),
(131,125,o),
(131,203,cs),
(131,320,o),
(267,394,o),
(356,421,c),
(348,447,l),
(338,441,o),
(322,441,o),
(306,441,cs),
(238,441,o),
(163,494,o),
(163,558,cs),
(163,625,o),
(236,670,o),
(306,670,cs),
(363,670,o),
(401,635,o),
(431,609,c),
(482,657,l),
(449,694,o),
(411,714,o),
(364,714,cs)
);
}
);
width = 541;
},
{
anchors = (
{
name = bottom;
pos = (266,0);
},
{
name = ogonek;
pos = (379,5);
},
{
name = top;
pos = (315,742);
}
);
layerId = "39185045-6A8C-415A-8312-7B8F11386A4C";
name = Regular;
shapes = (
{
closed = 1;
nodes = (
(208,730,o),
(86,643,o),
(86,520,cs),
(86,463,o),
(125,402,o),
(181,383,c),
(96,341,o),
(9,267,o),
(9,169,cs),
(9,64,o),
(83,-11,o),
(225,-11,cs),
(364,-11,o),
(481,88,o),
(542,196,c),
(501,229,l),
(463,154,o),
(379,77,o),
(281,77,cs),
(218,77,o),
(181,132,o),
(181,203,cs),
(181,325,o),
(293,394,o),
(401,427,c),
(391,464,l),
(366,455,o),
(343,451,o),
(322,451,cs),
(258,451,o),
(214,492,o),
(214,570,cs),
(214,634,o),
(260,678,o),
(306,678,cs),
(343,678,o),
(379,653,o),
(405,590,c),
(520,652,l),
(481,702,o),
(414,730,o),
(348,730,cs)
);
}
);
width = 532;
}
);
unicode = 69;
},
{
color = 6;
glyphname = F;
kernLeft = H;
kernRight = F;
lastChange = "2023-01-27 11:07:39 +0000";
layers = (
{
layerId = "E777F328-EA17-4AE7-9EBA-8002E537BA4F";
name = Light;
shapes = (
{
closed = 1;
nodes = (
(559,696,o),
(421,697,o),
(358,697,cs),
(214,697,ls),
(141,697,o),
(62,655,o),
(-7,572,c),
(9,559,l),
(41,595,o),
(74,614,o),
(131,614,c),
(269,613,l),
(231,577,o),
(186,520,o),
(186,455,cs),
(186,25,ls),
(186,-5,o),
(177,-48,o),
(156,-71,c),
(176,-91,l),
(234,-42,o),
(266,2,o),
(266,115,c),
(266,513,ls),
(266,554,o),
(278,580,o),
(306,613,c),
(426,613,ls),
(483,613,o),
(570,665,o),
(613,728,c),
(605,737,l)
);
},
{
closed = 1;
nodes = (
(469,391,o),
(436,366,o),
(351,366,cs),
(122,366,l),
(80,311,l),
(332,311,ls),
(409,311,o),
(468,336,o),
(509,397,c),
(496,410,l)
);
}
);
width = 590;
},
{
layerId = "39185045-6A8C-415A-8312-7B8F11386A4C";
name = Regular;
shapes = (
{
closed = 1;
nodes = (
(570,720,o),
(518,711,o),
(486,711,cs),
(179,711,ls),
(71,711,o),
(18,630,o),
(-21,570,c),
(4,544,l),
(39,586,o),
(79,608,o),
(115,608,cs),
(251,608,l),
(205,569,o),
(150,513,o),
(150,455,cs),
(150,29,ls),
(150,-5,o),
(149,-46,o),
(128,-69,c),
(151,-96,l),
(253,-41,o),
(306,31,o),
(306,117,cs),
(306,513,ls),
(306,553,o),
(319,579,o),
(341,608,c),
(397,608,ls),
(519,608,o),
(588,665,o),
(625,725,c),
(605,749,l)
);
},
{
closed = 1;
nodes = (
(460,384,o),
(406,375,o),
(360,375,cs),
(125,375,l),
(69,303,l),
(329,303,ls),
(410,303,o),
(477,328,o),
(518,391,c),
(498,414,l)
);
}
);
width = 590;
}
);
unicode = 70;
},
{
color = 6;
glyphname = G;
kernLeft = O;
kernRight = G;
lastChange = "2023-01-27 11:07:39 +0000";
layers = (
{
anchors = (
{
name = bottom;
pos = (320,0);
},
{
name = top;
pos = (370,742);
}
);
background = {
shapes = (
{
closed = 0;
nodes = (
(347,467,l),
(355,451,l)
);
}
);
};
layerId = "E777F328-EA17-4AE7-9EBA-8002E537BA4F";
name = Light;
shapes = (
{
closed = 1;
nodes = (
(213,725,o),
(44,525,o),
(44,257,cs),
(44,94,o),
(131,-8,o),
(271,-8,cs),
(370,-8,o),
(472,74,o),
(500,208,c),
(506,208,l),
(506,-106,l),
(581,-71,l),
(581,330,l),
(498,299,l),
(494,183,o),
(401,69,o),
(304,69,cs),
(186,69,o),
(135,171,o),
(135,328,cs),
(135,525,o),
(239,671,o),
(385,671,cs),
(439,671,o),
(474,643,o),
(474,599,cs),
(474,544,o),
(418,485,o),
(347,467,c),
(355,451,l),
(460,460,o),
(569,551,o),
(569,632,cs),
(569,689,o),
(513,725,o),
(436,725,cs)
);
}
);
width = 658;
},
{
anchors = (
{
name = bottom;
pos = (335,0);
},
{
name = top;
pos = (384,742);
}
);
layerId = "39185045-6A8C-415A-8312-7B8F11386A4C";
name = Regular;
shapes = (
{
closed = 1;
nodes = (
(212,730,o),
(28,517,o),
(28,257,cs),
(28,103,o),
(117,-9,o),
(241,-9,cs),
(343,-9,o),
(419,48,o),
(457,154,c),
(463,154,l),
(463,-112,l),
(619,-68,l),
(619,343,l),
(463,299,l),
(463,192,o),
(392,88,o),
(317,88,cs),
(246,88,o),
(198,183,o),
(198,329,cs),
(198,525,o),
(271,670,o),
(370,670,cs),
(406,670,o),
(430,641,o),
(430,600,cs),
(430,545,o),
(375,489,o),
(306,471,c),
(324,437,l),
(457,441,o),
(588,540,o),
(588,634,cs),
(588,690,o),
(526,730,o),
(437,730,cs)
);
}
);
width = 668;
}
);
unicode = 71;
},
{
color = 6;
glyphname = H;
kernLeft = H;
kernRight = H;
lastChange = "2023-01-27 11:07:39 +0000";
layers = (
{
anchors = (
{
name = center;
pos = (332,370);
},
{
name = top;
pos = (351,742);
}
);
layerId = "E777F328-EA17-4AE7-9EBA-8002E537BA4F";
name = Light;
shapes = (
{
closed = 1;
nodes = (
(563,19,l),
(482,-13,l),
(482,280,l),
(185,280,l),
(185,19,l),
(104,-13,l),
(104,280,l),
(23,280,l),
(50,335,l),
(104,335,l),
(104,694,l),
(185,728,l),
(185,335,l),
(482,335,l),
(482,694,l),
(563,728,l)
);
}
);
width = 657;
},
{
anchors = (
{
name = center;
pos = (332,370);
},
{
name = top;
pos = (351,742);
}
);
layerId = "39185045-6A8C-415A-8312-7B8F11386A4C";
name = Regular;
shapes = (
{
closed = 1;
nodes = (
(594,25,l),
(437,-21,l),
(437,264,l),
(236,264,l),
(236,25,l),
(80,-21,l),
(80,264,l),
(0,264,l),
(39,340,l),
(80,340,l),
(80,692,l),
(236,737,l),
(236,340,l),
(437,340,l),
(437,692,l),
(594,737,l)
);
}
);
width = 662;
}
);
unicode = 72;
},
{
color = 6;
glyphname = Hbar;
kernLeft = H;
kernRight = H;
lastChange = "2023-01-27 11:07:39 +0000";
layers = (
{
layerId = "E777F328-EA17-4AE7-9EBA-8002E537BA4F";
name = Light;
shapes = (
{
closed = 1;
nodes = (
(29,416,l),
(54,471,l),
(615,471,l),
(591,416,l)
);
},
{
ref = H;
}
);
width = 657;
},
{
layerId = "39185045-6A8C-415A-8312-7B8F11386A4C";
name = Regular;
shapes = (
{
closed = 1;
nodes = (
(0,414,l),
(26,471,l),
(662,471,l),
(635,414,l)
);
},
{
ref = H;
}
);
width = 662;
}
);
unicode = 294;
},
{
color = 6;
glyphname = I;
kernLeft = H;
kernRight = H;
lastChange = "2023-01-27 11:07:39 +0000";
layers = (
{
anchors = (
{
name = ogonek;
pos = (246,32);
},
{
name = top;
pos = (138,742);
}
);
guides = (
{
pos = (-99,394);
}
);
layerId = "E777F328-EA17-4AE7-9EBA-8002E537BA4F";
name = Light;
shapes = (
{
closed = 1;
nodes = (
(95,696,l),
(95,-13,l),
(176,18,l),
(176,728,l)
);
}
);
width = 289;
},
{
anchors = (
{
name = ogonek;
pos = (260,19);
},
{
name = top;
pos = (147,742);
}
);
layerId = "39185045-6A8C-415A-8312-7B8F11386A4C";
name = Regular;
shapes = (
{
closed = 1;
nodes = (
(69,692,l),
(69,-21,l),
(226,25,l),
(226,737,l)
);
}
);
width = 294;
}
);
unicode = 73;
},
{
color = 6;
glyphname = J;
kernLeft = J;
kernRight = J;
lastChange = "2023-01-27 11:07:39 +0000";
layers = (
{
anchors = (
{
name = top;
pos = (226,742);
}
);
layerId = "E777F328-EA17-4AE7-9EBA-8002E537BA4F";
name = Light;
shapes = (
{
closed = 1;
nodes = (
(231,697,ls),
(158,697,o),
(79,655,o),
(9,572,c),
(26,559,l),
(59,595,o),
(89,614,o),
(146,614,cs),
(264,613,l),
(208,573,o),
(166,506,o),
(166,443,cs),
(166,31,ls),
(166,-19,o),
(146,-91,o),
(59,-91,cs),
(-13,-91,o),
(-57,-48,o),
(-81,-17,c),
(-160,-79,l),
(-112,-110,o),
(-50,-131,o),
(-2,-131,cs),
(185,-131,o),
(246,-9,o),
(246,115,c),
(246,500,l),
(246,545,o),
(262,579,o),
(299,621,c),
(370,697,l)
);
}
);
width = 423;
},
{
anchors = (
{
name = top;
pos = (222,742);
}
);
layerId = "39185045-6A8C-415A-8312-7B8F11386A4C";
name = Regular;
shapes = (
{
closed = 1;
nodes = (
(221,711,l),
(91,711,o),
(28,634,o),
(-18,572,c),
(7,543,l),
(44,585,o),
(86,608,o),
(131,608,c),
(234,608,l),
(168,564,o),
(110,513,o),
(110,436,c),
(110,-7,l),
(110,-77,o),
(81,-104,o),
(37,-104,cs),
(-7,-104,o),
(-46,-51,o),
(-64,-7,c),
(-174,-104,l),
(-128,-141,o),
(-77,-161,o),
(7,-161,cs),
(136,-161,o),
(267,-50,o),
(267,89,c),
(267,500,l),
(267,558,o),
(289,592,o),
(347,668,c),
(384,711,l)
);
}
);
width = 345;
}
);
unicode = 74;
},
{
color = 6;
glyphname = K;
kernLeft = H;
kernRight = K;
lastChange = "2023-01-27 11:07:39 +0000";
layers = (
{
anchors = (
{
name = bottom;
pos = (309,0);
},
{
name = top;
pos = (309,742);
}
);
background = {
shapes = (
{
closed = 0;
nodes = (
(617,119,l),
(606,131,l)
);
}
);
};
layerId = "E777F328-EA17-4AE7-9EBA-8002E537BA4F";
name = Light;
shapes = (
{
closed = 1;
nodes = (
(113,223,l),
(164,220,l),
(584,707,l),
(530,712,l)
);
},
{
closed = 1;
nodes = (
(94,694,l),
(94,-13,l),
(174,19,l),
(174,728,l)
);
},
{
closed = 1;
nodes = (
(217,315,l),
(313,141,ls),
(372,36,o),
(392,-8,o),
(471,-8,cs),
(527,-8,o),
(580,41,o),
(617,121,c),
(602,131,l),
(577,85,o),
(535,50,o),
(500,49,cs),
(463,47,o),
(447,64,o),
(419,115,cs),
(269,380,l)
);
}
);
width = 624;
},
{
anchors = (
{
name = bottom;
pos = (311,0);
},
{
name = top;
pos = (311,742);
}
);
layerId = "39185045-6A8C-415A-8312-7B8F11386A4C";
name = Regular;
shapes = (
{
closed = 1;
nodes = (
(125,239,l),
(218,231,l),
(603,706,l),
(506,712,l)
);
},
{
closed = 1;
nodes = (
(69,692,l),
(69,-21,l),
(226,25,l),
(226,737,l)
);
},
{
closed = 1;
nodes = (
(169,273,l),
(317,75,l),
(364,11,o),
(397,-9,o),
(449,-9,cs),
(517,-9,o),
(590,37,o),
(640,113,c),
(611,138,l),
(584,108,o),
(551,88,o),
(522,88,cs),
(501,88,o),
(483,99,o),
(468,119,c),
(292,349,l)
);
}
);
width = 624;
}
);
unicode = 75;
},
{
color = 6;
glyphname = L;
kernLeft = H;
kernRight = L;
lastChange = "2023-01-27 11:07:39 +0000";
layers = (
{
anchors = (
{
name = bottom;
pos = (293,0);
},
{
name = top;
pos = (328,742);
},
{
name = topright;
pos = (548,742);
}
);
layerId = "E777F328-EA17-4AE7-9EBA-8002E537BA4F";
name = Light;
shapes = (
{
closed = 1;
nodes = (
(211,730,o),
(86,586,o),
(86,401,cs),
(86,115,ls),
(86,66,o),
(66,31,o),
(34,8,c),
(54,-8,l),
(89,18,o),
(140,31,o),
(174,31,cs),
(284,31,o),
(374,0,o),
(464,-11,c),
(535,136,l),
(520,145,l),
(494,113,o),
(451,83,o),
(405,83,cs),
(330,83,o),
(300,97,o),
(229,97,cs),
(187,97,o),
(160,80,o),
(131,57,c),
(126,59,l),
(150,89,o),
(167,117,o),
(167,163,cs),
(167,477,ls),
(167,572,o),
(212,675,o),
(338,675,c),
(384,675,o),
(416,652,o),
(416,608,cs),
(416,553,o),
(356,489,o),
(285,471,c),
(293,455,l),
(398,464,o),
(508,554,o),
(508,635,cs),
(508,692,o),
(462,730,o),
(392,730,cs)
);
}
);
width = 559;
},
{
anchors = (
{
name = bottom;
pos = (299,0);
},
{
name = top;
pos = (335,742);
},
{
name = topright;
pos = (559,742);
}
);
layerId = "39185045-6A8C-415A-8312-7B8F11386A4C";
name = Regular;
shapes = (
{
closed = 1;
nodes = (
(200,730,o),
(71,586,o),
(71,401,cs),
(71,141,ls),
(71,79,o),
(60,54,o),
(32,26,c),
(69,-9,l),
(106,15,o),
(140,28,o),
(192,28,cs),
(302,28,o),
(356,-2,o),
(486,-9,c),
(574,186,l),
(544,209,l),
(515,167,o),
(485,138,o),
(431,138,cs),
(386,138,o),
(351,153,o),
(296,153,cs),
(260,153,o),
(227,145,o),
(203,134,c),
(197,140,l),
(218,163,o),
(229,183,o),
(229,221,cs),
(229,515,ls),
(229,582,o),
(268,668,o),
(341,668,cs),
(383,668,o),
(401,639,o),
(401,599,cs),
(401,537,o),
(372,502,o),
(302,460,c),
(315,425,l),
(451,463,o),
(549,527,o),
(549,623,cs),
(549,702,o),
(477,730,o),
(405,730,cs)
);
}
);
width = 569;
}
);
unicode = 76;
},
{
color = 6;
glyphname = Lslash;
kernLeft = H;
kernRight = L;
lastChange = "2023-01-27 11:07:39 +0000";
layers = (
{
layerId = "E777F328-EA17-4AE7-9EBA-8002E537BA4F";
name = Light;
shapes = (
{
closed = 1;
nodes = (
(9,273,l),
(9,218,l),
(268,319,l),
(268,372,l)
);
},
{
ref = L;
}
);
width = 559;
},
{
layerId = "39185045-6A8C-415A-8312-7B8F11386A4C";
name = Regular;
shapes = (
{
closed = 1;
nodes = (
(7,278,l),
(7,217,l),
(292,322,l),
(292,384,l)
);
},
{
ref = L;
}
);
width = 569;
}
);
unicode = 321;
},
{
color = 6;
glyphname = M;
kernLeft = M;
kernRight = M;
lastChange = "2023-01-27 11:07:39 +0000";
layers = (
{
layerId = "E777F328-EA17-4AE7-9EBA-8002E537BA4F";
name = Light;
shapes = (
{
closed = 1;
nodes = (
(99,-13,l),
(179,18,l),
(179,263,ls),
(179,517,o),
(308,652,o),
(365,652,cs),
(377,652,o),
(392,644,o),
(392,617,c),
(392,-13,l),
(471,18,l),
(471,263,ls),
(471,517,o),
(599,652,o),
(655,652,cs),
(670,652,o),
(685,644,o),
(685,617,c),
(685,115,l),
(685,36,o),
(728,-4,o),
(782,-4,cs),
(832,-4,o),
(871,33,o),
(885,68,c),
(873,79,l),
(860,59,o),
(834,42,o),
(813,42,cs),
(782,42,o),
(764,69,o),
(764,109,c),
(764,643,l),
(764,694,o),
(745,728,o),
(701,728,cs),
(630,728,o),
(519,635,o),
(472,449,c),
(472,643,l),
(472,692,o),
(453,728,o),
(408,728,cs),
(338,728,o),
(226,635,o),
(179,446,c),
(179,728,l),
(99,694,l)
);
}
);
width = 881;
},
{
layerId = "39185045-6A8C-415A-8312-7B8F11386A4C";
name = Regular;
shapes = (
{
closed = 1;
nodes = (
(69,-21,l),
(226,26,l),
(226,413,ls),
(226,475,o),
(260,670,o),
(325,670,cs),
(370,670,o),
(370,606,o),
(370,559,cs),
(370,-21,l),
(527,26,l),
(527,413,ls),
(527,475,o),
(561,670,o),
(625,670,cs),
(671,670,o),
(671,606,o),
(671,559,cs),
(671,134,ls),
(671,33,o),
(714,-9,o),
(792,-9,cs),
(871,-9,o),
(909,23,o),
(941,66,c),
(914,92,l),
(897,74,o),
(879,60,o),
(857,60,cs),
(837,60,o),
(829,80,o),
(829,96,cs),
(829,584,ls),
(829,662,o),
(785,730,o),
(690,730,cs),
(613,730,o),
(554,686,o),
(526,577,c),
(526,585,l),
(523,666,o),
(482,730,o),
(391,730,cs),
(313,730,o),
(253,686,o),
(226,582,c),
(226,738,l),
(69,692,l)
);
}
);
width = 913;
}
);
metricRight = "=N";
unicode = 77;
},
{
color = 6;
glyphname = N;
kernLeft = H;
kernRight = H;
lastChange = "2023-01-27 11:07:39 +0000";
layers = (
{
anchors = (
{
name = bottom;
pos = (313,0);
},
{
name = top;
pos = (306,742);
}
);
layerId = "E777F328-EA17-4AE7-9EBA-8002E537BA4F";
name = Light;
shapes = (
{
closed = 1;
nodes = (
(96,-11,l),
(176,23,l),
(176,346,ls),
(176,443,o),
(220,678,o),
(353,678,cs),
(427,678,o),
(428,594,o),
(428,545,cs),
(428,115,l),
(428,36,o),
(472,-4,o),
(526,-4,cs),
(575,-4,o),
(615,33,o),
(628,68,c),
(617,79,l),
(605,59,o),
(579,42,o),
(556,42,cs),
(526,42,o),
(508,69,o),
(508,109,c),
(508,588,ls),
(508,662,o),
(471,730,o),
(389,730,cs),
(260,730,o),
(198,625,o),
(176,528,c),
(176,730,l),
(96,697,l)
);
}
);
width = 626;
},
{
anchors = (
{
name = bottom;
pos = (319,0);
},
{
name = top;
pos = (334,742);
}
);
layerId = "39185045-6A8C-415A-8312-7B8F11386A4C";
name = Regular;
shapes = (
{
closed = 1;
nodes = (
(69,-21,l),
(226,26,l),
(226,413,ls),
(226,475,o),
(268,670,o),
(351,670,cs),
(394,670,o),
(395,606,o),
(395,559,cs),
(395,134,ls),
(395,33,o),
(437,-9,o),
(517,-9,cs),
(597,-9,o),
(632,23,o),
(665,66,c),
(635,92,l),
(621,74,o),
(602,60,o),
(580,60,cs),
(559,60,o),
(553,80,o),
(553,96,cs),
(553,584,ls),
(553,662,o),
(511,730,o),
(416,730,cs),
(326,730,o),
(268,686,o),
(226,582,c),
(226,738,l),
(69,692,l)
);
}
);
width = 636;
}
);
unicode = 78;
},
{
color = 6;
glyphname = Eng;
kernLeft = Eng;
kernRight = Eng;
lastChange = "2023-01-27 11:07:39 +0000";
layers = (
{
layerId = "E777F328-EA17-4AE7-9EBA-8002E537BA4F";
name = Light;
shapes = (
{
closed = 1;
nodes = (
(106,697,l),
(106,-11,l),
(186,23,l),
(186,347,ls),
(186,443,o),
(226,678,o),
(353,678,cs),
(421,678,o),
(423,595,o),
(423,545,cs),
(423,-18,l),
(423,-60,o),
(411,-149,o),
(336,-149,cs),
(288,-149,o),
(236,-109,o),
(214,-74,c),
(141,-140,l),
(185,-172,o),
(243,-192,o),
(285,-192,cs),
(437,-192,o),
(502,-71,o),
(502,55,c),
(502,588,ls),
(502,662,o),
(468,730,o),
(389,730,cs),
(267,730,o),
(207,625,o),
(186,530,c),
(186,730,l)
);
}
);
width = 559;
},
{
layerId = "39185045-6A8C-415A-8312-7B8F11386A4C";
name = Regular;
shapes = (
{
closed = 1;
nodes = (
(69,692,l),
(69,-21,l),
(226,26,l),
(226,413,ls),
(226,475,o),
(268,670,o),
(351,670,cs),
(395,670,o),
(397,606,o),
(397,559,cs),
(397,-89,l),
(397,-160,o),
(368,-186,o),
(324,-186,cs),
(280,-186,o),
(241,-134,o),
(222,-91,c),
(113,-186,l),
(158,-225,o),
(209,-243,o),
(293,-243,cs),
(421,-243,o),
(554,-132,o),
(554,7,c),
(554,584,ls),
(554,662,o),
(511,730,o),
(416,730,cs),
(326,730,o),
(268,686,o),
(226,582,c),
(226,738,l)
);
}
);
width = 620;
}
);
unicode = 330;
},
{
color = 6;
glyphname = O;
kernLeft = O;
kernRight = O;
lastChange = "2023-01-27 11:07:39 +0000";
layers = (
{
anchors = (
{
name = top;
pos = (370,742);
}
);
layerId = "E777F328-EA17-4AE7-9EBA-8002E537BA4F";
name = Light;
shapes = (
{
closed = 1;
nodes = (
(141,722,o),
(48,527,o),
(48,349,cs),
(48,169,o),
(169,-19,o),
(368,-19,cs),
(590,-19,o),
(683,176,o),
(683,349,cs),
(683,535,o),
(563,722,o),
(368,722,cs)
);
},
{
closed = 1;
nodes = (
(528,666,o),
(603,437,o),
(603,284,cs),
(603,185,o),
(553,41,o),
(411,41,cs),
(203,41,o),
(126,267,o),
(126,425,cs),
(126,525,o),
(177,666,o),
(319,666,cs)
);
}
);
width = 726;
},
{
anchors = (
{
name = top;
pos = (368,742);
}
);
layerId = "39185045-6A8C-415A-8312-7B8F11386A4C";
name = Regular;
shapes = (
{
closed = 1;
nodes = (
(158,730,o),
(28,558,o),
(28,361,cs),
(28,177,o),
(158,-9,o),
(368,-9,cs),
(579,-9,o),
(707,163,o),
(707,361,cs),
(707,543,o),
(579,730,o),
(368,730,cs)
);
},
{
closed = 1;
nodes = (
(491,675,o),
(551,460,o),
(551,306,cs),
(551,193,o),
(513,50,o),
(398,50,cs),
(243,50,o),
(185,264,o),
(185,419,cs),
(185,533,o),
(222,675,o),
(339,675,cs)
);
}
);
width = 735;
}
);
unicode = 79;
},
{
color = 6;
glyphname = OE;
kernLeft = O;
kernRight = E;
lastChange = "2023-01-27 11:07:39 +0000";
layers = (
{
anchors = (
{
name = top;
pos = (501,742);
}
);
background = {
shapes = (
{
closed = 1;
nodes = (
(699,719,o),
(559,632,o),
(559,513,cs),
(559,453,o),
(595,394,o),
(655,384,c),
(572,345,o),
(482,268,o),
(482,168,cs),
(482,64,o),
(579,-5,o),
(678,-5,cs),
(806,-5,o),
(914,88,o),
(974,194,c),
(956,211,l),
(919,141,o),
(793,74,o),
(716,74,cs),
(641,74,o),
(598,131,o),
(598,202,cs),
(598,326,o),
(714,398,o),
(821,432,c),
(814,453,l),
(797,446,o),
(780,443,o),
(762,443,cs),
(697,443,o),
(634,494,o),
(634,563,cs),
(634,626,o),
(696,671,o),
(758,671,cs),
(806,671,o),
(842,641,o),
(869,603,c),
(941,655,l),
(908,697,o),
(862,719,o),
(808,719,cs)
);
}
);
};
layerId = "E777F328-EA17-4AE7-9EBA-8002E537BA4F";
name = Light;
shapes = (
{
closed = 1;
nodes = (
(141,722,o),
(48,527,o),
(48,349,cs),
(48,169,o),
(169,-19,o),
(368,-19,cs),
(438,-19,o),
(496,0,o),
(542,33,c),
(574,5,o),
(620,-11,o),
(671,-11,cs),
(804,-11,o),
(917,76,o),
(977,177,c),
(958,194,l),
(921,132,o),
(823,64,o),
(715,64,cs),
(626,64,o),
(577,125,o),
(577,203,cs),
(577,320,o),
(714,394,o),
(803,421,c),
(795,447,l),
(783,441,o),
(769,441,o),
(752,441,cs),
(685,441,o),
(608,494,o),
(608,558,cs),
(608,625,o),
(681,670,o),
(752,670,cs),
(808,670,o),
(847,635,o),
(878,609,c),
(928,657,l),
(896,694,o),
(858,714,o),
(809,714,cs),
(741,714,o),
(639,684,o),
(590,615,c),
(538,680,o),
(462,722,o),
(368,722,cs)
);
},
{
closed = 1;
nodes = (
(453,666,o),
(530,577,o),
(568,478,c),
(583,437,o),
(620,406,o),
(671,394,c),
(579,353,o),
(481,273,o),
(481,168,cs),
(481,131,o),
(491,97,o),
(508,69,c),
(482,52,o),
(450,41,o),
(411,41,cs),
(203,41,o),
(126,267,o),
(126,425,c),
(126,525,o),
(177,666,o),
(319,666,cs)
);
}
);
width = 987;
},
{
anchors = (
{
name = top;
pos = (483,742);
}
);
layerId = "39185045-6A8C-415A-8312-7B8F11386A4C";
name = Regular;
shapes = (
{
closed = 1;
nodes = (
(158,730,o),
(28,558,o),
(28,361,cs),
(28,177,o),
(158,-9,o),
(368,-9,cs),
(424,-9,o),
(474,3,o),
(518,24,c),
(553,3,o),
(599,-11,o),
(658,-11,cs),
(798,-11,o),
(914,88,o),
(975,196,c),
(936,229,l),
(896,154,o),
(814,77,o),
(716,77,cs),
(652,77,o),
(614,132,o),
(614,203,cs),
(614,325,o),
(728,394,o),
(834,427,c),
(824,464,l),
(800,455,o),
(777,451,o),
(756,451,cs),
(692,451,o),
(651,492,o),
(651,570,cs),
(651,634,o),
(694,678,o),
(740,678,cs),
(777,678,o),
(814,653,o),
(839,590,c),
(954,652,l),
(915,702,o),
(850,730,o),
(782,730,cs),
(701,730,o),
(626,701,o),
(579,653,c),
(523,700,o),
(452,730,o),
(368,730,cs)
);
},
{
closed = 1;
nodes = (
(437,675,o),
(498,585,o),
(527,481,cs),
(540,437,o),
(572,397,o),
(617,383,c),
(530,341,o),
(446,267,o),
(446,169,cs),
(446,133,o),
(453,100,o),
(470,74,c),
(451,59,o),
(427,50,o),
(398,50,cs),
(243,50,o),
(185,264,o),
(185,419,c),
(185,533,o),
(222,675,o),
(339,675,cs)
);
}
);
width = 966;
}
);
metricLeft = "=O";
metricRight = "=E";
unicode = 338;
},
{
color = 6;
glyphname = P;
kernLeft = H;
kernRight = P;
lastChange = "2023-01-27 11:07:39 +0000";
layers = (
{
background = {
shapes = (
{
closed = 0;
nodes = (
(49,535,l),
(32,553,l)
);
}
);
};
layerId = "E777F328-EA17-4AE7-9EBA-8002E537BA4F";
name = Light;
shapes = (
{
closed = 1;
nodes = (
(268,709,o),
(126,641,o),
(32,553,c),
(49,535,l),
(124,605,o),
(238,652,o),
(329,652,cs),
(456,652,o),
(513,580,o),
(513,485,cs),
(513,339,o),
(368,238,o),
(237,225,c),
(231,198,l),
(231,197,o),
(236,197,o),
(239,197,cs),
(405,197,o),
(599,334,o),
(599,504,cs),
(599,652,o),
(498,709,o),
(385,709,c)
);
},
{
closed = 1;
nodes = (
(96,528,l),
(96,-11,l),
(176,21,l),
(176,563,l)
);
}
);
width = 618;
},
{
layerId = "39185045-6A8C-415A-8312-7B8F11386A4C";
name = Regular;
shapes = (
{
closed = 1;
nodes = (
(223,742,o),
(101,666,o),
(11,586,c),
(44,551,l),
(120,615,o),
(218,671,o),
(319,671,cs),
(428,671,o),
(474,608,o),
(474,517,cs),
(474,372,o),
(334,281,o),
(203,260,c),
(198,231,l),
(214,229,o),
(222,229,o),
(227,229,cs),
(431,229,o),
(630,365,o),
(630,536,cs),
(630,655,o),
(545,742,o),
(400,742,cs)
);
},
{
closed = 1;
nodes = (
(80,561,l),
(80,-23,l),
(230,25,l),
(230,606,l)
);
}
);
width = 630;
}
);
unicode = 80;
},
{
color = 6;
glyphname = Thorn;
kernLeft = H;
kernRight = Thorn;
lastChange = "2023-01-27 11:07:39 +0000";
layers = (
{
layerId = "E777F328-EA17-4AE7-9EBA-8002E537BA4F";
name = Light;
shapes = (
{
closed = 1;
nodes = (
(271,625,o),
(131,558,o),
(34,468,c),
(51,451,l),
(126,520,o),
(241,568,o),
(332,568,cs),
(458,568,o),
(517,496,o),
(517,401,cs),
(517,255,o),
(370,154,o),
(239,140,c),
(234,114,l),
(234,113,o),
(238,113,o),
(242,113,cs),
(408,113,o),
(602,249,o),
(602,420,cs),
(602,568,o),
(501,625,o),
(389,625,c)
);
},
{
closed = 1;
nodes = (
(95,694,l),
(95,-42,l),
(176,-9,l),
(176,728,l)
);
}
);
width = 618;
},
{
layerId = "39185045-6A8C-415A-8312-7B8F11386A4C";
name = Regular;
shapes = (
{
closed = 1;
nodes = (
(213,626,o),
(91,553,o),
(2,472,c),
(33,437,l),
(110,501,o),
(208,556,o),
(309,556,cs),
(419,556,o),
(464,494,o),
(464,403,cs),
(464,257,o),
(322,167,o),
(193,146,c),
(187,117,l),
(203,114,o),
(211,114,o),
(217,114,cs),
(421,114,o),
(621,251,o),
(621,421,cs),
(621,542,o),
(536,626,o),
(391,626,cs)
);
},
{
closed = 1;
nodes = (
(69,692,l),
(69,-21,l),
(226,25,l),
(226,737,l)
);
}
);
width = 621;
}
);
unicode = 222;
},
{
color = 6;
glyphname = Q;
kernLeft = O;
kernRight = O;
lastChange = "2023-01-27 11:07:39 +0000";
layers = (
{
layerId = "E777F328-EA17-4AE7-9EBA-8002E537BA4F";
name = Light;
shapes = (
{
closed = 1;
nodes = (
(249,203,o),
(217,179,o),
(194,150,c),
(212,131,l),
(226,140,o),
(242,146,o),
(267,146,cs),
(304,146,o),
(339,110,o),
(402,14,cs),
(456,-68,o),
(501,-101,o),
(558,-101,cs),
(599,-101,o),
(632,-77,o),
(654,-49,c),
(635,-29,l),
(623,-37,o),
(606,-44,o),
(581,-44,cs),
(544,-44,o),
(509,-8,o),
(446,86,cs),
(392,169,o),
(347,203,o),
(291,203,cs)
);
},
{
ref = O;
}
);
width = 726;
},
{
layerId = "39185045-6A8C-415A-8312-7B8F11386A4C";
name = Regular;
shapes = (
{
closed = 1;
nodes = (
(262,260,o),
(220,214,o),
(200,181,c),
(220,160,l),
(229,169,o),
(242,179,o),
(262,179,cs),
(308,179,o),
(340,146,o),
(416,42,cs),
(502,-76,o),
(538,-99,o),
(619,-99,cs),
(686,-99,o),
(727,-55,o),
(747,-21,c),
(727,0,l),
(719,-8,o),
(706,-18,o),
(685,-18,cs),
(639,-18,o),
(608,15,o),
(532,119,cs),
(446,236,o),
(409,260,o),
(329,260,cs)
);
},
{
ref = O;
}
);
width = 735;
}
);
unicode = 81;
},
{
color = 6;
glyphname = R;
kernLeft = H;
kernRight = R;
lastChange = "2023-01-27 11:07:39 +0000";
layers = (
{
anchors = (
{
name = bottom;
pos = (324,0);
},
{
name = top;
pos = (339,742);
}
);
background = {
shapes = (
{
closed = 1;
nodes = (
(370,94,o),
(389,112,o),
(389,134,cs),
(389,156,o),
(370,174,o),
(348,174,cs),
(326,174,o),
(309,156,o),
(309,134,cs),
(309,112,o),
(326,94,o),
(348,94,cs)
);
}
);
};
layerId = "E777F328-EA17-4AE7-9EBA-8002E537BA4F";
name = Light;
shapes = (
{
closed = 1;
nodes = (
(268,709,o),
(126,641,o),
(32,553,c),
(49,535,l),
(124,605,o),
(238,652,o),
(329,652,cs),
(456,652,o),
(513,580,o),
(513,485,cs),
(513,339,o),
(379,238,o),
(248,225,c),
(242,198,l),
(364,53,ls),
(400,9,o),
(431,-17,o),
(468,-17,cs),
(542,-17,o),
(592,69,o),
(621,104,c),
(608,115,l),
(585,92,o),
(544,51,o),
(506,51,cs),
(480,51,o),
(462,64,o),
(447,77,c),
(336,211,l),
(471,248,o),
(599,364,o),
(599,504,cs),
(599,652,o),
(498,709,o),
(385,709,cs)
);
},
{
closed = 1;
nodes = (
(92,530,l),
(92,-13,l),
(172,21,l),
(172,563,l)
);
}
);
width = 649;
},
{
anchors = (
{
name = bottom;
pos = (320,0);
},
{
name = top;
pos = (336,742);
}
);
layerId = "39185045-6A8C-415A-8312-7B8F11386A4C";
name = Regular;
shapes = (
{
closed = 1;
nodes = (
(223,742,o),
(101,666,o),
(11,586,c),
(44,551,l),
(120,615,o),
(218,671,o),
(319,671,cs),
(428,671,o),
(474,608,o),
(474,517,cs),
(474,372,o),
(334,281,o),
(203,260,c),
(198,231,l),
(311,75,ls),
(365,0,o),
(401,-9,o),
(446,-9,cs),
(513,-9,o),
(586,40,o),
(635,113,c),
(608,138,l),
(585,114,o),
(551,88,o),
(518,88,cs),
(498,88,o),
(480,97,o),
(464,119,cs),
(364,249,l),
(513,292,o),
(630,403,o),
(630,536,cs),
(630,655,o),
(545,742,o),
(400,742,cs)
);
},
{
closed = 1;
nodes = (
(80,561,l),
(80,-23,l),
(230,25,l),
(230,606,l)
);
}
);
width = 640;
}
);
unicode = 82;
},
{
color = 6;
glyphname = S;
kernLeft = S;
kernRight = S;
lastChange = "2023-01-27 11:07:39 +0000";
layers = (
{
anchors = (
{
name = bottom;
pos = (297,0);
},
{
name = top;
pos = (308,742);
}
);
layerId = "E777F328-EA17-4AE7-9EBA-8002E537BA4F";
name = Light;
shapes = (
{
closed = 1;
nodes = (
(154,728,o),
(46,630,o),
(46,500,cs),
(46,257,o),
(426,288,o),
(426,120,cs),
(426,64,o),
(374,34,o),
(317,34,cs),
(280,34,o),
(193,48,o),
(138,177,c),
(64,94,l),
(115,15,o),
(205,-13,o),
(285,-13,cs),
(395,-13,o),
(482,46,o),
(481,167,cs),
(481,366,o),
(110,313,o),
(110,544,cs),
(110,620,o),
(157,678,o),
(253,678,cs),
(351,678,o),
(416,603,o),
(446,520,c),
(520,611,l),
(465,686,o),
(381,728,o),
(297,728,cs)
);
}
);
width = 548;
},
{
anchors = (
{
name = bottom;
pos = (303,0);
},
{
name = top;
pos = (313,742);
}
);
layerId = "39185045-6A8C-415A-8312-7B8F11386A4C";
name = Regular;
shapes = (
{
closed = 1;
nodes = (
(168,728,o),
(42,634,o),
(42,500,cs),
(42,266,o),
(395,273,o),
(395,121,cs),
(395,86,o),
(370,39,o),
(315,39,cs),
(214,39,o),
(166,140,o),
(143,208,c),
(48,97,l),
(94,37,o),
(187,-9,o),
(285,-9,cs),
(428,-9,o),
(530,59,o),
(530,181,cs),
(530,405,o),
(185,360,o),
(185,547,cs),
(185,615,o),
(234,670,o),
(297,670,cs),
(389,670,o),
(451,586,o),
(482,491,c),
(581,609,l),
(523,685,o),
(439,728,o),
(326,728,cs)
);
}
);
width = 575;
}
);
unicode = 83;
},
{
color = 6;
glyphname = T;
kernLeft = T;
kernRight = T;
lastChange = "2023-01-27 11:07:39 +0000";
layers = (
{
anchors = (
{
name = bottom;
pos = (234,0);
},
{
name = center;
pos = (249,370);
},
{
name = top;
pos = (262,742);
}
);
background = {
shapes = (
{
closed = 1;
nodes = (
(498,716,o),
(441,711,o),
(405,711,cs),
(186,711,ls),
(119,711,o),
(46,632,o),
(-3,572,c),
(5,563,l),
(40,597,o),
(57,613,o),
(113,613,cs),
(299,613,l),
(253,577,o),
(192,520,o),
(192,455,cs),
(192,108,ls),
(192,76,o),
(192,36,o),
(166,8,c),
(179,-4,l),
(239,42,o),
(271,110,o),
(271,197,cs),
(271,513,ls),
(271,554,o),
(284,580,o),
(311,613,c),
(408,614,o),
(486,666,o),
(532,728,c),
(523,737,l)
);
}
);
};
layerId = "E777F328-EA17-4AE7-9EBA-8002E537BA4F";
name = Light;
shapes = (
{
closed = 1;
nodes = (
(478,696,o),
(340,697,o),
(277,697,cs),
(221,697,ls),
(147,697,o),
(68,655,o),
(-2,572,c),
(15,559,l),
(48,595,o),
(79,614,o),
(135,614,c),
(275,613,l),
(231,577,o),
(192,520,o),
(192,455,cs),
(192,95,ls),
(192,64,o),
(183,23,o),
(161,-2,c),
(181,-21,l),
(239,28,o),
(271,71,o),
(271,186,c),
(271,513,ls),
(271,554,o),
(284,580,o),
(310,613,c),
(398,613,o),
(481,665,o),
(532,728,c),
(523,737,l)
);
}
);
width = 500;
},
{
anchors = (
{
name = bottom;
pos = (236,0);
},
{
name = center;
pos = (249,370);
},
{
name = top;
pos = (269,742);
}
);
layerId = "39185045-6A8C-415A-8312-7B8F11386A4C";
name = Regular;
shapes = (
{
closed = 1;
nodes = (
(485,720,o),
(432,711,o),
(401,711,cs),
(187,711,ls),
(80,711,o),
(26,630,o),
(-13,570,c),
(13,544,l),
(46,586,o),
(86,608,o),
(124,608,cs),
(253,608,l),
(209,569,o),
(154,513,o),
(154,455,cs),
(154,104,ls),
(154,69,o),
(151,31,o),
(131,7,c),
(154,-21,l),
(257,34,o),
(310,106,o),
(310,192,cs),
(310,513,ls),
(310,553,o),
(320,579,o),
(345,608,cs),
(421,608,o),
(500,661,o),
(540,725,c),
(518,749,l)
);
}
);
width = 500;
}
);
unicode = 84;
},
{
color = 6;
glyphname = Tbar;
kernLeft = T;
kernRight = T;
lastChange = "2023-01-27 11:07:39 +0000";
layers = (
{
layerId = "E777F328-EA17-4AE7-9EBA-8002E537BA4F";
name = Light;
shapes = (
{
closed = 1;
nodes = (
(120,384,l),
(97,334,l),
(338,334,l),
(364,384,l)
);
},
{
ref = T;
}
);
width = 500;
},
{
layerId = "39185045-6A8C-415A-8312-7B8F11386A4C";
name = Regular;
shapes = (
{
closed = 1;
nodes = (
(89,384,l),
(64,328,l),
(374,328,l),
(401,384,l)
);
},
{
ref = T;
}
);
width = 500;
}
);
unicode = 358;
},
{
color = 6;
glyphname = U;
kernLeft = U;
kernRight = U;
lastChange = "2023-01-27 11:07:39 +0000";
layers = (
{
anchors = (
{
name = ogonek;
pos = (608,5);
},
{
name = top;
pos = (317,742);
}
);
layerId = "E777F328-EA17-4AE7-9EBA-8002E537BA4F";
name = Light;
shapes = (
{
closed = 1;
nodes = (
(416,676,l),
(416,380,ls),
(416,285,o),
(375,44,o),
(243,44,cs),
(161,44,o),
(166,126,o),
(166,176,cs),
(166,707,l),
(86,678,l),
(86,134,ls),
(86,57,o),
(122,-9,o),
(205,-9,cs),
(330,-9,o),
(395,104,o),
(416,197,c),
(416,115,l),
(416,36,o),
(460,-4,o),
(513,-4,cs),
(563,-4,o),
(603,33,o),
(615,68,c),
(605,79,l),
(592,59,o),
(566,42,o),
(544,42,cs),
(513,42,o),
(496,69,o),
(496,109,c),
(496,707,l)
);
}
);
width = 630;
},
{
anchors = (
{
name = ogonek;
pos = (658,5);
},
{
name = top;
pos = (325,742);
}
);
layerId = "39185045-6A8C-415A-8312-7B8F11386A4C";
name = Regular;
shapes = (
{
closed = 1;
nodes = (
(395,694,l),
(395,308,ls),
(395,246,o),
(353,50,o),
(269,50,cs),
(226,50,o),
(226,113,o),
(226,161,cs),
(226,742,l),
(69,692,l),
(69,135,ls),
(69,59,o),
(110,-11,o),
(205,-11,cs),
(296,-11,o),
(354,34,o),
(395,138,c),
(395,124,l),
(395,36,o),
(441,-9,o),
(515,-9,cs),
(595,-9,o),
(632,23,o),
(665,66,c),
(635,92,l),
(620,74,o),
(600,60,o),
(580,60,cs),
(559,60,o),
(553,80,o),
(553,96,cs),
(553,742,l)
);
}
);
width = 640;
}
);
unicode = 85;
},
{
color = 6;
glyphname = V;
kernLeft = V;
kernRight = V;
lastChange = "2023-01-27 11:07:39 +0000";
layers = (
{
layerId = "E777F328-EA17-4AE7-9EBA-8002E537BA4F";
name = Light;
shapes = (
{
closed = 1;
nodes = (
(303,92,l),
(446,392,l),
(464,434,o),
(489,491,o),
(489,533,cs),
(489,597,o),
(452,649,o),
(400,689,c),
(481,774,l),
(536,738,o),
(564,675,o),
(564,620,cs),
(564,566,o),
(542,502,o),
(518,451,c),
(297,-28,l),
(5,665,l),
(85,711,l),
(334,92,l)
);
}
);
width = 582;
},
{
layerId = "39185045-6A8C-415A-8312-7B8F11386A4C";
name = Regular;
shapes = (
{
closed = 1;
nodes = (
(314,157,l),
(425,394,ls),
(441,434,o),
(460,472,o),
(460,519,cs),
(460,591,o),
(419,647,o),
(363,691,c),
(453,792,l),
(517,751,o),
(559,673,o),
(559,614,cs),
(559,559,o),
(536,502,o),
(511,449,cs),
(281,-51,l),
(-19,663,l),
(125,717,l),
(358,157,l)
);
}
);
width = 559;
}
);
unicode = 86;
},
{
color = 6;
glyphname = W;
kernLeft = W;
kernRight = W;
lastChange = "2023-01-27 11:07:39 +0000";
layers = (
{
anchors = (
{
name = top;
pos = (395,742);
}
);
background = {
shapes = (
{
closed = 1;
nodes = (
(185,322,o),
(203,340,o),
(203,363,cs),
(203,384,o),
(185,402,o),
(163,402,cs),
(140,402,o),
(122,384,o),
(122,363,cs),
(122,340,o),
(140,322,o),
(163,322,cs)
);
}
);
};
layerId = "E777F328-EA17-4AE7-9EBA-8002E537BA4F";
name = Light;
shapes = (
{
closed = 1;
nodes = (
(603,689,l),
(652,649,o),
(685,597,o),
(685,533,cs),
(685,491,o),
(663,434,o),
(646,392,c),
(525,121,l),
(545,121,l),
(355,662,l),
(268,630,l),
(509,-18,l),
(716,451,l),
(740,502,o),
(758,566,o),
(758,620,cs),
(758,675,o),
(731,738,o),
(683,774,c)
);
},
{
closed = 1;
nodes = (
(2,680,l),
(260,-18,l),
(400,370,l),
(370,410,l),
(269,140,l),
(291,140,l),
(86,711,l)
);
}
);
width = 788;
},
{
anchors = (
{
name = top;
pos = (398,742);
}
);
layerId = "39185045-6A8C-415A-8312-7B8F11386A4C";
name = Regular;
shapes = (
{
closed = 1;
nodes = (
(598,691,l),
(663,639,o),
(696,582,o),
(696,513,cs),
(696,478,o),
(687,437,o),
(670,394,c),
(584,181,l),
(625,181,l),
(437,689,l),
(293,635,l),
(545,-51,l),
(756,464,l),
(777,515,o),
(791,564,o),
(791,613,cs),
(791,680,o),
(763,742,o),
(689,792,c)
);
},
{
closed = 1;
nodes = (
(-15,663,l),
(248,-51,l),
(431,397,l),
(392,441,l),
(286,181,l),
(325,181,l),
(131,717,l)
);
}
);
width = 796;
}
);
unicode = 87;
},
{
color = 6;
glyphname = X;
kernLeft = X;
kernRight = X;
lastChange = "2023-01-27 11:07:39 +0000";
layers = (
{
layerId = "E777F328-EA17-4AE7-9EBA-8002E537BA4F";
name = Light;
shapes = (
{
closed = 1;
nodes = (
(17,675,l),
(482,-21,l),
(559,11,l),
(95,709,l)
);
},
{
closed = 1;
nodes = (
(284,714,o),
(277,97,o),
(42,97,cs),
(46,97,o),
(42,97,o),
(42,97,c),
(13,-21,l),
(271,-21,o),
(275,595,o),
(511,595,cs),
(511,595,o),
(513,595,o),
(513,597,c),
(542,714,l)
);
}
);
width = 569;
},
{
layerId = "39185045-6A8C-415A-8312-7B8F11386A4C";
name = Regular;
shapes = (
{
closed = 1;
nodes = (
(2,675,l),
(432,-21,l),
(586,23,l),
(156,714,l)
);
},
{
closed = 1;
nodes = (
(262,714,o),
(266,104,o),
(81,104,cs),
(64,104,o),
(44,109,o),
(31,117,c),
(0,-21,l),
(306,-21,o),
(302,588,o),
(487,588,cs),
(504,588,o),
(523,582,o),
(538,575,c),
(568,714,l)
);
}
);
width = 590;
}
);
unicode = 88;
},
{
color = 6;
glyphname = Y;
kernLeft = Y;
kernRight = Y;
lastChange = "2023-01-27 11:07:39 +0000";
layers = (
{
anchors = (
{
name = top;
pos = (319,742);
}
);
layerId = "E777F328-EA17-4AE7-9EBA-8002E537BA4F";
name = Light;
shapes = (
{
closed = 1;
nodes = (
(449,186,l),
(449,-62,ls),
(449,-95,o),
(428,-181,o),
(345,-181,cs),
(293,-181,o),
(251,-136,o),
(234,-106,c),
(158,-169,l),
(198,-203,o),
(248,-223,o),
(304,-223,cs),
(449,-223,o),
(528,-106,o),
(528,25,cs),
(528,707,l),
(449,676,l),
(449,384,ls),
(449,288,o),
(409,53,o),
(275,53,cs),
(203,53,o),
(200,136,o),
(200,187,cs),
(200,581,ls),
(200,632,o),
(163,699,o),
(92,699,cs),
(60,699,o),
(14,663,o),
(0,626,c),
(11,617,l),
(23,634,o),
(50,651,o),
(71,651,cs),
(109,651,o),
(120,619,o),
(120,585,cs),
(120,145,ls),
(120,68,o),
(157,0,o),
(238,0,cs),
(358,0,o),
(421,95,o),
(446,186,c)
);
}
);
width = 626;
},
{
anchors = (
{
name = top;
pos = (320,742);
}
);
layerId = "39185045-6A8C-415A-8312-7B8F11386A4C";
name = Regular;
shapes = (
{
closed = 1;
nodes = (
(414,149,l),
(414,-68,ls),
(414,-138,o),
(385,-164,o),
(341,-164,cs),
(297,-164,o),
(258,-112,o),
(239,-68,c),
(131,-164,l),
(176,-203,o),
(227,-222,o),
(311,-222,cs),
(441,-222,o),
(572,-110,o),
(572,29,cs),
(572,742,l),
(414,694,l),
(414,317,ls),
(414,257,o),
(374,60,o),
(291,60,cs),
(248,60,o),
(246,124,o),
(246,171,cs),
(246,586,ls),
(246,686,o),
(203,730,o),
(124,730,cs),
(44,730,o),
(8,696,o),
(-25,653,c),
(5,626,l),
(19,646,o),
(39,658,o),
(60,658,cs),
(81,658,o),
(88,640,o),
(88,625,cs),
(88,146,ls),
(88,68,o),
(131,0,o),
(225,0,cs),
(311,0,o),
(368,42,o),
(409,149,c)
);
}
);
width = 640;
}
);
unicode = 89;
},
{
color = 6;
glyphname = Z;
kernLeft = Z;
kernRight = Z;
lastChange = "2023-01-27 11:07:39 +0000";
layers = (
{
anchors = (
{
name = top;
pos = (338,742);
}
);
layerId = "E777F328-EA17-4AE7-9EBA-8002E537BA4F";
name = Light;
shapes = (
{
closed = 1;
nodes = (
(500,699,o),
(463,697,o),
(405,697,cs),
(115,697,l),
(25,551,l),
(44,537,l),
(95,602,o),
(138,608,o),
(277,608,cs),
(419,608,l),
(23,11,l),
(44,-8,l),
(85,18,o),
(149,31,o),
(187,31,cs),
(297,31,o),
(386,0,o),
(478,-11,c),
(548,136,l),
(535,145,l),
(508,113,o),
(464,83,o),
(419,83,cs),
(343,83,o),
(313,97,o),
(232,97,cs),
(183,97,o),
(145,80,o),
(114,57,c),
(112,59,l),
(544,707,l),
(528,723,l)
);
}
);
width = 574;
},
{
anchors = (
{
name = top;
pos = (338,742);
}
);
layerId = "39185045-6A8C-415A-8312-7B8F11386A4C";
name = Regular;
shapes = (
{
closed = 1;
nodes = (
(515,714,o),
(480,711,o),
(427,711,cs),
(120,711,l),
(28,525,l),
(59,501,l),
(115,572,o),
(136,579,o),
(267,579,cs),
(400,579,l),
(5,26,l),
(42,-9,l),
(80,15,o),
(113,28,o),
(166,28,cs),
(291,28,o),
(353,-2,o),
(501,-9,c),
(590,186,l),
(558,209,l),
(527,167,o),
(496,138,o),
(437,138,cs),
(385,138,o),
(345,153,o),
(278,153,cs),
(242,153,o),
(208,145,o),
(185,134,c),
(179,140,l),
(585,707,l),
(551,743,l)
);
}
);
width = 595;
}
);
unicode = 90;
},
{
color = 6;
glyphname = a;
kernLeft = a;
kernRight = n;
lastChange = "2023-01-27 11:07:39 +0000";
layers = (
{
anchors = (
{
name = ogonek;
pos = (554,7);
},
{
name = top;
pos = (338,537);
}
);
layerId = "E777F328-EA17-4AE7-9EBA-8002E537BA4F";
name = Light;
shapes = (
{
closed = 1;
nodes = (
(167,500,o),
(51,362,o),
(51,205,cs),
(51,78,o),
(104,-12,o),
(224,-12,cs),
(285,-12,o),
(349,46,o),
(382,113,c),
(383,113,l),
(383,47,o),
(406,-4,o),
(463,-4,cs),
(498,-4,o),
(545,29,o),
(560,76,c),
(546,90,l),
(536,73,o),
(518,49,o),
(492,49,cs),
(471,49,o),
(463,73,o),
(463,86,cs),
(463,350,l),
(387,315,l),
(387,270,ls),
(387,199,o),
(367,59,o),
(234,59,cs),
(147,59,o),
(116,140,o),
(116,238,cs),
(116,348,o),
(181,437,o),
(292,437,cs),
(341,437,o),
(382,401,o),
(401,377,c),
(462,415,l),
(434,476,o),
(368,500,o),
(310,500,cs)
);
}
);
width = 570;
},
{
anchors = (
{
name = ogonek;
pos = (602,7);
},
{
name = top;
pos = (319,537);
}
);
layerId = "39185045-6A8C-415A-8312-7B8F11386A4C";
name = Regular;
shapes = (
{
closed = 1;
nodes = (
(147,500,o),
(40,356,o),
(40,195,cs),
(40,80,o),
(99,-12,o),
(204,-12,cs),
(288,-12,o),
(333,40,o),
(360,106,c),
(365,106,l),
(365,48,o),
(389,-9,o),
(466,-9,cs),
(530,-9,o),
(576,36,o),
(597,77,c),
(575,100,l),
(564,86,o),
(546,69,o),
(527,69,cs),
(511,69,o),
(502,84,o),
(502,103,cs),
(502,360,l),
(356,314,l),
(356,270,ls),
(356,200,o),
(343,64,o),
(257,64,cs),
(195,64,o),
(176,150,o),
(176,238,cs),
(176,344,o),
(221,432,o),
(298,432,cs),
(330,432,o),
(361,410,o),
(378,371,c),
(501,413,l),
(469,476,o),
(394,500,o),
(325,500,cs)
);
}
);
width = 599;
}
);
unicode = 97;
},
{
color = 6;
glyphname = ae;
kernLeft = a;
kernRight = e;
lastChange = "2023-01-27 11:07:39 +0000";
layers = (
{
anchors = (
{
name = top;
pos = (419,537);
}
);
layerId = "E777F328-EA17-4AE7-9EBA-8002E537BA4F";
name = Light;
shapes = (
{
closed = 1;
nodes = (
(509,509,o),
(374,358,o),
(374,207,cs),
(374,91,o),
(463,-12,o),
(581,-12,cs),
(671,-12,o),
(761,41,o),
(820,118,c),
(807,136,l),
(770,108,o),
(701,52,o),
(635,52,cs),
(581,52,o),
(540,83,o),
(502,122,c),
(587,155,o),
(779,293,o),
(779,394,cs),
(779,474,o),
(723,509,o),
(660,509,cs)
);
},
{
closed = 1;
nodes = (
(663,446,o),
(692,426,o),
(692,372,cs),
(692,293,o),
(565,182,o),
(482,147,c),
(464,176,o),
(450,214,o),
(450,254,cs),
(450,334,o),
(515,446,o),
(611,446,cs)
);
},
{
closed = 1;
nodes = (
(323,437,o),
(377,407,o),
(377,340,cs),
(377,196,o),
(348,59,o),
(243,59,cs),
(144,59,o),
(113,179,o),
(113,238,cs),
(113,348,o),
(179,437,o),
(286,437,cs)
);
},
{
closed = 1;
nodes = (
(158,500,o),
(45,344,o),
(45,188,cs),
(45,83,o),
(101,-12,o),
(220,-12,cs),
(292,-12,o),
(370,35,o),
(401,173,c),
(486,406,l),
(450,448,o),
(367,500,o),
(302,500,cs)
);
}
);
width = 845;
},
{
anchors = (
{
name = top;
pos = (427,537);
}
);
layerId = "39185045-6A8C-415A-8312-7B8F11386A4C";
name = Regular;
shapes = (
{
closed = 1;
nodes = (
(497,509,o),
(349,372,o),
(349,212,cs),
(349,78,o),
(447,-12,o),
(581,-12,cs),
(689,-12,o),
(773,56,o),
(833,132,c),
(806,158,l),
(763,108,o),
(703,60,o),
(644,60,cs),
(604,60,o),
(558,83,o),
(531,122,c),
(617,162,o),
(805,298,o),
(805,394,cs),
(805,473,o),
(737,509,o),
(660,509,cs)
);
},
{
closed = 1;
nodes = (
(631,443,o),
(651,414,o),
(651,370,cs),
(651,298,o),
(567,200,o),
(510,159,c),
(495,187,o),
(487,223,o),
(487,259,cs),
(487,358,o),
(533,443,o),
(595,443,cs)
);
},
{
closed = 1;
nodes = (
(318,432,o),
(352,416,o),
(352,358,c),
(352,185,o),
(336,64,o),
(260,64,cs),
(194,64,o),
(175,164,o),
(175,238,cs),
(175,344,o),
(221,432,o),
(295,432,cs)
);
},
{
closed = 1;
nodes = (
(143,500,o),
(37,349,o),
(37,189,cs),
(37,75,o),
(99,-12,o),
(206,-12,cs),
(300,-12,o),
(358,53,o),
(378,168,c),
(509,410,l),
(474,466,o),
(393,500,o),
(322,500,cs)
);
}
);
width = 857;
}
);
unicode = 230;
},
{
color = 6;
glyphname = b;
kernLeft = h;
kernRight = o;
lastChange = "2023-01-27 11:07:39 +0000";
layers = (
{
layerId = "E777F328-EA17-4AE7-9EBA-8002E537BA4F";
name = Light;
shapes = (
{
closed = 1;
nodes = (
(491,342,o),
(419,467,o),
(330,496,c),
(248,425,l),
(338,428,o),
(428,300,o),
(428,199,cs),
(428,139,o),
(377,42,o),
(278,42,cs),
(197,42,o),
(160,104,o),
(160,163,cs),
(160,924,l),
(80,888,l),
(80,185,ls),
(80,74,o),
(141,-12,o),
(251,-12,cs),
(347,-12,o),
(491,138,o),
(491,266,cs)
);
}
);
width = 539;
},
{
layerId = "39185045-6A8C-415A-8312-7B8F11386A4C";
name = Regular;
shapes = (
{
closed = 1;
nodes = (
(535,372,o),
(438,471,o),
(342,500,c),
(215,415,l),
(324,401,o),
(399,300,o),
(399,200,cs),
(399,126,o),
(365,48,o),
(298,48,cs),
(245,48,o),
(221,109,o),
(221,165,cs),
(221,924,l),
(73,878,l),
(73,187,ls),
(73,74,o),
(140,-12,o),
(266,-12,cs),
(415,-12,o),
(535,131,o),
(535,251,cs)
);
}
);
width = 571;
}
);
unicode = 98;
},
{
color = 6;
glyphname = c;
kernLeft = o;
kernRight = c;
lastChange = "2023-01-27 11:07:39 +0000";
layers = (
{
anchors = (
{
name = bottom;
pos = (257,0);
},
{
name = top;
pos = (272,537);
}
);
layerId = "E777F328-EA17-4AE7-9EBA-8002E537BA4F";
name = Light;
shapes = (
{
closed = 1;
nodes = (
(130,506,o),
(43,375,o),
(43,223,cs),
(43,81,o),
(133,-12,o),
(257,-12,cs),
(369,-12,o),
(433,48,o),
(493,140,c),
(478,154,l),
(437,108,o),
(377,49,o),
(283,49,c),
(180,49,o),
(101,130,o),
(101,277,cs),
(101,351,o),
(167,444,o),
(273,444,cs),
(314,444,o),
(365,421,o),
(379,374,c),
(453,411,l),
(425,482,o),
(375,506,o),
(328,506,cs)
);
}
);
width = 520;
},
{
anchors = (
{
name = bottom;
pos = (259,0);
},
{
name = top;
pos = (272,537);
}
);
layerId = "39185045-6A8C-415A-8312-7B8F11386A4C";
name = Regular;
shapes = (
{
closed = 1;
nodes = (
(148,506,o),
(32,377,o),
(32,225,cs),
(32,81,o),
(127,-12,o),
(257,-12,cs),
(369,-12,o),
(443,59,o),
(501,140,c),
(473,164,l),
(430,108,o),
(374,60,o),
(308,60,cs),
(225,60,o),
(162,137,o),
(162,267,cs),
(162,357,o),
(203,438,o),
(271,438,cs),
(305,438,o),
(339,404,o),
(353,337,c),
(479,405,l),
(446,477,o),
(380,506,o),
(316,506,cs)
);
}
);
width = 518;
}
);
unicode = 99;
},
{
color = 6;
glyphname = d;
kernLeft = o;
kernRight = l;
lastChange = "2023-01-27 11:07:39 +0000";
layers = (
{
anchors = (
{
name = center;
pos = (291,269);
},
{
name = topright;
pos = (533,537);
}
);
background = {
shapes = (
{
closed = 1;
nodes = (
(780,1886,l),
(780,1041,l),
(733,1066,o),
(678,1080,o),
(626,1080,cs),
(283,1080,o),
(86,727,o),
(86,420,cs),
(86,181,o),
(214,-28,o),
(460,-28,cs),
(621,-28,o),
(719,110,o),
(780,234,c),
(780,209,ls),
(780,74,o),
(842,-14,o),
(987,-14,cs),
(1094,-14,o),
(1190,69,o),
(1236,164,c),
(1196,207,l),
(1174,172,o),
(1134,131,o),
(1092,131,cs),
(1052,131,o),
(1036,167,o),
(1036,203,cs),
(1036,1975,l)
);
},
{
closed = 1;
nodes = (
(686,945,o),
(740,914,o),
(780,871,c),
(780,579,l),
(780,423,o),
(751,131,o),
(544,131,cs),
(375,131,o),
(325,366,o),
(325,506,cs),
(325,680,o),
(409,945,o),
(625,945,cs)
);
}
);
};
layerId = "E777F328-EA17-4AE7-9EBA-8002E537BA4F";
name = Light;
shapes = (
{
closed = 1;
nodes = (
(387,888,l),
(387,480,l),
(359,500,o),
(330,506,o),
(301,506,cs),
(145,506,o),
(50,340,o),
(50,201,cs),
(50,86,o),
(107,-12,o),
(232,-12,cs),
(306,-12,o),
(353,57,o),
(381,112,c),
(385,112,l),
(383,20,o),
(413,-4,o),
(468,-4,cs),
(500,-4,o),
(545,29,o),
(565,76,c),
(547,90,l),
(540,73,o),
(519,49,o),
(498,49,cs),
(476,49,o),
(470,73,o),
(470,86,cs),
(470,924,l)
);
},
{
closed = 1;
nodes = (
(332,449,o),
(365,430,o),
(387,406,c),
(387,270,l),
(387,199,o),
(371,59,o),
(249,59,cs),
(151,59,o),
(122,181,o),
(122,235,cs),
(122,305,o),
(164,449,o),
(293,449,cs)
);
}
);
width = 581;
},
{
anchors = (
{
name = center;
pos = (302,269);
},
{
name = topright;
pos = (615,537);
}
);
layerId = "39185045-6A8C-415A-8312-7B8F11386A4C";
name = Regular;
shapes = (
{
closed = 1;
nodes = (
(356,878,l),
(356,492,l),
(339,500,o),
(315,506,o),
(295,506,cs),
(128,506,o),
(39,340,o),
(39,194,cs),
(39,83,o),
(100,-12,o),
(207,-12,cs),
(284,-12,o),
(331,46,o),
(355,106,c),
(361,106,l),
(361,38,o),
(388,-9,o),
(468,-9,cs),
(531,-9,o),
(576,36,o),
(599,77,c),
(575,100,l),
(566,86,o),
(546,69,o),
(529,69,cs),
(513,69,o),
(505,84,o),
(505,103,cs),
(505,924,l)
);
},
{
closed = 1;
nodes = (
(320,437,o),
(340,426,o),
(356,411,c),
(356,270,ls),
(356,200,o),
(344,64,o),
(263,64,cs),
(197,64,o),
(178,165,o),
(178,237,cs),
(178,329,o),
(215,437,o),
(298,437,cs)
);
}
);
width = 607;
}
);
unicode = 100;
},
{
color = 6;
glyphname = eth;
kernLeft = eth;
kernRight = eth;
lastChange = "2023-01-27 11:07:39 +0000";
layers = (
{
layerId = "E777F328-EA17-4AE7-9EBA-8002E537BA4F";
name = Light;
shapes = (
{
closed = 1;
nodes = (
(95,851,l),
(353,704,o),
(432,486,o),
(432,294,cs),
(432,166,o),
(360,42,o),
(241,42,cs),
(132,42,o),
(79,113,o),
(79,192,cs),
(79,280,o),
(174,443,o),
(377,439,c),
(343,473,o),
(311,491,o),
(272,523,c),
(145,514,o),
(37,398,o),
(37,273,cs),
(37,65,o),
(156,-14,o),
(265,-14,cs),
(401,-14,o),
(513,126,o),
(513,276,cs),
(513,516,o),
(411,761,o),
(113,869,c)
);
},
{
closed = 1;
nodes = (
(139,687,l),
(139,625,l),
(475,737,l),
(475,801,l)
);
}
);
width = 586;
},
{
layerId = "39185045-6A8C-415A-8312-7B8F11386A4C";
name = Regular;
shapes = (
{
closed = 1;
nodes = (
(85,851,l),
(230,765,o),
(408,578,o),
(408,296,cs),
(408,159,o),
(353,52,o),
(267,52,cs),
(190,52,o),
(154,119,o),
(154,196,cs),
(154,294,o),
(236,417,o),
(369,420,c),
(341,455,o),
(299,489,o),
(259,513,c),
(133,496,o),
(39,379,o),
(39,260,cs),
(39,110,o),
(131,-13,o),
(287,-13,cs),
(435,-13,o),
(556,128,o),
(556,281,cs),
(556,622,o),
(306,805,o),
(106,877,c)
);
},
{
closed = 1;
nodes = (
(123,681,l),
(123,608,l),
(479,748,l),
(479,822,l)
);
}
);
width = 586;
}
);
unicode = 240;
},
{
color = 6;
glyphname = dcroat;
kernLeft = o;
kernRight = l;
lastChange = "2023-01-27 11:07:39 +0000";
layers = (
{
layerId = "E777F328-EA17-4AE7-9EBA-8002E537BA4F";
name = Light;
shapes = (
{
closed = 1;
nodes = (
(291,656,l),
(265,592,l),
(531,592,l),
(556,656,l)
);
},
{
ref = d;
}
);
width = 581;
},
{
layerId = "39185045-6A8C-415A-8312-7B8F11386A4C";
name = Regular;
shapes = (
{
closed = 1;
nodes = (
(238,654,l),
(210,587,l),
(568,587,l),
(596,654,l)
);
},
{
ref = d;
}
);
width = 606;
}
);
metricLeft = "=d";
metricRight = "=d";
unicode = 273;
},
{
color = 6;
glyphname = e;
kernLeft = o;
kernRight = e;
lastChange = "2023-01-27 11:07:39 +0000";
layers = (
{
anchors = (
{
name = bottom;
pos = (261,0);
},
{
name = ogonek;
pos = (431,7);
},
{
name = top;
pos = (280,537);
}
);
background = {
shapes = (
{
closed = 1;
nodes = (
(380,1085,o),
(81,780,o),
(81,449,cs),
(81,181,o),
(277,-28,o),
(547,-28,cs),
(762,-28,o),
(945,104,o),
(1071,268,c),
(1030,313,l),
(941,231,o),
(802,119,o),
(673,119,cs),
(573,119,o),
(480,177,o),
(411,262,c),
(592,339,o),
(998,635,o),
(998,842,cs),
(998,1013,o),
(864,1085,o),
(711,1085,cs)
);
},
{
closed = 1;
nodes = (
(683,950,o),
(740,896,o),
(740,792,cs),
(740,630,o),
(517,409,o),
(370,328,c),
(328,389,o),
(309,467,o),
(309,545,cs),
(309,743,o),
(423,950,o),
(592,950,cs)
);
}
);
};
layerId = "E777F328-EA17-4AE7-9EBA-8002E537BA4F";
name = Light;
shapes = (
{
closed = 1;
nodes = (
(179,509,o),
(47,356,o),
(47,207,cs),
(47,91,o),
(131,-12,o),
(254,-12,cs),
(369,-12,o),
(433,40,o),
(491,115,c),
(481,135,l),
(441,86,o),
(372,49,o),
(305,49,cs),
(250,49,o),
(207,64,o),
(170,122,c),
(253,155,o),
(449,293,o),
(449,394,cs),
(449,474,o),
(393,509,o),
(328,509,cs)
);
},
{
closed = 1;
nodes = (
(333,446,o),
(369,426,o),
(369,372,cs),
(369,293,o),
(233,182,o),
(148,147,c),
(128,176,o),
(118,212,o),
(118,254,cs),
(118,347,o),
(181,446,o),
(277,446,cs)
);
}
);
width = 518;
},
{
anchors = (
{
name = bottom;
pos = (270,0);
},
{
name = ogonek;
pos = (443,7);
},
{
name = top;
pos = (286,537);
}
);
layerId = "39185045-6A8C-415A-8312-7B8F11386A4C";
name = Regular;
shapes = (
{
closed = 1;
nodes = (
(179,509,o),
(32,371,o),
(32,212,cs),
(32,78,o),
(130,-12,o),
(264,-12,cs),
(380,-12,o),
(456,56,o),
(516,131,c),
(490,158,l),
(446,100,o),
(385,59,o),
(328,59,cs),
(286,59,o),
(239,77,o),
(213,122,c),
(299,162,o),
(488,298,o),
(488,394,cs),
(488,473,o),
(419,509,o),
(341,509,cs)
);
},
{
closed = 1;
nodes = (
(314,443,o),
(335,414,o),
(335,370,cs),
(335,298,o),
(250,200,o),
(191,159,c),
(176,187,o),
(167,222,o),
(167,259,cs),
(167,347,o),
(214,443,o),
(280,443,cs)
);
}
);
width = 541;
}
);
unicode = 101;
},
{
color = 6;
glyphname = f;
kernLeft = f;
kernRight = f;
lastChange = "2023-01-27 11:07:39 +0000";
layers = (
{
layerId = "E777F328-EA17-4AE7-9EBA-8002E537BA4F";
name = Light;
shapes = (
{
closed = 1;
nodes = (
(149,932,o),
(94,777,o),
(94,635,cs),
(94,500,l),
(55,500,l),
(29,437,l),
(94,437,l),
(94,-177,l),
(174,-135,l),
(174,437,l),
(365,437,l),
(396,500,l),
(174,500,l),
(174,779,ls),
(174,830,o),
(195,899,o),
(278,899,cs),
(340,899,o),
(377,856,o),
(396,824,c),
(452,856,l),
(416,900,o),
(357,932,o),
(325,932,cs)
);
}
);
width = 368;
},
{
layerId = "39185045-6A8C-415A-8312-7B8F11386A4C";
name = Regular;
shapes = (
{
closed = 1;
nodes = (
(152,932,o),
(90,777,o),
(90,635,cs),
(90,500,l),
(50,500,l),
(21,432,l),
(90,432,l),
(90,-185,l),
(239,-129,l),
(239,432,l),
(363,432,l),
(394,500,l),
(239,500,l),
(239,768,ls),
(239,814,o),
(251,876,o),
(306,876,cs),
(345,876,o),
(372,833,o),
(385,774,c),
(505,838,l),
(470,899,o),
(401,932,o),
(339,932,cs)
);
}
);
width = 367;
}
);
unicode = 102;
},
{
color = 6;
glyphname = g;
kernLeft = g;
kernRight = g;
lastChange = "2023-01-27 11:07:39 +0000";
layers = (
{
anchors = (
{
name = top;
pos = (295,537);
}
);
layerId = "E777F328-EA17-4AE7-9EBA-8002E537BA4F";
name = Light;
shapes = (
{
closed = 1;
nodes = (
(164,515,o),
(50,360,o),
(50,188,cs),
(50,78,o),
(107,-12,o),
(230,-12,cs),
(302,-12,o),
(347,58,o),
(385,113,c),
(392,113,l),
(386,93,o),
(385,72,o),
(385,58,c),
(388,-28,l),
(388,-106,o),
(382,-228,o),
(265,-228,cs),
(228,-228,o),
(208,-209,o),
(204,-189,c),
(118,-257,l),
(140,-284,o),
(169,-296,o),
(204,-296,cs),
(365,-296,o),
(463,-98,o),
(463,45,cs),
(463,350,l),
(385,315,l),
(385,270,ls),
(385,199,o),
(366,59,o),
(247,59,cs),
(147,59,o),
(116,160,o),
(116,238,cs),
(116,323,o),
(179,454,o),
(291,454,cs),
(338,454,o),
(380,423,o),
(401,377,c),
(463,415,l),
(432,476,o),
(368,515,o),
(307,515,cs)
);
}
);
width = 540;
},
{
anchors = (
{
name = top;
pos = (302,537);
}
);
layerId = "39185045-6A8C-415A-8312-7B8F11386A4C";
name = Regular;
shapes = (
{
closed = 1;
nodes = (
(145,505,o),
(39,347,o),
(39,189,cs),
(39,80,o),
(100,-12,o),
(206,-12,cs),
(283,-12,o),
(329,46,o),
(356,106,c),
(364,106,l),
(358,84,o),
(355,51,o),
(355,21,cs),
(355,-38,ls),
(355,-129,o),
(343,-210,o),
(255,-210,cs),
(228,-210,o),
(200,-196,o),
(169,-167,c),
(86,-257,l),
(113,-283,o),
(147,-292,o),
(182,-292,cs),
(349,-292,o),
(502,-109,o),
(502,51,cs),
(502,360,l),
(355,314,l),
(355,270,ls),
(355,200,o),
(342,64,o),
(262,64,cs),
(195,64,o),
(176,158,o),
(176,238,cs),
(176,327,o),
(221,438,o),
(297,438,cs),
(329,438,o),
(360,418,o),
(378,372,c),
(501,413,l),
(468,476,o),
(394,505,o),
(324,505,cs)
);
}
);
width = 570;
}
);
unicode = 103;
},
{
color = 6;
glyphname = h;
kernLeft = h;
kernRight = n;
lastChange = "2023-01-27 11:07:39 +0000";
layers = (
{
anchors = (
{
name = center;
pos = (280,269);
},
{
name = top;
pos = (137,902);
}
);
layerId = "E777F328-EA17-4AE7-9EBA-8002E537BA4F";
name = Light;
shapes = (
{
closed = 1;
nodes = (
(86,888,l),
(86,-14,l),
(163,11,l),
(163,30,o),
(216,397,o),
(339,397,cs),
(360,397,o),
(365,375,o),
(365,361,cs),
(365,95,ls),
(365,23,o),
(392,-4,o),
(437,-4,cs),
(474,-4,o),
(520,29,o),
(538,73,c),
(527,87,l),
(516,70,o),
(497,46,o),
(473,46,cs),
(448,46,o),
(441,70,o),
(441,80,cs),
(441,359,ls),
(441,419,o),
(446,509,o),
(380,509,cs),
(248,509,o),
(184,278,o),
(171,199,c),
(167,199,l),
(167,924,l)
);
}
);
width = 558;
},
{
anchors = (
{
name = center;
pos = (302,269);
},
{
name = top;
pos = (161,902);
}
);
layerId = "39185045-6A8C-415A-8312-7B8F11386A4C";
name = Regular;
shapes = (
{
closed = 1;
nodes = (
(77,878,l),
(77,-13,l),
(228,15,l),
(228,167,o),
(268,392,o),
(336,392,cs),
(349,392,o),
(352,371,o),
(352,359,cs),
(352,100,ls),
(352,39,o),
(382,-9,o),
(463,-9,cs),
(527,-9,o),
(572,36,o),
(594,77,c),
(574,99,l),
(563,85,o),
(545,68,o),
(526,68,cs),
(509,68,o),
(500,83,o),
(500,101,cs),
(500,376,ls),
(500,435,o),
(494,509,o),
(415,509,cs),
(320,509,o),
(257,394,o),
(230,283,c),
(225,283,l),
(225,924,l)
);
}
);
width = 601;
}
);
unicode = 104;
},
{
color = 6;
glyphname = hbar;
kernLeft = h;
kernRight = n;
lastChange = "2023-01-27 11:07:39 +0000";
layers = (
{
layerId = "E777F328-EA17-4AE7-9EBA-8002E537BA4F";
name = Light;
shapes = (
{
closed = 1;
nodes = (
(23,656,l),
(-4,592,l),
(275,592,l),
(300,656,l)
);
},
{
ref = h;
}
);
width = 558;
},
{
layerId = "39185045-6A8C-415A-8312-7B8F11386A4C";
name = Regular;
shapes = (
{
closed = 1;
nodes = (
(13,654,l),
(-16,587,l),
(305,587,l),
(331,654,l)
);
},
{
ref = h;
}
);
width = 601;
}
);
unicode = 295;
},
{
color = 6;
glyphname = i;
kernLeft = i;
kernRight = i;
lastChange = "2023-01-27 11:07:39 +0000";
layers = (
{
layerId = "E777F328-EA17-4AE7-9EBA-8002E537BA4F";
name = Light;
shapes = (
{
closed = 1;
nodes = (
(91,461,l),
(91,95,ls),
(91,14,o),
(122,-4,o),
(160,-4,cs),
(181,-4,o),
(235,6,o),
(271,73,c),
(256,87,l),
(236,58,o),
(217,46,o),
(203,46,cs),
(183,46,o),
(173,62,o),
(173,80,cs),
(173,495,l)
);
},
{
closed = 1;
nodes = (
(77,798,l),
(119,591,l),
(140,599,l),
(174,831,l)
);
}
);
width = 290;
},
{
layerId = "39185045-6A8C-415A-8312-7B8F11386A4C";
name = Regular;
shapes = (
{
closed = 1;
nodes = (
(77,456,l),
(77,100,ls),
(77,36,o),
(106,-9,o),
(184,-9,cs),
(243,-9,o),
(291,28,o),
(319,77,c),
(298,99,l),
(284,80,o),
(266,68,o),
(249,68,cs),
(235,68,o),
(226,80,o),
(226,101,cs),
(226,503,l)
);
},
{
closed = 1;
nodes = (
(62,791,l),
(102,580,l),
(195,610,l),
(230,848,l)
);
}
);
width = 328;
}
);
unicode = 105;
},
{
color = 6;
glyphname = dotlessi;
kernLeft = i;
kernRight = i;
lastChange = "2023-01-27 11:07:39 +0000";
layers = (
{
anchors = (
{
name = ogonek;
pos = (263,7);
},
{
name = top;
pos = (120,537);
}
);
layerId = "E777F328-EA17-4AE7-9EBA-8002E537BA4F";
name = Light;
shapes = (
{
closed = 1;
nodes = (
(92,461,l),
(92,95,ls),
(92,14,o),
(120,-4,o),
(160,-4,cs),
(181,-4,o),
(236,6,o),
(272,73,c),
(257,87,l),
(236,58,o),
(218,46,o),
(204,46,cs),
(184,46,o),
(173,62,o),
(173,80,cs),
(173,495,l)
);
}
);
width = 291;
},
{
anchors = (
{
name = ogonek;
pos = (322,7);
},
{
name = top;
pos = (156,537);
}
);
layerId = "39185045-6A8C-415A-8312-7B8F11386A4C";
name = Regular;
shapes = (
{
closed = 1;
nodes = (
(77,456,l),
(77,100,ls),
(77,36,o),
(105,-9,o),
(184,-9,cs),
(243,-9,o),
(292,28,o),
(320,77,c),
(299,99,l),
(284,80,o),
(266,68,o),
(250,68,cs),
(236,68,o),
(226,80,o),
(226,101,cs),
(226,503,l)
);
}
);
width = 329;
}
);
unicode = 305;
},
{
color = 6;
glyphname = j;
kernLeft = j;
kernRight = j;
lastChange = "2023-01-27 11:07:39 +0000";
layers = (
{
layerId = "E777F328-EA17-4AE7-9EBA-8002E537BA4F";
name = Light;
shapes = (
{
closed = 1;
nodes = (
(186,831,l),
(149,599,l),
(126,591,l),
(87,798,l)
);
},
{
closed = 1;
nodes = (
(180,54,ls),
(180,-134,o),
(41,-294,o),
(-101,-294,cs),
(-128,-294,o),
(-154,-288,o),
(-184,-268,c),
(-114,-181,l),
(-83,-209,o),
(-46,-215,o),
(-16,-215,cs),
(37,-215,o),
(102,-191,o),
(102,-8,cs),
(102,459,l),
(180,495,l)
);
}
);
width = 269;
},
{
layerId = "39185045-6A8C-415A-8312-7B8F11386A4C";
name = Regular;
shapes = (
{
closed = 1;
nodes = (
(237,848,l),
(201,610,l),
(108,580,l),
(69,791,l)
);
},
{
closed = 1;
nodes = (
(230,55,ls),
(230,-122,o),
(62,-291,o),
(-99,-291,cs),
(-131,-291,o),
(-165,-284,o),
(-194,-261,c),
(-115,-164,l),
(-76,-196,o),
(-42,-205,o),
(-17,-205,cs),
(49,-205,o),
(82,-159,o),
(82,-31,cs),
(82,457,l),
(230,503,l)
);
}
);
width = 302;
}
);
unicode = 106;
},
{
color = 6;
glyphname = dotlessj;
kernLeft = j;
kernRight = j;
lastChange = "2023-01-27 11:07:39 +0000";
layers = (
{
anchors = (
{
name = top;
pos = (145,537);
}
);
layerId = "E777F328-EA17-4AE7-9EBA-8002E537BA4F";
name = Light;
shapes = (
{
closed = 1;
nodes = (
(180,54,ls),
(180,-134,o),
(41,-294,o),
(-104,-294,cs),
(-128,-294,o),
(-154,-288,o),
(-184,-268,c),
(-114,-181,l),
(-83,-209,o),
(-49,-215,o),
(-16,-215,c),
(37,-215,o),
(102,-191,o),
(102,-8,cs),
(102,459,l),
(180,495,l)
);
}
);
width = 268;
},
{
anchors = (
{
name = top;
pos = (158,537);
}
);
layerId = "39185045-6A8C-415A-8312-7B8F11386A4C";
name = Regular;
shapes = (
{
closed = 1;
nodes = (
(230,55,ls),
(230,-122,o),
(62,-291,o),
(-101,-291,cs),
(-131,-291,o),
(-165,-284,o),
(-194,-261,c),
(-115,-164,l),
(-76,-196,o),
(-43,-205,o),
(-17,-205,cs),
(49,-205,o),
(82,-159,o),
(82,-31,cs),
(82,457,l),
(230,503,l)
);
}
);
width = 302;
}
);
unicode = 567;
},
{
color = 6;
glyphname = k;
kernLeft = h;
kernRight = k;
lastChange = "2023-01-27 11:07:39 +0000";
layers = (
{
anchors = (
{
name = bottom;
pos = (270,0);
}
);
layerId = "E777F328-EA17-4AE7-9EBA-8002E537BA4F";
name = Light;
shapes = (
{
closed = 1;
nodes = (
(89,888,l),
(89,-14,l),
(169,11,l),
(170,51,o),
(177,130,o),
(188,165,c),
(197,173,l),
(240,144,o),
(301,-10,o),
(398,-10,cs),
(441,-10,o),
(500,14,o),
(531,62,c),
(516,77,l),
(498,57,o),
(476,43,o),
(449,43,cs),
(392,43,o),
(306,183,o),
(288,211,c),
(356,251,o),
(460,333,o),
(460,423,cs),
(460,469,o),
(436,509,o),
(394,509,cs),
(273,509,o),
(197,280,o),
(174,183,c),
(167,183,l),
(167,924,l)
);
},
{
closed = 1;
nodes = (
(360,399,o),
(372,373,o),
(372,359,cs),
(372,284,o),
(268,214,o),
(192,188,c),
(203,188,o),
(272,399,o),
(336,399,cs)
);
}
);
width = 546;
},
{
anchors = (
{
name = bottom;
pos = (296,0);
}
);
layerId = "39185045-6A8C-415A-8312-7B8F11386A4C";
name = Regular;
shapes = (
{
closed = 1;
nodes = (
(73,878,l),
(73,-13,l),
(221,15,l),
(221,46,o),
(227,104,o),
(234,133,c),
(243,136,l),
(297,75,o),
(355,-11,o),
(437,-11,cs),
(509,-11,o),
(566,35,o),
(593,80,c),
(572,104,l),
(559,88,o),
(538,75,o),
(512,75,cs),
(466,75,o),
(417,142,o),
(365,205,c),
(433,248,o),
(533,326,o),
(533,422,cs),
(533,469,o),
(499,509,o),
(442,509,cs),
(328,509,o),
(267,375,o),
(229,251,c),
(222,251,l),
(222,924,l)
);
},
{
closed = 1;
nodes = (
(378,410,o),
(387,393,o),
(387,370,cs),
(387,307,o),
(320,232,o),
(238,172,c),
(255,244,o),
(316,410,o),
(361,410,cs)
);
}
);
width = 594;
}
);
unicode = 107;
},
{
color = 6;
glyphname = kgreenlandic;
kernLeft = h;
kernRight = k;
lastChange = "2023-01-27 11:07:39 +0000";
layers = (
{
background = {
shapes = (
{
closed = 1;
nodes = (
(1166,153,l),
(1112,57,o),
(998,-23,o),
(886,-23,cs),
(743,-23,o),
(570,223,o),
(468,325,c),
(446,313,l),
(428,246,o),
(418,103,o),
(414,32,c),
(161,-57,l),
(161,1024,l),
(414,1113,l),
(414,446,l),
(474,649,o),
(619,1085,o),
(883,1085,cs),
(991,1085,o),
(1058,1004,o),
(1058,902,cs),
(1058,694,o),
(826,513,o),
(668,423,c),
(747,355,o),
(886,135,o),
(993,135,cs),
(1047,135,o),
(1092,161,o),
(1122,200,c)
);
},
{
closed = 1;
nodes = (
(797,832,o),
(762,866,o),
(733,866,cs),
(621,866,o),
(502,502,o),
(474,418,c),
(549,474,o),
(797,707,o),
(797,802,cs)
);
}
);
};
layerId = "E777F328-EA17-4AE7-9EBA-8002E537BA4F";
name = Light;
shapes = (
{
closed = 1;
nodes = (
(89,-14,l),
(169,11,l),
(173,51,o),
(177,139,o),
(191,173,c),
(200,173,l),
(230,160,o),
(340,-10,o),
(402,-10,cs),
(436,-10,o),
(491,14,o),
(516,62,c),
(496,77,l),
(481,57,o),
(460,43,o),
(434,43,cs),
(371,43,o),
(282,193,o),
(263,189,c),
(345,231,o),
(465,320,o),
(465,423,cs),
(465,469,o),
(438,509,o),
(398,509,cs),
(275,509,o),
(197,277,o),
(176,183,c),
(168,183,l),
(168,530,l),
(89,494,l)
);
},
{
closed = 1;
nodes = (
(365,399,o),
(375,378,o),
(375,375,cs),
(375,338,o),
(216,210,o),
(210,214,c),
(217,209,o),
(275,399,o),
(338,399,cs)
);
}
);
width = 546;
},
{
layerId = "39185045-6A8C-415A-8312-7B8F11386A4C";
name = Regular;
shapes = (
{
closed = 1;
nodes = (
(73,-13,l),
(221,15,l),
(222,46,o),
(227,107,o),
(235,136,c),
(244,136,l),
(307,63,o),
(369,-11,o),
(439,-11,cs),
(508,-11,o),
(563,35,o),
(588,80,c),
(564,104,l),
(553,88,o),
(533,75,o),
(507,75,cs),
(461,75,o),
(411,148,o),
(363,206,c),
(434,248,o),
(535,329,o),
(535,422,cs),
(535,469,o),
(500,509,o),
(444,509,cs),
(329,509,o),
(267,374,o),
(230,251,c),
(222,251,l),
(222,516,l),
(73,470,l)
);
},
{
closed = 1;
nodes = (
(378,410,o),
(387,395,o),
(387,375,cs),
(387,326,o),
(301,230,o),
(244,181,c),
(259,251,o),
(317,410,o),
(362,410,cs)
);
}
);
width = 594;
}
);
unicode = 312;
},
{
color = 6;
glyphname = l;
kernLeft = h;
kernRight = l;
lastChange = "2023-01-27 11:07:39 +0000";
layers = (
{
anchors = (
{
name = bottom;
pos = (145,0);
},
{
name = top;
pos = (145,902);
},
{
name = topright;
pos = (276,537);
}
);
layerId = "E777F328-EA17-4AE7-9EBA-8002E537BA4F";
name = Light;
shapes = (
{
closed = 1;
nodes = (
(95,888,l),
(95,95,ls),
(95,23,o),
(124,-4,o),
(173,-4,cs),
(208,-4,o),
(254,29,o),
(275,73,c),
(259,87,l),
(250,70,o),
(227,46,o),
(205,46,cs),
(179,46,o),
(173,70,o),
(173,80,cs),
(173,924,l)
);
}
);
width = 293;
},
{
anchors = (
{
name = bottom;
pos = (165,0);
},
{
name = top;
pos = (165,902);
},
{
name = topright;
pos = (315,537);
}
);
layerId = "39185045-6A8C-415A-8312-7B8F11386A4C";
name = Regular;
shapes = (
{
closed = 1;
nodes = (
(78,878,l),
(78,100,ls),
(78,39,o),
(107,-9,o),
(188,-9,cs),
(253,-9,o),
(298,36,o),
(320,77,c),
(300,99,l),
(290,85,o),
(269,68,o),
(250,68,cs),
(234,68,o),
(226,83,o),
(226,101,cs),
(226,925,l)
);
}
);
width = 329;
}
);
unicode = 108;
},
{
color = 6;
glyphname = lslash;
kernLeft = lslash;
kernRight = lslash;
lastChange = "2023-01-27 11:07:39 +0000";
layers = (
{
layerId = "E777F328-EA17-4AE7-9EBA-8002E537BA4F";
name = Light;
shapes = (
{
closed = 1;
nodes = (
(1,419,l),
(1,351,l),
(296,479,l),
(296,548,l)
);
},
{
ref = l;
}
);
width = 293;
},
{
layerId = "39185045-6A8C-415A-8312-7B8F11386A4C";
name = Regular;
shapes = (
{
closed = 1;
nodes = (
(-2,418,l),
(-2,343,l),
(316,477,l),
(316,554,l)
);
},
{
ref = l;
}
);
width = 329;
}
);
unicode = 322;
},
{
color = 6;
glyphname = m;
kernLeft = n;
kernRight = n;
lastChange = "2023-01-27 11:07:39 +0000";
layers = (
{
background = {
shapes = (
{
closed = 1;
nodes = (
(1255,1085,o),
(1051,914,o),
(975,608,c),
(967,608,l),
(967,880,ls),
(967,1014,o),
(947,1085,o),
(840,1085,cs),
(758,1085,o),
(554,914,o),
(480,608,c),
(471,608,l),
(471,864,ls),
(471,974,o),
(431,1085,o),
(268,1085,c),
(268,1085,o),
(103,1085,o),
(19,908,c),
(57,866,l),
(92,919,o),
(131,941,o),
(163,941,cs),
(196,941,o),
(221,915,o),
(221,869,cs),
(221,-57,l),
(471,32,l),
(465,372,o),
(608,770,o),
(608,770,c),
(635,824,o),
(658,842,o),
(678,842,cs),
(699,842,o),
(714,815,o),
(714,783,cs),
(714,-57,l),
(967,32,l),
(974,401,o),
(1106,770,o),
(1106,770,c),
(1134,824,o),
(1157,842,o),
(1175,842,cs),
(1196,842,o),
(1211,815,o),
(1211,783,cs),
(1211,207,ls),
(1211,96,o),
(1252,-17,o),
(1416,-17,c),
(1416,-17,o),
(1580,-17,o),
(1663,161,c),
(1625,203,l),
(1590,151,o),
(1551,128,o),
(1520,128,cs),
(1487,128,o),
(1463,154,o),
(1463,200,cs),
(1463,880,ls),
(1463,1014,o),
(1441,1085,o),
(1337,1085,cs)
);
}
);
};
layerId = "E777F328-EA17-4AE7-9EBA-8002E537BA4F";
name = Light;
shapes = (
{
closed = 1;
nodes = (
(523,509,o),
(461,409,o),
(428,259,c),
(423,259,l),
(423,428,ls),
(423,494,o),
(398,509,o),
(364,509,cs),
(311,509,o),
(249,409,o),
(214,259,c),
(212,259,l),
(212,446,ls),
(212,476,o),
(203,509,o),
(135,509,c),
(180,509,o),
(86,536,o),
(35,424,c),
(50,409,l),
(69,442,o),
(87,454,o),
(102,454,cs),
(120,454,o),
(132,438,o),
(132,417,cs),
(132,-14,l),
(207,11,l),
(207,255,o),
(288,397,o),
(324,397,cs),
(333,397,o),
(341,388,o),
(341,374,cs),
(341,-14,l),
(421,11,l),
(421,255,o),
(494,397,o),
(536,397,cs),
(545,397,o),
(554,388,o),
(554,374,cs),
(554,95,ls),
(554,42,o),
(569,-4,o),
(632,-4,c),
(585,-4,o),
(680,-36,o),
(730,73,c),
(716,87,l),
(696,59,o),
(676,46,o),
(662,46,cs),
(644,46,o),
(635,62,o),
(635,80,cs),
(635,428,ls),
(635,494,o),
(608,509,o),
(577,509,cs)
);
}
);
width = 763;
},
{
layerId = "39185045-6A8C-415A-8312-7B8F11386A4C";
name = Regular;
shapes = (
{
closed = 1;
nodes = (
(603,509,o),
(542,441,o),
(509,304,c),
(502,304,l),
(502,401,ls),
(502,462,o),
(490,509,o),
(421,509,cs),
(355,509,o),
(293,441,o),
(260,304,c),
(255,304,l),
(255,374,l),
(255,444,o),
(230,509,o),
(148,509,cs),
(113,509,o),
(50,487,o),
(17,424,c),
(39,401,l),
(51,420,o),
(71,433,o),
(86,433,cs),
(99,433,o),
(111,423,o),
(111,399,cs),
(111,-13,l),
(257,15,l),
(257,248,o),
(306,392,o),
(342,392,cs),
(353,392,o),
(356,375,o),
(356,364,cs),
(356,-13,l),
(506,15,l),
(506,248,o),
(554,392,o),
(590,392,cs),
(602,392,o),
(605,375,o),
(605,364,cs),
(605,100,ls),
(605,46,o),
(629,-9,o),
(716,-9,cs),
(752,-9,o),
(814,13,o),
(847,77,c),
(825,99,l),
(813,80,o),
(793,68,o),
(778,68,cs),
(764,68,o),
(753,80,o),
(753,101,cs),
(753,401,ls),
(753,462,o),
(736,509,o),
(669,509,cs)
);
}
);
width = 859;
}
);
unicode = 109;
},
{
color = 6;
glyphname = n;
kernLeft = n;
kernRight = n;
lastChange = "2023-01-27 11:07:39 +0000";
layers = (
{
anchors = (
{
name = bottom;
pos = (303,0);
},
{
name = top;
pos = (316,537);
},
{
name = topleft;
pos = (131,537);
}
);
layerId = "E777F328-EA17-4AE7-9EBA-8002E537BA4F";
name = Light;
shapes = (
{
closed = 1;
nodes = (
(294,509,o),
(227,245,o),
(197,154,c),
(194,154,l),
(194,446,ls),
(194,483,o),
(170,509,o),
(116,509,cs),
(81,509,o),
(34,475,o),
(18,424,c),
(32,409,l),
(43,427,o),
(62,454,o),
(85,454,cs),
(107,454,o),
(115,431,o),
(115,417,cs),
(115,-14,l),
(190,11,l),
(190,47,o),
(295,397,o),
(392,397,cs),
(412,397,o),
(411,373,o),
(411,361,cs),
(411,95,ls),
(411,23,o),
(442,-4,o),
(490,-4,cs),
(520,-4,o),
(566,30,o),
(585,73,c),
(572,87,l),
(560,70,o),
(544,46,o),
(518,46,cs),
(498,46,o),
(490,70,o),
(490,80,cs),
(490,366,ls),
(490,427,o),
(500,509,o),
(430,509,cs)
);
}
);
width = 603;
},
{
anchors = (
{
name = bottom;
pos = (317,0);
},
{
name = top;
pos = (329,537);
},
{
name = topleft;
pos = (147,537);
}
);
layerId = "39185045-6A8C-415A-8312-7B8F11386A4C";
name = Regular;
shapes = (
{
closed = 1;
nodes = (
(350,509,o),
(278,379,o),
(254,253,c),
(248,253,l),
(248,375,l),
(248,456,o),
(219,509,o),
(140,509,cs),
(77,509,o),
(32,465,o),
(11,424,c),
(32,401,l),
(41,415,o),
(62,433,o),
(79,433,cs),
(95,433,o),
(104,420,o),
(104,399,cs),
(104,-13,l),
(251,15,l),
(251,145,o),
(312,392,o),
(368,392,cs),
(382,392,o),
(383,369,o),
(383,359,cs),
(383,100,ls),
(383,39,o),
(415,-9,o),
(492,-9,cs),
(558,-9,o),
(601,34,o),
(625,77,c),
(604,99,l),
(593,85,o),
(575,68,o),
(555,68,cs),
(542,68,o),
(531,83,o),
(531,101,cs),
(531,372,ls),
(531,433,o),
(524,509,o),
(446,509,cs)
);
}
);
width = 631;
}
);
unicode = 110;
},
{
color = 6;
glyphname = eng;
kernLeft = n;
kernRight = j;
lastChange = "2023-01-27 11:07:39 +0000";
layers = (
{
layerId = "E777F328-EA17-4AE7-9EBA-8002E537BA4F";
name = Light;
shapes = (
{
closed = 1;
nodes = (
(294,509,o),
(219,242,o),
(194,141,c),
(194,141,l),
(194,446,l),
(194,483,o),
(170,509,o),
(115,509,cs),
(78,509,o),
(34,475,o),
(18,424,c),
(32,409,l),
(43,427,o),
(62,454,o),
(85,454,cs),
(107,454,o),
(115,431,o),
(115,417,cs),
(115,-14,l),
(190,11,l),
(190,21,o),
(295,397,o),
(391,397,cs),
(410,397,o),
(411,372,o),
(411,361,cs),
(411,94,ls),
(411,-101,o),
(418,-215,o),
(294,-215,cs),
(266,-215,o),
(230,-209,o),
(199,-181,c),
(131,-268,l),
(158,-288,o),
(185,-294,o),
(212,-294,cs),
(371,-294,o),
(489,-106,o),
(489,54,c),
(489,359,ls),
(489,419,o),
(492,509,o),
(424,509,c)
);
}
);
width = 582;
},
{
layerId = "39185045-6A8C-415A-8312-7B8F11386A4C";
name = Regular;
shapes = (
{
closed = 1;
nodes = (
(350,509,o),
(284,382,o),
(253,262,c),
(248,262,l),
(248,375,l),
(248,456,o),
(219,509,o),
(140,509,cs),
(77,509,o),
(32,465,o),
(11,424,c),
(32,401,l),
(41,415,o),
(62,433,o),
(79,433,cs),
(95,433,o),
(104,420,o),
(104,399,cs),
(104,-13,l),
(251,15,l),
(251,164,o),
(311,392,o),
(367,392,cs),
(381,392,o),
(383,370,o),
(383,359,cs),
(383,5,l),
(383,-127,o),
(375,-205,o),
(286,-205,cs),
(260,-205,o),
(229,-196,o),
(187,-164,c),
(110,-261,l),
(140,-284,o),
(173,-291,o),
(204,-291,cs),
(371,-291,o),
(531,-112,o),
(531,55,c),
(531,376,ls),
(531,435,o),
(525,509,o),
(445,509,cs)
);
}
);
width = 615;
}
);
unicode = 331;
},
{
color = 6;
glyphname = o;
kernLeft = o;
kernRight = o;
lastChange = "2023-01-27 11:07:39 +0000";
layers = (
{
anchors = (
{
name = top;
pos = (284,537);
}
);
layerId = "E777F328-EA17-4AE7-9EBA-8002E537BA4F";
name = Light;
shapes = (
{
closed = 1;
nodes = (
(144,469,o),
(47,357,o),
(47,209,cs),
(47,83,o),
(142,-14,o),
(262,-14,cs),
(419,-14,o),
(500,131,o),
(500,266,cs),
(500,368,o),
(446,465,o),
(354,496,c),
(314,466,o),
(280,441,o),
(250,413,c),
(350,403,o),
(455,290,o),
(455,195,cs),
(455,113,o),
(393,45,o),
(300,45,cs),
(182,45,o),
(126,158,o),
(126,242,cs),
(126,358,o),
(204,432,o),
(295,488,c),
(277,508,l)
);
}
);
width = 546;
},
{
anchors = (
{
name = top;
pos = (291,537);
}
);
layerId = "39185045-6A8C-415A-8312-7B8F11386A4C";
name = Regular;
shapes = (
{
closed = 1;
nodes = (
(139,469,o),
(32,356,o),
(32,211,cs),
(32,83,o),
(140,-14,o),
(273,-14,cs),
(434,-14,o),
(535,131,o),
(535,266,cs),
(535,366,o),
(474,465,o),
(370,500,c),
(336,477,o),
(293,446,o),
(261,408,c),
(357,400,o),
(419,288,o),
(419,195,cs),
(419,117,o),
(379,51,o),
(309,51,cs),
(224,51,o),
(182,160,o),
(182,242,cs),
(182,357,o),
(234,432,o),
(303,488,c),
(283,513,l)
);
}
);
width = 567;
}
);
unicode = 111;
},
{
color = 6;
glyphname = p;
kernLeft = p;
kernRight = o;
lastChange = "2023-01-27 11:07:39 +0000";
layers = (
{
layerId = "E777F328-EA17-4AE7-9EBA-8002E537BA4F";
name = Light;
shapes = (
{
closed = 1;
nodes = (
(282,504,o),
(230,457,o),
(199,392,c),
(195,392,l),
(195,472,o),
(173,504,o),
(115,504,cs),
(77,504,o),
(32,467,o),
(18,424,c),
(32,410,l),
(58,442,o),
(72,454,o),
(85,454,cs),
(103,454,o),
(115,437,o),
(115,414,cs),
(115,-329,l),
(190,-293,l),
(190,212,ls),
(190,352,o),
(230,428,o),
(303,428,cs),
(396,428,o),
(467,349,o),
(467,249,cs),
(467,135,o),
(428,50,o),
(374,50,cs),
(347,50,o),
(325,52,o),
(307,57,c),
(284,8,l),
(311,-5,o),
(325,-10,o),
(339,-10,cs),
(458,-10,o),
(530,98,o),
(530,274,cs),
(530,401,o),
(441,504,o),
(332,504,cs)
);
}
);
width = 579;
},
{
layerId = "39185045-6A8C-415A-8312-7B8F11386A4C";
name = Regular;
shapes = (
{
closed = 1;
nodes = (
(329,510,o),
(277,468,o),
(252,397,c),
(247,397,l),
(246,473,o),
(209,510,o),
(141,510,cs),
(89,510,o),
(38,476,o),
(11,423,c),
(32,401,l),
(47,420,o),
(66,433,o),
(79,433,cs),
(95,433,o),
(104,419,o),
(104,396,cs),
(104,-311,l),
(251,-266,l),
(251,224,ls),
(251,354,o),
(282,433,o),
(335,433,cs),
(394,433,o),
(433,362,o),
(433,249,cs),
(433,130,o),
(392,53,o),
(324,53,cs),
(284,53,o),
(252,72,o),
(227,116,c),
(190,19,l),
(221,0,o),
(261,-11,o),
(308,-11,cs),
(465,-11,o),
(569,107,o),
(569,289,cs),
(569,415,o),
(492,510,o),
(391,510,cs)
);
}
);
width = 607;
}
);
unicode = 112;
},
{
color = 6;
glyphname = thorn;
kernLeft = h;
kernRight = o;
lastChange = "2023-01-27 11:07:39 +0000";
layers = (
{
layerId = "E777F328-EA17-4AE7-9EBA-8002E537BA4F";
name = Light;
shapes = (
{
closed = 1;
nodes = (
(245,504,o),
(188,450,o),
(170,392,c),
(165,392,l),
(165,801,l),
(165,865,o),
(141,895,o),
(86,895,cs),
(56,895,o),
(6,860,o),
(-9,816,c),
(5,797,l),
(14,819,o),
(33,842,o),
(57,842,cs),
(80,842,o),
(86,822,o),
(86,807,cs),
(86,-329,l),
(165,-293,l),
(165,212,ls),
(165,273,o),
(167,428,o),
(279,428,c),
(360,428,o),
(442,355,o),
(442,249,cs),
(442,131,o),
(402,50,o),
(343,50,cs),
(311,50,o),
(285,55,o),
(266,62,c),
(265,-2,l),
(293,-6,o),
(302,-10,o),
(313,-10,cs),
(429,-10,o),
(505,94,o),
(505,274,cs),
(505,403,o),
(415,504,o),
(308,504,c)
);
}
);
width = 554;
},
{
layerId = "39185045-6A8C-415A-8312-7B8F11386A4C";
name = Regular;
shapes = (
{
closed = 1;
nodes = (
(294,510,o),
(243,462,o),
(223,397,c),
(219,397,l),
(219,806,ls),
(219,863,o),
(192,914,o),
(111,914,cs),
(46,914,o),
(0,868,o),
(-21,826,c),
(0,803,l),
(11,819,o),
(29,834,o),
(48,834,cs),
(64,834,o),
(72,822,o),
(72,801,cs),
(72,-311,l),
(220,-266,l),
(220,224,ls),
(220,291,o),
(227,433,o),
(305,433,cs),
(365,433,o),
(401,344,o),
(401,249,cs),
(401,140,o),
(365,53,o),
(308,53,cs),
(281,53,o),
(256,66,o),
(239,99,c),
(137,47,l),
(170,5,o),
(224,-11,o),
(276,-11,cs),
(446,-11,o),
(538,120,o),
(538,289,cs),
(538,410,o),
(465,510,o),
(360,510,c)
);
}
);
width = 576;
}
);
metricRight = "=p";
unicode = 254;
},
{
color = 6;
glyphname = q;
kernLeft = o;
kernRight = q;
lastChange = "2023-01-27 11:07:39 +0000";
layers = (
{
layerId = "E777F328-EA17-4AE7-9EBA-8002E537BA4F";
name = Light;
shapes = (
{
closed = 1;
nodes = (
(163,511,o),
(50,370,o),
(50,188,cs),
(50,66,o),
(119,-12,o),
(230,-12,cs),
(302,-12,o),
(362,38,o),
(387,118,c),
(388,118,l),
(385,108,o),
(385,103,o),
(385,23,c),
(385,-197,ls),
(385,-266,o),
(409,-296,o),
(460,-296,cs),
(497,-296,o),
(544,-260,o),
(558,-216,c),
(545,-202,l),
(536,-223,o),
(511,-240,o),
(491,-240,cs),
(473,-240,o),
(461,-226,o),
(461,-207,cs),
(461,350,l),
(385,315,l),
(385,269,l),
(385,145,o),
(329,59,o),
(247,59,cs),
(173,59,o),
(116,138,o),
(116,238,cs),
(116,356,o),
(194,454,o),
(288,454,cs),
(323,454,o),
(364,425,o),
(400,377,c),
(462,415,l),
(434,473,o),
(371,511,o),
(307,511,cs)
);
}
);
width = 540;
},
{
layerId = "39185045-6A8C-415A-8312-7B8F11386A4C";
name = Regular;
shapes = (
{
closed = 1;
nodes = (
(158,504,o),
(39,373,o),
(39,189,cs),
(39,71,o),
(107,-12,o),
(206,-12,cs),
(276,-12,o),
(331,32,o),
(357,108,c),
(362,108,l),
(357,78,o),
(355,54,o),
(355,8,cs),
(355,-183,ls),
(355,-253,o),
(394,-292,o),
(465,-292,cs),
(516,-292,o),
(567,-257,o),
(596,-205,c),
(574,-181,l),
(563,-198,o),
(543,-212,o),
(527,-212,cs),
(510,-212,o),
(501,-199,o),
(501,-178,cs),
(501,360,l),
(355,314,l),
(355,270,ls),
(355,147,o),
(318,64,o),
(262,64,cs),
(210,64,o),
(176,131,o),
(176,238,cs),
(176,352,o),
(229,438,o),
(296,438,cs),
(327,438,o),
(355,414,o),
(377,371,c),
(501,413,l),
(472,470,o),
(404,504,o),
(324,504,cs)
);
}
);
width = 570;
}
);
unicode = 113;
},
{
color = 6;
glyphname = r;
kernLeft = n;
kernRight = r;
lastChange = "2023-01-27 11:07:39 +0000";
layers = (
{
anchors = (
{
name = bottom;
pos = (219,0);
},
{
name = top;
pos = (240,537);
}
);
layerId = "E777F328-EA17-4AE7-9EBA-8002E537BA4F";
name = Light;
shapes = (
{
closed = 1;
nodes = (
(275,386,l),
(248,371,o),
(216,363,o),
(182,363,cs),
(159,363,o),
(149,364,o),
(124,374,c),
(58,230,l),
(23,246,l),
(91,387,l),
(77,399,o),
(59,417,o),
(53,434,c),
(128,518,l),
(145,483,o),
(180,421,o),
(230,421,cs),
(276,421,o),
(317,441,o),
(358,466,c),
(372,453,l),
(311,384,o),
(235,292,o),
(235,177,cs),
(235,119,o),
(265,62,o),
(331,62,cs),
(355,62,o),
(375,72,o),
(392,83,c),
(401,70,l),
(368,27,o),
(316,-8,o),
(258,-8,cs),
(184,-8,o),
(166,58,o),
(166,118,cs),
(166,203,o),
(217,320,o),
(278,383,c)
);
}
);
width = 435;
},
{
anchors = (
{
name = bottom;
pos = (232,0);
},
{
name = top;
pos = (269,537);
}
);
background = {
shapes = (
{
closed = 1;
nodes = (
(380,55,l),
(345,11,o),
(293,-11,o),
(248,-11,cs),
(185,-11,o),
(131,26,o),
(131,92,cs),
(131,149,o),
(163,218,o),
(197,257,c),
(181,253,o),
(164,251,o),
(147,251,cs),
(131,251,o),
(115,253,o),
(104,257,c),
(55,156,l),
(15,174,l),
(66,275,l),
(54,285,o),
(37,297,o),
(33,308,c),
(134,420,l),
(143,360,o),
(189,336,o),
(236,336,cs),
(271,336,o),
(309,349,o),
(334,368,c),
(355,347,l),
(289,303,o),
(243,203,o),
(243,132,cs),
(243,89,o),
(263,59,o),
(309,59,cs),
(322,59,o),
(340,64,o),
(361,76,c)
);
}
);
};
layerId = "39185045-6A8C-415A-8312-7B8F11386A4C";
name = Regular;
shapes = (
{
closed = 1;
nodes = (
(262,356,l),
(239,344,o),
(212,339,o),
(187,339,cs),
(166,339,o),
(149,341,o),
(131,348,c),
(67,212,l),
(21,233,l),
(87,368,l),
(73,381,o),
(52,397,o),
(47,412,c),
(158,536,l),
(171,473,o),
(222,431,o),
(279,431,cs),
(325,431,o),
(371,449,o),
(407,474,c),
(429,452,l),
(353,391,o),
(287,274,o),
(287,174,cs),
(287,117,o),
(314,71,o),
(376,71,cs),
(396,71,o),
(419,79,o),
(442,93,c),
(461,71,l),
(419,19,o),
(358,-12,o),
(299,-12,cs),
(220,-12,o),
(168,42,o),
(168,119,cs),
(168,194,o),
(214,293,o),
(265,352,c)
);
}
);
width = 464;
}
);
unicode = 114;
},
{
color = 6;
glyphname = s;
kernLeft = s;
kernRight = s;
lastChange = "2023-01-27 11:07:39 +0000";
layers = (
{
anchors = (
{
name = bottom;
pos = (190,0);
},
{
name = top;
pos = (195,537);
}
);
layerId = "E777F328-EA17-4AE7-9EBA-8002E537BA4F";
name = Light;
shapes = (
{
closed = 1;
nodes = (
(152,541,o),
(128,495,o),
(129,441,cs),
(129,418,o),
(133,393,o),
(140,369,c),
(59,257,l),
(90,237,l),
(161,342,l),
(195,297,o),
(312,226,o),
(312,154,cs),
(312,100,o),
(263,53,o),
(204,53,cs),
(155,53,o),
(115,104,o),
(95,125,c),
(31,40,l),
(55,4,o),
(118,-12,o),
(149,-12,cs),
(253,-12,o),
(328,71,o),
(328,176,cs),
(328,317,o),
(236,325,o),
(206,384,c),
(225,410,o),
(257,442,o),
(258,490,cs),
(259,526,o),
(240,541,o),
(194,541,cs)
);
},
{
closed = 1;
nodes = (
(209,503,o),
(216,493,o),
(216,482,cs),
(216,463,o),
(199,431,o),
(185,423,c),
(180,441,o),
(174,450,o),
(174,474,cs),
(174,489,o),
(174,503,o),
(194,503,cs)
);
}
);
width = 376;
},
{
anchors = (
{
name = bottom;
pos = (213,0);
},
{
name = top;
pos = (209,537);
}
);
background = {
shapes = (
{
closed = 1;
nodes = (
(97,416,o),
(64,370,o),
(64,319,cs),
(64,296,o),
(71,268,o),
(91,248,c),
(36,169,l),
(69,146,l),
(117,213,l),
(145,189,o),
(214,140,o),
(214,99,cs),
(214,64,o),
(193,49,o),
(167,49,cs),
(140,49,o),
(104,83,o),
(86,124,c),
(18,32,l),
(49,4,o),
(108,-9,o),
(161,-9,cs),
(249,-9,o),
(326,55,o),
(326,138,cs),
(326,222,o),
(262,269,o),
(192,315,c),
(205,335,o),
(222,358,o),
(222,379,cs),
(222,402,o),
(203,416,o),
(167,416,cs)
);
},
{
closed = 1;
nodes = (
(166,381,o),
(169,375,o),
(169,368,cs),
(169,360,o),
(166,351,o),
(156,338,c),
(146,346,o),
(141,358,o),
(141,364,cs),
(141,372,o),
(147,381,o),
(156,381,cs)
);
}
);
};
layerId = "39185045-6A8C-415A-8312-7B8F11386A4C";
name = Regular;
shapes = (
{
closed = 1;
nodes = (
(129,541,o),
(99,486,o),
(99,424,cs),
(99,397,o),
(107,365,o),
(126,338,c),
(51,233,l),
(90,206,l),
(156,301,l),
(191,264,o),
(291,198,o),
(291,138,cs),
(291,89,o),
(255,59,o),
(212,59,cs),
(173,59,o),
(128,106,o),
(106,149,c),
(26,41,l),
(60,5,o),
(132,-12,o),
(188,-12,cs),
(299,-12,o),
(390,71,o),
(390,178,cs),
(390,299,o),
(303,341,o),
(234,401,c),
(252,427,o),
(271,449,o),
(271,484,cs),
(271,518,o),
(248,541,o),
(201,541,cs)
);
},
{
closed = 1;
nodes = (
(213,498,o),
(219,490,o),
(219,480,cs),
(219,466,o),
(210,447,o),
(196,433,c),
(186,446,o),
(180,460,o),
(180,473,cs),
(180,485,o),
(185,498,o),
(200,498,cs)
);
}
);
width = 426;
}
);
unicode = 115;
},
{
color = 6;
glyphname = germandbls;
kernLeft = h;
kernRight = germandbls;
lastChange = "2023-01-27 11:07:39 +0000";
layers = (
{
layerId = "E777F328-EA17-4AE7-9EBA-8002E537BA4F";
name = Light;
shapes = (
{
closed = 1;
nodes = (
(91,936,o),
(91,627,o),
(91,471,c),
(69,471,l),
(49,427,l),
(91,427,l),
(91,-181,l),
(175,-137,l),
(175,754,ls),
(175,815,o),
(189,896,o),
(284,896,cs),
(344,896,o),
(393,843,o),
(393,793,cs),
(393,711,o),
(314,589,o),
(314,535,cs),
(314,268,o),
(561,257,o),
(561,143,cs),
(561,88,o),
(515,42,o),
(445,42,cs),
(410,42,o),
(364,81,o),
(343,108,c),
(260,30,l),
(294,-14,o),
(356,-22,o),
(376,-22,cs),
(480,-22,o),
(563,71,o),
(563,174,cs),
(563,357,o),
(329,366,o),
(329,531,cs),
(329,634,o),
(437,694,o),
(437,794,cs),
(437,886,o),
(384,936,o),
(314,936,cs)
);
}
);
width = 624;
},
{
layerId = "39185045-6A8C-415A-8312-7B8F11386A4C";
name = Regular;
shapes = (
{
closed = 1;
nodes = (
(97,931,o),
(97,661,o),
(97,483,c),
(50,483,l),
(15,405,l),
(97,405,l),
(97,-187,l),
(248,-131,l),
(248,747,ls),
(248,804,o),
(257,876,o),
(322,876,cs),
(368,876,o),
(399,831,o),
(399,787,cs),
(399,695,o),
(312,616,o),
(312,518,cs),
(312,290,o),
(557,233,o),
(557,138,cs),
(557,88,o),
(521,59,o),
(477,59,cs),
(428,59,o),
(384,115,o),
(368,152,c),
(286,41,l),
(321,6,o),
(392,-15,o),
(462,-15,cs),
(581,-15,o),
(668,64,o),
(668,175,cs),
(668,347,o),
(428,390,o),
(428,527,cs),
(428,628,o),
(534,689,o),
(534,788,cs),
(534,880,o),
(459,931,o),
(356,931,cs)
);
}
);
width = 689;
}
);
unicode = 223;
},
{
color = 6;
glyphname = t;
kernLeft = t;
kernRight = t;
lastChange = "2023-01-27 11:07:39 +0000";
layers = (
{
anchors = (
{
name = bottom;
pos = (176,0);
},
{
name = center;
pos = (176,269);
},
{
name = topright;
pos = (320,537);
}
);
layerId = "E777F328-EA17-4AE7-9EBA-8002E537BA4F";
name = Light;
shapes = (
{
closed = 1;
nodes = (
(105,731,l),
(105,500,l),
(59,500,l),
(28,437,l),
(105,437,l),
(105,95,ls),
(105,42,o),
(121,-4,o),
(188,-4,c),
(134,-4,o),
(240,-36,o),
(293,73,c),
(280,87,l),
(254,59,o),
(235,46,o),
(221,46,cs),
(200,46,o),
(186,62,o),
(186,80,cs),
(186,437,l),
(298,437,l),
(328,500,l),
(186,500,l),
(186,765,l)
);
}
);
width = 346;
},
{
anchors = (
{
name = bottom;
pos = (174,0);
},
{
name = center;
pos = (174,269);
},
{
name = topright;
pos = (353,537);
}
);
layerId = "39185045-6A8C-415A-8312-7B8F11386A4C";
name = Regular;
shapes = (
{
closed = 1;
nodes = (
(77,724,l),
(77,500,l),
(41,500,l),
(10,432,l),
(77,432,l),
(77,100,ls),
(77,46,o),
(101,-9,o),
(190,-9,cs),
(222,-9,o),
(289,13,o),
(323,77,c),
(302,99,l),
(286,80,o),
(267,68,o),
(252,68,cs),
(237,68,o),
(227,80,o),
(227,101,cs),
(227,432,l),
(321,432,l),
(351,500,l),
(227,500,l),
(227,770,l)
);
}
);
width = 345;
}
);
unicode = 116;
},
{
color = 6;
glyphname = tbar;
kernLeft = t;
kernRight = t;
lastChange = "2023-01-27 11:07:39 +0000";
layers = (
{
layerId = "E777F328-EA17-4AE7-9EBA-8002E537BA4F";
name = Light;
shapes = (
{
closed = 1;
nodes = (
(46,307,l),
(21,263,l),
(294,263,l),
(316,307,l)
);
},
{
ref = t;
}
);
width = 345;
},
{
layerId = "39185045-6A8C-415A-8312-7B8F11386A4C";
name = Regular;
shapes = (
{
closed = 1;
nodes = (
(36,311,l),
(7,258,l),
(320,258,l),
(347,311,l)
);
},
{
ref = t;
}
);
width = 344;
}
);
unicode = 359;
},
{
color = 6;
glyphname = u;
kernLeft = u;
kernRight = u;
lastChange = "2023-01-27 11:07:39 +0000";
layers = (
{
anchors = (
{
name = ogonek;
pos = (572,7);
},
{
name = top;
pos = (295,537);
}
);
background = {
shapes = (
{
closed = 1;
nodes = (
(798,1007,l),
(770,764,o),
(680,455,o),
(680,455,c),
(579,207,o),
(465,146,o),
(465,291,cs),
(465,860,ls),
(465,971,o),
(426,1083,o),
(262,1083,c),
(262,1083,o),
(96,1083,o),
(14,905,c),
(51,864,l),
(124,971,o),
(214,956,o),
(214,866,cs),
(214,268,ls),
(214,94,o),
(223,-28,o),
(375,-28,cs),
(643,-28,o),
(752,449,o),
(798,646,c),
(798,207,ls),
(798,96,o),
(840,-17,o),
(1004,-17,c),
(1004,-17,o),
(1168,-17,o),
(1252,161,c),
(1213,203,l),
(1141,96,o),
(1052,110,o),
(1052,200,cs),
(1052,1094,l)
);
}
);
};
layerId = "E777F328-EA17-4AE7-9EBA-8002E537BA4F";
name = Light;
shapes = (
{
closed = 1;
nodes = (
(386,468,l),
(386,471,o),
(315,71,o),
(211,71,cs),
(203,71,o),
(194,79,o),
(194,113,cs),
(194,410,ls),
(194,459,o),
(179,507,o),
(113,507,cs),
(164,507,o),
(67,536,o),
(20,428,c),
(31,413,l),
(53,443,o),
(71,455,o),
(86,455,cs),
(103,455,o),
(115,441,o),
(115,418,cs),
(115,135,ls),
(115,38,o),
(113,-12,o),
(177,-12,cs),
(320,-12,o),
(373,274,o),
(387,342,c),
(389,342,ls),
(398,342,l),
(392,48,o),
(402,-4,o),
(471,-4,c),
(423,-4,o),
(520,-33,o),
(571,77,c),
(557,91,l),
(536,63,o),
(519,50,o),
(506,50,cs),
(485,50,o),
(476,67,o),
(476,84,cs),
(476,515,l)
);
}
);
width = 586;
},
{
anchors = (
{
name = ogonek;
pos = (627,7);
},
{
name = top;
pos = (314,537);
}
);
layerId = "39185045-6A8C-415A-8312-7B8F11386A4C";
name = Regular;
shapes = (
{
closed = 1;
nodes = (
(372,473,l),
(372,347,o),
(324,119,o),
(264,119,cs),
(254,119,o),
(248,135,o),
(248,154,cs),
(248,400,ls),
(248,452,o),
(224,509,o),
(136,509,cs),
(104,509,o),
(39,485,o),
(7,420,c),
(27,398,l),
(42,417,o),
(61,429,o),
(76,429,cs),
(90,429,o),
(99,419,o),
(99,394,cs),
(99,119,ls),
(99,47,o),
(107,-12,o),
(186,-12,cs),
(284,-12,o),
(345,122,o),
(371,231,c),
(377,231,l),
(377,112,l),
(377,43,o),
(402,-9,o),
(485,-9,cs),
(518,-9,o),
(583,12,o),
(616,74,c),
(596,95,l),
(581,79,o),
(563,65,o),
(548,65,cs),
(533,65,o),
(524,77,o),
(524,99,cs),
(524,511,l)
);
}
);
width = 626;
}
);
unicode = 117;
},
{
color = 6;
glyphname = v;
kernLeft = v;
kernRight = v;
lastChange = "2023-01-27 11:07:39 +0000";
layers = (
{
layerId = "E777F328-EA17-4AE7-9EBA-8002E537BA4F";
name = Light;
shapes = (
{
closed = 1;
nodes = (
(344,436,l),
(392,415,o),
(425,379,o),
(425,325,cs),
(425,301,o),
(410,272,o),
(410,269,cs),
(315,75,l),
(170,394,l),
(160,416,o),
(137,500,o),
(107,500,cs),
(72,500,o),
(19,469,o),
(4,416,c),
(10,406,l),
(17,409,o),
(25,420,o),
(39,420,cs),
(66,420,o),
(86,384,o),
(93,371,cs),
(268,-10,ls),
(268,-11,o),
(279,-17,o),
(289,-17,cs),
(293,-17,o),
(305,-11,o),
(304,-14,c),
(480,334,ls),
(492,357,o),
(500,394,o),
(500,423,cs),
(500,474,o),
(470,518,o),
(417,533,c)
);
}
);
width = 513;
},
{
layerId = "39185045-6A8C-415A-8312-7B8F11386A4C";
name = Regular;
shapes = (
{
closed = 1;
nodes = (
(338,435,l),
(383,411,o),
(412,374,o),
(412,323,cs),
(412,305,o),
(405,279,o),
(390,248,cs),
(333,133,l),
(215,407,ls),
(199,445,o),
(170,499,o),
(120,499,cs),
(43,499,o),
(-8,438,o),
(-24,390,c),
(-1,374,l),
(6,385,o),
(20,398,o),
(32,398,cs),
(52,398,o),
(66,379,o),
(74,362,cs),
(236,4,ls),
(243,-14,o),
(262,-19,o),
(279,-19,cs),
(296,-19,o),
(313,-14,o),
(321,4,cs),
(485,330,ls),
(498,356,o),
(506,392,o),
(506,418,cs),
(506,469,o),
(475,513,o),
(415,539,c)
);
}
);
width = 522;
}
);
unicode = 118;
},
{
color = 6;
glyphname = w;
kernLeft = w;
kernRight = w;
lastChange = "2023-01-27 11:07:39 +0000";
layers = (
{
anchors = (
{
name = top;
pos = (383,537);
}
);
guides = (
{
pos = (370,1066);
}
);
layerId = "E777F328-EA17-4AE7-9EBA-8002E537BA4F";
name = Light;
shapes = (
{
closed = 1;
nodes = (
(534,436,l),
(578,415,o),
(605,376,o),
(605,325,cs),
(605,312,o),
(602,290,o),
(599,282,cs),
(537,130,l),
(430,509,l),
(347,477,l),
(476,17,ls),
(479,8,o),
(488,1,o),
(505,1,cs),
(519,1,o),
(527,9,o),
(529,17,cs),
(659,332,ls),
(669,357,o),
(675,394,o),
(675,419,cs),
(675,473,o),
(654,514,o),
(607,536,c)
);
},
{
closed = 1;
nodes = (
(86,500,o),
(48,466,o),
(19,416,c),
(28,401,l),
(39,411,o),
(53,420,o),
(71,420,cs),
(99,420,o),
(112,406,o),
(123,367,cs),
(236,14,l),
(238,7,o),
(242,-2,o),
(259,-2,cs),
(275,-2,o),
(278,5,o),
(284,20,cs),
(437,426,l),
(410,460,l),
(287,132,l),
(199,399,ls),
(182,449,o),
(172,500,o),
(135,500,cs)
);
}
);
width = 707;
},
{
anchors = (
{
name = top;
pos = (395,537);
}
);
layerId = "39185045-6A8C-415A-8312-7B8F11386A4C";
name = Regular;
shapes = (
{
closed = 1;
nodes = (
(568,435,l),
(610,411,o),
(637,374,o),
(637,323,cs),
(637,310,o),
(635,285,o),
(619,252,cs),
(574,153,l),
(473,514,l),
(330,465,l),
(468,21,ls),
(477,-7,o),
(497,-13,o),
(518,-13,cs),
(537,-13,o),
(555,-7,o),
(567,19,cs),
(710,330,ls),
(721,356,o),
(729,392,o),
(729,416,cs),
(729,468,o),
(702,511,o),
(645,540,c)
);
},
{
closed = 1;
nodes = (
(48,499,o),
(2,437,o),
(-19,390,c),
(5,373,l),
(14,386,o),
(30,398,o),
(44,398,cs),
(64,398,o),
(76,387,o),
(85,360,cs),
(196,20,ls),
(205,-8,o),
(225,-14,o),
(244,-14,cs),
(264,-14,o),
(282,-9,o),
(293,20,cs),
(431,362,l),
(401,417,l),
(300,154,l),
(226,409,ls),
(212,458,o),
(183,499,o),
(130,499,cs)
);
}
);
width = 753;
}
);
unicode = 119;
},
{
color = 6;
glyphname = x;
kernLeft = x;
kernRight = x;
lastChange = "2023-01-27 11:07:39 +0000";
layers = (
{
layerId = "E777F328-EA17-4AE7-9EBA-8002E537BA4F";
name = Light;
shapes = (
{
closed = 1;
nodes = (
(82,509,o),
(50,476,o),
(28,443,c),
(38,428,l),
(51,437,o),
(61,437,o),
(68,437,cs),
(168,437,o),
(347,-6,o),
(446,-6,cs),
(464,-6,o),
(497,27,o),
(520,62,c),
(509,77,l),
(493,70,o),
(488,68,o),
(481,68,cs),
(378,68,o),
(201,509,o),
(105,509,cs)
);
},
{
closed = 1;
nodes = (
(207,523,o),
(300,110,o),
(124,110,cs),
(108,110,o),
(82,125,o),
(78,131,c),
(27,23,l),
(50,-1,o),
(75,-6,o),
(93,-6,cs),
(321,-6,o),
(220,406,o),
(410,406,cs),
(432,406,o),
(455,396,o),
(465,387,c),
(510,490,l),
(491,516,o),
(464,523,o),
(441,523,cs)
);
}
);
width = 560;
},
{
layerId = "39185045-6A8C-415A-8312-7B8F11386A4C";
name = Regular;
shapes = (
{
closed = 1;
nodes = (
(105,509,o),
(47,458,o),
(18,417,c),
(38,394,l),
(50,404,o),
(67,414,o),
(84,414,cs),
(200,414,o),
(250,-10,o),
(410,-10,cs),
(473,-10,o),
(533,40,o),
(560,80,c),
(540,104,l),
(528,93,o),
(514,84,o),
(494,84,cs),
(379,84,o),
(329,509,o),
(170,509,cs)
);
},
{
closed = 1;
nodes = (
(260,513,o),
(305,103,o),
(142,103,cs),
(117,103,o),
(87,116,o),
(63,138,c),
(14,23,l),
(40,1,o),
(72,-10,o),
(112,-10,cs),
(317,-10,o),
(275,401,o),
(427,401,cs),
(450,401,o),
(478,384,o),
(500,366,c),
(553,484,l),
(527,502,o),
(498,513,o),
(461,513,cs)
);
}
);
width = 579;
}
);
unicode = 120;
},
{
color = 6;
glyphname = y;
kernLeft = y;
kernRight = y;
lastChange = "2023-01-27 11:07:39 +0000";
layers = (
{
anchors = (
{
name = top;
pos = (296,537);
}
);
background = {
shapes = (
{
closed = 1;
nodes = (
(802,1013,l),
(786,837,o),
(747,614,o),
(683,455,cs),
(662,403,o),
(579,214,o),
(508,214,cs),
(471,214,o),
(468,268,o),
(468,291,cs),
(468,858,ls),
(468,993,o),
(409,1080,o),
(266,1080,cs),
(156,1080,o),
(59,996,o),
(17,902,c),
(54,860,l),
(76,894,o),
(115,936,o),
(161,936,cs),
(200,936,o),
(218,896,o),
(218,864,cs),
(218,268,ls),
(218,140,o),
(209,-28,o),
(377,-28,cs),
(626,-28,o),
(758,455,o),
(802,646,c),
(802,91,ls),
(802,-54,o),
(797,-468,o),
(586,-468,cs),
(508,-468,o),
(428,-414,o),
(372,-370,c),
(218,-564,l),
(280,-608,o),
(349,-637,o),
(428,-637,cs),
(743,-637,o),
(1055,-285,o),
(1055,113,cs),
(1055,1100,l)
);
}
);
};
layerId = "E777F328-EA17-4AE7-9EBA-8002E537BA4F";
name = Light;
shapes = (
{
closed = 1;
nodes = (
(387,468,l),
(387,363,o),
(267,97,o),
(213,97,cs),
(199,97,o),
(192,110,o),
(192,135,cs),
(192,410,ls),
(192,474,o),
(167,508,o),
(117,508,c),
(62,508,o),
(45,491,o),
(17,428,c),
(32,413,l),
(50,441,o),
(68,456,o),
(86,456,cs),
(102,456,o),
(115,440,o),
(115,418,cs),
(115,135,ls),
(115,12,o),
(123,-12,o),
(177,-12,cs),
(266,-12,o),
(337,119,o),
(395,383,c),
(401,383,l),
(402,343,o),
(401,239,o),
(401,68,c),
(401,-99,o),
(350,-228,o),
(289,-228,cs),
(255,-228,o),
(212,-210,o),
(185,-181,c),
(117,-268,l),
(154,-295,o),
(185,-304,o),
(218,-304,cs),
(357,-304,o),
(476,-140,o),
(476,54,cs),
(476,515,l)
);
}
);
width = 561;
},
{
anchors = (
{
name = top;
pos = (311,537);
}
);
layerId = "39185045-6A8C-415A-8312-7B8F11386A4C";
name = Regular;
shapes = (
{
closed = 1;
nodes = (
(373,473,l),
(373,304,o),
(309,103,o),
(265,103,cs),
(255,103,o),
(248,115,o),
(248,137,cs),
(248,400,ls),
(248,469,o),
(207,509,o),
(138,509,cs),
(80,509,o),
(38,480,o),
(6,420,c),
(27,398,l),
(42,418,o),
(61,429,o),
(76,429,cs),
(90,429,o),
(99,418,o),
(99,394,cs),
(99,119,ls),
(99,22,o),
(123,-12,o),
(186,-12,cs),
(271,-12,o),
(335,75,o),
(374,246,c),
(381,246,l),
(376,203,o),
(374,125,o),
(374,24,cs),
(374,-133,o),
(341,-210,o),
(276,-210,cs),
(249,-210,o),
(212,-194,o),
(176,-164,c),
(98,-261,l),
(131,-284,o),
(163,-294,o),
(199,-294,cs),
(362,-294,o),
(524,-122,o),
(524,55,cs),
(524,511,l)
);
}
);
width = 593;
}
);
unicode = 121;
},
{
color = 6;
glyphname = z;
kernLeft = z;
kernRight = z;
lastChange = "2023-01-27 11:07:39 +0000";
layers = (
{
anchors = (
{
name = top;
pos = (296,537);
}
);
layerId = "E777F328-EA17-4AE7-9EBA-8002E537BA4F";
name = Light;
shapes = (
{
closed = 1;
nodes = (
(131,76,l),
(451,497,l),
(446,511,l),
(392,494,o),
(326,490,o),
(260,490,cs),
(213,490,o),
(174,502,o),
(113,500,c),
(32,401,l),
(32,401,o),
(86,411,o),
(96,411,cs),
(150,411,o),
(185,406,o),
(230,406,cs),
(286,406,o),
(322,414,o),
(343,425,c),
(348,418,l),
(34,6,l),
(44,-8,l),
(90,5,o),
(143,17,o),
(196,17,cs),
(245,17,o),
(318,-7,o),
(364,-7,cs),
(376,-7,o),
(385,-4,o),
(392,3,c),
(470,105,l),
(433,91,o),
(392,87,o),
(359,87,cs),
(328,87,o),
(284,93,o),
(254,93,cs),
(218,93,o),
(171,87,o),
(136,71,c)
);
}
);
width = 498;
},
{
anchors = (
{
name = top;
pos = (283,537);
}
);
layerId = "39185045-6A8C-415A-8312-7B8F11386A4C";
name = Regular;
shapes = (
{
closed = 1;
nodes = (
(168,125,l),
(463,481,l),
(447,515,l),
(385,496,o),
(320,491,o),
(260,491,cs),
(197,491,o),
(158,497,o),
(106,500,c),
(23,356,l),
(23,356,o),
(57,366,o),
(96,366,cs),
(140,366,o),
(168,361,o),
(206,361,cs),
(240,361,o),
(271,365,o),
(296,374,c),
(300,366,l),
(14,20,l),
(42,-12,l),
(90,4,o),
(138,13,o),
(185,13,cs),
(236,13,o),
(284,-7,o),
(338,-7,cs),
(356,-7,o),
(374,-5,o),
(396,1,c),
(480,155,l),
(443,138,o),
(408,132,o),
(365,132,cs),
(331,132,o),
(295,137,o),
(265,137,cs),
(239,137,o),
(203,131,o),
(173,119,c)
);
}
);
width = 490;
}
);
unicode = 122;
},
{
color = 6;
glyphname = f_f;
kernLeft = f;
kernRight = f;
lastChange = "2023-01-27 11:07:39 +0000";
layers = (
{
hints = (
{
horizontal = 1;
origin = (0,11);
target = (0,10);
type = Stem;
},
{
horizontal = 1;
origin = (1,11);
target = (0,5);
type = Stem;
},
{
origin = (0,13);
target = (0,14);
type = Stem;
},
{
origin = (0,17);
target = (0,18);
type = Stem;
}
);
layerId = "E777F328-EA17-4AE7-9EBA-8002E537BA4F";
name = Light;
shapes = (
{
closed = 1;
nodes = (
(472,719,o),
(426,689,o),
(398,643,c),
(355,691,o),
(300,719,o),
(257,719,cs),
(117,719,o),
(69,599,o),
(69,491,cs),
(69,384,l),
(41,384,l),
(21,336,l),
(69,336,l),
(69,-138,l),
(146,-103,l),
(146,336,l),
(366,336,l),
(366,-138,l),
(441,-103,l),
(441,336,l),
(568,336,l),
(590,384,l),
(441,384,l),
(441,597,l),
(441,637,o),
(452,689,o),
(508,689,cs),
(549,689,o),
(574,654,o),
(586,625,c),
(643,657,l),
(617,694,o),
(572,719,o),
(538,719,c)
);
},
{
closed = 1;
nodes = (
(310,689,o),
(351,630,o),
(374,564,c),
(368,540,o),
(366,515,o),
(366,491,cs),
(366,384,l),
(146,384,l),
(146,577,ls),
(146,626,o),
(157,689,o),
(237,689,cs)
);
}
);
width = 569;
},
{
hints = (
{
horizontal = 1;
origin = (0,11);
target = (0,10);
type = Stem;
},
{
horizontal = 1;
origin = (1,11);
target = (0,5);
type = Stem;
},
{
origin = (0,13);
target = (0,14);
type = Stem;
},
{
origin = (0,17);
target = (0,18);
type = Stem;
}
);
layerId = "39185045-6A8C-415A-8312-7B8F11386A4C";
name = Regular;
shapes = (
{
closed = 1;
nodes = (
(491,715,o),
(447,696,o),
(416,665,c),
(375,698,o),
(322,715,o),
(267,715,cs),
(119,715,o),
(68,595,o),
(68,486,cs),
(68,384,l),
(36,384,l),
(13,330,l),
(68,330,l),
(68,-145,l),
(212,-96,l),
(212,330,l),
(349,330,l),
(349,-145,l),
(494,-96,l),
(494,330,l),
(561,330,l),
(584,384,l),
(494,384,l),
(494,582,ls),
(494,614,o),
(498,661,o),
(530,661,cs),
(551,661,o),
(566,630,o),
(575,570,c),
(694,634,l),
(666,689,o),
(609,715,o),
(551,715,cs)
);
},
{
closed = 1;
nodes = (
(302,661,o),
(338,620,o),
(354,543,c),
(351,523,o),
(349,504,o),
(349,486,cs),
(349,384,l),
(212,384,l),
(212,582,ls),
(212,614,o),
(222,661,o),
(263,661,cs)
);
}
);
width = 564;
}
);
unicode = 64256;
},
{
color = 6;
glyphname = f_f_i;
lastChange = "2023-01-27 11:07:39 +0000";
layers = (
{
hints = (
{
origin = (0,34);
target = (0,35);
type = Stem;
},
{
origin = (0,38);
target = (0,39);
type = Stem;
},
{
origin = (0,42);
target = (0,6);
type = Stem;
},
{
horizontal = 1;
origin = (0,36);
target = (1,0);
type = Stem;
},
{
horizontal = 1;
origin = (1,4);
target = (0,13);
type = Stem;
},
{
horizontal = 1;
origin = (0,26);
target = (0,20);
type = Stem;
},
{
horizontal = 1;
origin = (1,4);
target = (0,26);
type = Stem;
},
{
horizontal = 1;
origin = (0,45);
target = (0,3);
type = Stem;
}
);
layerId = "E777F328-EA17-4AE7-9EBA-8002E537BA4F";
name = Light;
shapes = (
{
closed = 1;
nodes = (
(774,69,l),
(760,49,o),
(747,41,o),
(737,41,cs),
(723,41,o),
(715,51,o),
(715,68,cs),
(715,411,l),
(639,384,l),
(437,384,l),
(437,577,ls),
(437,626,o),
(446,687,o),
(523,687,cs),
(577,687,o),
(609,641,o),
(625,595,c),
(697,621,l),
(658,680,o),
(591,719,o),
(542,719,cs),
(469,719,o),
(423,686,o),
(394,637,c),
(351,694,o),
(303,719,o),
(257,719,cs),
(120,719,o),
(75,599,o),
(75,491,cs),
(75,384,l),
(48,384,l),
(26,336,l),
(75,336,l),
(75,-138,l),
(150,-103,l),
(150,336,l),
(361,336,l),
(361,-138,l),
(437,-103,l),
(437,336,l),
(639,336,l),
(639,74,ls),
(639,17,o),
(671,-4,o),
(699,-4,cs),
(725,-4,o),
(762,11,o),
(786,57,c)
);
},
{
closed = 1;
nodes = (
(150,384,l),
(150,577,ls),
(150,626,o),
(160,687,o),
(237,687,cs),
(309,687,o),
(346,628,o),
(368,563,c),
(363,538,o),
(361,513,o),
(361,491,cs),
(361,384,l)
);
}
);
width = 798;
},
{
hints = (
{
origin = (0,34);
target = (0,35);
type = Stem;
},
{
origin = (0,38);
target = (0,39);
type = Stem;
},
{
origin = (0,42);
target = (0,6);
type = Stem;
},
{
horizontal = 1;
origin = (0,32);
target = (0,31);
type = Stem;
},
{
horizontal = 1;
origin = (1,4);
target = (0,26);
type = Stem;
},
{
horizontal = 1;
origin = (0,45);
target = (0,3);
type = Stem;
}
);
layerId = "39185045-6A8C-415A-8312-7B8F11386A4C";
name = Regular;
shapes = (
{
closed = 1;
nodes = (
(811,81,l),
(804,71,o),
(789,62,o),
(777,62,cs),
(769,62,o),
(760,69,o),
(760,86,cs),
(760,419,l),
(617,384,l),
(494,384,l),
(494,582,ls),
(494,614,o),
(504,661,o),
(545,661,cs),
(575,661,o),
(605,619,o),
(619,540,c),
(758,590,l),
(719,673,o),
(635,715,o),
(549,715,cs),
(491,715,o),
(446,697,o),
(415,666,c),
(374,698,o),
(322,715,o),
(267,715,cs),
(119,715,o),
(68,595,o),
(68,486,cs),
(68,384,l),
(36,384,l),
(13,330,l),
(68,330,l),
(68,-145,l),
(212,-96,l),
(212,330,l),
(349,330,l),
(349,-145,l),
(494,-96,l),
(494,330,l),
(617,330,l),
(617,79,ls),
(617,37,o),
(639,-9,o),
(716,-9,cs),
(778,-9,o),
(814,31,o),
(832,60,c)
);
},
{
closed = 1;
nodes = (
(212,384,l),
(212,582,ls),
(212,614,o),
(222,661,o),
(263,661,cs),
(302,661,o),
(338,620,o),
(354,543,c),
(352,525,o),
(350,508,o),
(349,487,c),
(349,384,l)
);
}
);
width = 833;
}
);
},
{
color = 6;
glyphname = f_f_l;
lastChange = "2023-01-27 11:07:39 +0000";
layers = (
{
hints = (
{
horizontal = 1;
origin = (0,27);
target = (0,34);
type = Stem;
},
{
horizontal = 1;
origin = (0,5);
target = (0,4);
type = Stem;
},
{
horizontal = 1;
origin = (1,11);
target = (0,48);
type = Stem;
},
{
origin = (0,7);
target = (0,8);
type = Stem;
},
{
origin = (0,11);
target = (0,12);
type = Stem;
},
{
origin = (0,24);
target = (0,37);
type = Stem;
}
);
layerId = "E777F328-EA17-4AE7-9EBA-8002E537BA4F";
name = Light;
shapes = (
{
closed = 1;
nodes = (
(120,719,o),
(75,599,o),
(75,491,cs),
(75,384,l),
(48,384,l),
(26,336,l),
(75,336,l),
(75,-138,l),
(150,-103,l),
(150,336,l),
(361,336,l),
(361,-138,l),
(437,-103,l),
(437,336,l),
(558,336,l),
(580,384,l),
(437,384,l),
(437,577,ls),
(437,626,o),
(446,687,o),
(523,687,cs),
(585,687,o),
(623,637,o),
(641,581,c),
(641,74,ls),
(641,21,o),
(661,-4,o),
(707,-4,cs),
(740,-4,o),
(774,23,o),
(788,57,c),
(777,69,l),
(769,59,o),
(752,41,o),
(738,41,cs),
(720,41,o),
(717,57,o),
(717,68,cs),
(717,711,l),
(640,681,l),
(608,706,o),
(572,719,o),
(542,719,cs),
(469,719,o),
(423,686,o),
(394,637,c),
(351,694,o),
(303,719,o),
(257,719,cs)
);
},
{
closed = 1;
nodes = (
(309,687,o),
(346,628,o),
(368,563,c),
(363,538,o),
(361,513,o),
(361,487,cs),
(361,384,l),
(150,384,l),
(150,577,ls),
(150,626,o),
(160,687,o),
(237,687,cs)
);
}
);
width = 802;
},
{
hints = (
{
horizontal = 1;
origin = (0,27);
target = up;
type = BottomGhost;
},
{
horizontal = 1;
origin = (0,5);
target = (0,4);
type = Stem;
},
{
horizontal = 1;
origin = (1,11);
target = (0,48);
type = Stem;
},
{
horizontal = 1;
origin = (0,27);
target = (0,34);
type = Stem;
},
{
origin = (0,7);
target = (0,8);
type = Stem;
},
{
origin = (0,11);
target = (0,12);
type = Stem;
},
{
origin = (0,24);
target = (0,37);
type = Stem;
}
);
layerId = "39185045-6A8C-415A-8312-7B8F11386A4C";
name = Regular;
shapes = (
{
closed = 1;
nodes = (
(119,715,o),
(68,595,o),
(68,486,cs),
(68,384,l),
(36,384,l),
(13,330,l),
(68,330,l),
(68,-145,l),
(212,-96,l),
(212,330,l),
(349,330,l),
(349,-145,l),
(494,-96,l),
(494,330,l),
(561,330,l),
(584,384,l),
(494,384,l),
(494,582,ls),
(494,614,o),
(504,661,o),
(545,661,cs),
(575,661,o),
(605,634,o),
(619,582,c),
(619,79,ls),
(619,37,o),
(640,-9,o),
(717,-9,cs),
(779,-9,o),
(815,31,o),
(833,60,c),
(814,81,l),
(806,71,o),
(791,62,o),
(778,62,cs),
(770,62,o),
(762,69,o),
(762,86,cs),
(762,712,l),
(670,686,l),
(633,705,o),
(591,715,o),
(549,715,cs),
(491,715,o),
(446,697,o),
(415,666,c),
(374,698,o),
(322,715,o),
(267,715,cs)
);
},
{
closed = 1;
nodes = (
(302,661,o),
(338,620,o),
(354,543,c),
(351,525,o),
(349,508,o),
(349,491,c),
(349,384,l),
(212,384,l),
(212,582,ls),
(212,614,o),
(222,661,o),
(263,661,cs)
);
}
);
width = 833;
}
);
},
{
color = 6;
glyphname = fi;
kernLeft = f;
kernRight = i;
lastChange = "2023-01-27 11:07:39 +0000";
layers = (
{
hints = (
{
horizontal = 1;
origin = (0,35);
target = (0,3);
type = Stem;
},
{
horizontal = 1;
origin = (0,26);
target = (0,25);
type = Stem;
},
{
horizontal = 1;
origin = (0,13);
target = (0,20);
type = Stem;
},
{
horizontal = 1;
origin = (0,35);
target = up;
type = BottomGhost;
},
{
origin = (0,28);
target = (0,29);
type = Stem;
},
{
origin = (0,32);
target = (0,6);
type = Stem;
}
);
layerId = "E777F328-EA17-4AE7-9EBA-8002E537BA4F";
name = Light;
shapes = (
{
closed = 1;
nodes = (
(489,69,l),
(475,49,o),
(462,40,o),
(452,40,cs),
(437,40,o),
(428,51,o),
(428,68,cs),
(428,411,l),
(353,384,l),
(150,384,l),
(150,577,ls),
(150,626,o),
(160,689,o),
(237,689,cs),
(292,689,o),
(325,641,o),
(340,595,c),
(411,621,l),
(374,680,o),
(306,719,o),
(257,719,cs),
(121,719,o),
(75,599,o),
(75,491,cs),
(75,384,l),
(48,384,l),
(26,336,l),
(75,336,l),
(75,-138,l),
(150,-103,l),
(150,336,l),
(353,336,l),
(353,74,ls),
(353,15,o),
(389,-4,o),
(416,-4,cs),
(439,-4,o),
(477,11,o),
(501,57,c)
);
}
);
width = 515;
},
{
hints = (
{
origin = (0,28);
target = (0,29);
type = Stem;
},
{
origin = (0,32);
target = (0,6);
type = Stem;
},
{
horizontal = 1;
origin = (0,26);
target = (0,25);
type = Stem;
},
{
horizontal = 1;
origin = (0,13);
target = (0,20);
type = Stem;
},
{
horizontal = 1;
origin = (0,35);
target = (0,3);
type = Stem;
}
);
layerId = "39185045-6A8C-415A-8312-7B8F11386A4C";
name = Regular;
shapes = (
{
closed = 1;
nodes = (
(528,81,l),
(522,71,o),
(508,62,o),
(494,62,cs),
(486,62,o),
(478,69,o),
(478,86,cs),
(478,419,l),
(335,384,l),
(212,384,l),
(212,582,ls),
(212,614,o),
(222,661,o),
(263,661,cs),
(293,661,o),
(322,619,o),
(336,540,c),
(477,590,l),
(437,673,o),
(354,715,o),
(267,715,cs),
(119,715,o),
(68,595,o),
(68,486,cs),
(68,384,l),
(36,384,l),
(13,330,l),
(68,330,l),
(68,-145,l),
(212,-96,l),
(212,330,l),
(335,330,l),
(335,79,ls),
(335,37,o),
(356,-9,o),
(434,-9,cs),
(496,-9,o),
(532,31,o),
(549,60,c)
);
}
);
width = 551;
}
);
unicode = 64257;
},
{
color = 6;
glyphname = fl;
kernLeft = f;
kernRight = l;
lastChange = "2023-01-27 11:07:39 +0000";
layers = (
{
hints = (
{
horizontal = 1;
origin = (0,35);
target = (0,3);
type = Stem;
},
{
horizontal = 1;
origin = (0,17);
target = (0,16);
type = Stem;
},
{
horizontal = 1;
origin = (0,28);
target = (0,11);
type = Stem;
},
{
origin = (0,19);
target = (0,20);
type = Stem;
},
{
origin = (0,32);
target = (0,6);
type = Stem;
}
);
layerId = "E777F328-EA17-4AE7-9EBA-8002E537BA4F";
name = Light;
shapes = (
{
closed = 1;
nodes = (
(491,69,l),
(483,59,o),
(468,40,o),
(453,40,cs),
(436,40,o),
(432,57,o),
(432,68,cs),
(432,711,l),
(355,680,l),
(324,706,o),
(286,719,o),
(257,719,cs),
(121,719,o),
(75,599,o),
(75,491,cs),
(75,384,l),
(48,384,l),
(26,336,l),
(75,336,l),
(75,-138,l),
(150,-103,l),
(150,336,l),
(273,336,l),
(294,384,l),
(150,384,l),
(150,577,ls),
(150,626,o),
(160,689,o),
(237,689,cs),
(300,689,o),
(338,637,o),
(356,581,c),
(356,74,ls),
(356,21,o),
(377,-4,o),
(423,-4,cs),
(455,-4,o),
(489,23,o),
(502,57,c)
);
}
);
width = 517;
},
{
layerId = "39185045-6A8C-415A-8312-7B8F11386A4C";
name = Regular;
shapes = (
{
closed = 1;
nodes = (
(532,81,l),
(523,71,o),
(508,62,o),
(496,62,cs),
(487,62,o),
(480,69,o),
(480,86,cs),
(480,712,l),
(386,686,l),
(350,705,o),
(309,715,o),
(267,715,cs),
(119,715,o),
(68,595,o),
(68,486,cs),
(68,384,l),
(36,384,l),
(13,330,l),
(68,330,l),
(68,-145,l),
(212,-96,l),
(212,330,l),
(278,330,l),
(302,384,l),
(212,384,l),
(212,582,ls),
(212,614,o),
(222,661,o),
(263,661,cs),
(293,661,o),
(322,634,o),
(336,582,c),
(336,79,ls),
(336,37,o),
(358,-9,o),
(436,-9,cs),
(498,-9,o),
(533,31,o),
(551,60,c)
);
}
);
width = 553;
}
);
unicode = 64258;
},
{
color = 6;
glyphname = ordfeminine;
kernLeft = ordfeminine;
kernRight = ordfeminine;
lastChange = "2023-01-27 11:07:39 +0000";
layers = (
{
layerId = "E777F328-EA17-4AE7-9EBA-8002E537BA4F";
name = Light;
shapes = (
{
closed = 1;
nodes = (
(354,319,l),
(330,253,l),
(59,253,l),
(83,319,l)
);
},
{
pos = (34,401);
ref = a;
scale = (0.8,0.8);
}
);
width = 420;
},
{
layerId = "39185045-6A8C-415A-8312-7B8F11386A4C";
name = Regular;
shapes = (
{
closed = 1;
nodes = (
(370,319,l),
(346,243,l),
(34,243,l),
(59,319,l)
);
},
{
pos = (17,402);
ref = a;
scale = (0.8,0.8);
}
);
width = 410;
}
);
unicode = 170;
},
{
color = 6;
glyphname = ordmasculine;
kernLeft = ordmasculine;
kernRight = ordmasculine;
lastChange = "2023-01-27 11:07:39 +0000";
layers = (
{
layerId = "E777F328-EA17-4AE7-9EBA-8002E537BA4F";
name = Light;
shapes = (
{
closed = 1;
nodes = (
(354,319,l),
(330,253,l),
(59,253,l),
(83,319,l)
);
},
{
pos = (39,401);
ref = o;
scale = (0.8,0.8);
}
);
width = 408;
},
{
layerId = "39185045-6A8C-415A-8312-7B8F11386A4C";
name = Regular;
shapes = (
{
closed = 1;
nodes = (
(370,319,l),
(346,243,l),
(34,243,l),
(59,319,l)
);
},
{
pos = (24,402);
ref = o;
scale = (0.8,0.8);
}
);
width = 398;
}
);
unicode = 186;
},
{
color = 6;
glyphname = Omega;
lastChange = "2023-01-27 11:07:39 +0000";
layers = (
{
layerId = "E777F328-EA17-4AE7-9EBA-8002E537BA4F";
name = Light;
shapes = (
{
closed = 1;
nodes = (
(284,731,o),
(108,621,o),
(108,379,cs),
(108,242,o),
(209,110,o),
(308,69,c),
(99,69,l),
(69,0,l),
(403,0,l),
(403,66,l),
(315,112,o),
(209,230,o),
(209,380,cs),
(209,580,o),
(320,683,o),
(471,683,c),
(621,683,o),
(733,580,o),
(733,380,cs),
(733,230,o),
(626,112,o),
(538,66,c),
(538,0,l),
(873,0,l),
(842,69,l),
(635,69,l),
(733,110,o),
(834,242,o),
(834,379,cs),
(834,621,o),
(658,731,o),
(471,731,c)
);
}
);
width = 941;
},
{
layerId = "39185045-6A8C-415A-8312-7B8F11386A4C";
name = Regular;
shapes = (
{
closed = 1;
nodes = (
(277,731,o),
(83,625,o),
(83,383,cs),
(83,246,o),
(189,131,o),
(280,103,c),
(88,103,l),
(41,0,l),
(411,0,l),
(411,92,l),
(336,131,o),
(234,242,o),
(234,385,cs),
(234,575,o),
(330,673,o),
(468,673,c),
(606,673,o),
(702,575,o),
(702,385,cs),
(702,242,o),
(600,131,o),
(525,92,c),
(525,0,l),
(896,0,l),
(849,103,l),
(657,103,l),
(747,131,o),
(854,246,o),
(854,383,cs),
(854,625,o),
(660,731,o),
(468,731,c)
);
}
);
width = 936;
}
);
unicode = 937;
},
{
color = 6;
glyphname = mu;
kernLeft = p;
kernRight = u;
lastChange = "2023-01-27 11:07:39 +0000";
layers = (
{
layerId = "E777F328-EA17-4AE7-9EBA-8002E537BA4F";
name = Light;
shapes = (
{
closed = 1;
nodes = (
(447,468,l),
(412,349,o),
(339,97,o),
(257,97,cs),
(246,97,o),
(236,101,o),
(236,135,cs),
(236,410,ls),
(236,487,o),
(184,508,o),
(166,508,cs),
(148,508,o),
(91,494,o),
(55,428,c),
(69,413,l),
(92,443,o),
(112,456,o),
(122,456,cs),
(144,456,o),
(158,439,o),
(158,418,cs),
(158,-239,l),
(236,-193,l),
(236,-16,l),
(374,36,o),
(428,297,o),
(447,383,c),
(449,383,l),
(449,59,ls),
(449,0,o),
(495,-4,o),
(517,-4,cs),
(540,-4,o),
(593,10,o),
(628,77,c),
(616,91,l),
(593,59,o),
(572,50,o),
(559,50,cs),
(543,50,o),
(527,67,o),
(527,84,cs),
(527,515,l)
);
}
);
width = 673;
},
{
layerId = "39185045-6A8C-415A-8312-7B8F11386A4C";
name = Regular;
shapes = (
{
closed = 1;
nodes = (
(397,473,l),
(384,287,o),
(337,103,o),
(284,103,cs),
(274,103,o),
(268,117,o),
(268,137,cs),
(268,400,ls),
(268,462,o),
(230,509,o),
(159,509,cs),
(102,509,o),
(52,470,o),
(24,420,c),
(46,398,l),
(59,417,o),
(80,429,o),
(93,429,cs),
(108,429,o),
(120,419,o),
(120,394,cs),
(120,-245,l),
(268,-194,l),
(268,5,l),
(340,41,o),
(377,166,o),
(397,246,c),
(401,246,l),
(401,125,l),
(401,45,o),
(439,-9,o),
(506,-9,cs),
(565,-9,o),
(613,27,o),
(641,74,c),
(619,95,l),
(606,77,o),
(586,65,o),
(570,65,cs),
(558,65,o),
(545,77,o),
(545,99,cs),
(545,511,l)
);
}
);
width = 661;
}
);
unicode = 181;
},
{
color = 6;
glyphname = pi;
kernLeft = f;
kernRight = i;
lastChange = "2023-01-27 11:07:39 +0000";
layers = (
{
hints = (
{
horizontal = 1;
origin = (0,19);
target = (0,3);
type = Stem;
},
{
horizontal = 1;
origin = (0,10);
target = (0,9);
type = Stem;
},
{
horizontal = 1;
origin = (0,12);
target = up;
type = BottomGhost;
},
{
horizontal = 1;
origin = (0,13);
target = up;
type = BottomGhost;
},
{
horizontal = 1;
origin = (0,19);
target = up;
type = BottomGhost;
},
{
origin = (0,12);
target = (0,13);
type = Stem;
},
{
origin = (0,16);
target = (0,6);
type = Stem;
}
);
layerId = "E777F328-EA17-4AE7-9EBA-8002E537BA4F";
name = Light;
shapes = (
{
closed = 1;
nodes = (
(583,87,l),
(563,58,o),
(548,46,o),
(536,46,cs),
(517,46,o),
(501,62,o),
(501,83,cs),
(501,516,l),
(420,481,l),
(81,481,l),
(55,420,l),
(116,420,l),
(116,-27,l),
(197,0,l),
(197,420,l),
(420,420,l),
(420,95,ls),
(420,14,o),
(471,-4,o),
(494,-4,cs),
(513,-4,o),
(563,9,o),
(598,73,c)
);
}
);
width = 617;
},
{
hints = (
{
origin = (0,12);
target = (0,13);
type = Stem;
},
{
horizontal = 1;
origin = (0,10);
target = (0,9);
type = Stem;
},
{
origin = (0,16);
target = (0,6);
type = Stem;
},
{
horizontal = 1;
origin = (0,19);
target = (0,3);
type = Stem;
}
);
layerId = "39185045-6A8C-415A-8312-7B8F11386A4C";
name = Regular;
shapes = (
{
closed = 1;
nodes = (
(650,99,l),
(637,80,o),
(612,68,o),
(598,68,cs),
(584,68,o),
(579,80,o),
(579,102,cs),
(579,523,l),
(429,481,l),
(70,481,l),
(41,415,l),
(109,415,l),
(109,-25,l),
(259,0,l),
(259,415,l),
(429,415,l),
(429,100,ls),
(429,36,o),
(466,-9,o),
(539,-9,cs),
(598,-9,o),
(645,29,o),
(672,77,c)
);
}
);
width = 680;
}
);
unicode = 960;
},
{
color = 3;
glyphname = "aShort-deva";
lastChange = "2023-01-27 11:07:39 +0000";
layers = (
{
background = {
shapes = (
{
closed = 1;
nodes = (
(241,1291,o),
(227,1249,o),
(227,1209,cs),
(227,1150,o),
(304,1067,o),
(457,1067,cs),
(538,1067,o),
(609,1083,o),
(658,1083,cs),
(789,1083,o),
(803,986,o),
(803,956,cs),
(803,914,o),
(793,880,o),
(783,860,c),
(849,857,l),
(854,885,o),
(864,915,o),
(864,972,cs),
(864,1013,o),
(844,1049,o),
(815,1083,cs),
(780,1122,o),
(716,1151,o),
(644,1151,cs),
(600,1151,o),
(441,1135,o),
(392,1135,cs),
(335,1135,o),
(288,1171,o),
(288,1230,cs),
(288,1251,o),
(294,1276,o),
(303,1306,c),
(249,1315,l)
);
}
);
};
layerId = "E777F328-EA17-4AE7-9EBA-8002E537BA4F";
name = Light;
shapes = (
{
alignment = -1;
ref = "a-deva";
},
{
alignment = -1;
pos = (826,0);
ref = "eShortMatra-deva";
}
);
width = 743;
},
{
layerId = "39185045-6A8C-415A-8312-7B8F11386A4C";
name = Regular;
shapes = (
{
alignment = -1;
ref = "a-deva";
},
{
alignment = -1;
pos = (1037,0);
ref = "eShortMatra-deva";
}
);
width = 933;
}
);
unicode = 2308;
},
{
color = 3;
glyphname = "aCandra-deva";
lastChange = "2023-01-27 11:07:39 +0000";
layers = (
{
anchors = (
{
name = bottom;
pos = (606,0);
},
{
name = nukta;
pos = (110,0);
},
{
name = top;
pos = (592,689);
}
);
background = {
shapes = (
{
closed = 1;
nodes = (
(361,446,l),
(414,408,o),
(434,343,o),
(434,289,cs),
(434,207,o),
(366,135,o),
(269,135,cs),
(140,135,o),
(13,275,o),
(-59,392,c),
(-104,361,l),
(-37,238,o),
(95,25,o),
(320,25,cs),
(455,25,o),
(543,106,o),
(543,238,cs),
(543,346,o),
(491,413,o),
(409,483,c)
);
},
{
closed = 1;
nodes = (
(186,919,o),
(68,868,o),
(17,830,c),
(80,711,l),
(136,762,o),
(207,807,o),
(284,807,cs),
(355,807,o),
(419,749,o),
(419,685,cs),
(419,620,o),
(380,585,o),
(336,561,cs),
(286,535,o),
(205,526,o),
(156,523,c),
(140,486,l),
(189,398,l),
(262,408,o),
(319,418,o),
(408,446,c),
(481,502,o),
(506,581,o),
(506,635,cs),
(506,768,o),
(347,915,o),
(237,919,cs)
);
},
{
closed = 1;
nodes = (
(419,414,l),
(498,360,l),
(518,372,l),
(570,330,o),
(625,303,o),
(690,303,cs),
(740,303,o),
(771,317,o),
(795,335,c),
(786,460,l),
(745,431,o),
(701,408,o),
(635,408,cs),
(556,408,o),
(464,446,o),
(414,477,c)
);
},
{
closed = 1;
nodes = (
(773,833,l),
(773,395,l),
(687,319,l),
(773,319,l),
(773,-2,l),
(871,-59,l),
(894,-59,l),
(894,833,l)
);
},
{
closed = 1;
nodes = (
(527,896,l),
(527,873,l),
(572,792,l),
(1045,792,l),
(1045,813,l),
(1002,896,l)
);
},
{
closed = 1;
nodes = (
(1013,1264,l),
(975,1203,o),
(891,1126,o),
(771,1126,cs),
(680,1126,o),
(608,1194,o),
(551,1274,c),
(508,1255,l),
(563,1160,o),
(670,1036,o),
(824,1036,cs),
(958,1036,o),
(1037,1099,o),
(1102,1180,c)
);
}
);
};
layerId = "E777F328-EA17-4AE7-9EBA-8002E537BA4F";
name = Light;
shapes = (
{
alignment = -1;
ref = "a-deva";
},
{
alignment = -1;
pos = (826,0);
ref = "eCandraMatra-deva";
}
);
width = 743;
},
{
anchors = (
{
name = bottom;
pos = (762,0);
},
{
name = nukta;
pos = (124,0);
},
{
name = top;
pos = (754,689);
}
);
layerId = "39185045-6A8C-415A-8312-7B8F11386A4C";
name = Regular;
shapes = (
{
alignment = -1;
ref = "a-deva";
},
{
alignment = -1;
pos = (1037,26);
ref = "eCandraMatra-deva";
}
);
width = 933;
}
);
unicode = 2418;
},
{
color = 3;
glyphname = "a-deva";
lastChange = "2023-01-27 11:07:39 +0000";
layers = (
{
anchors = (
{
name = bottom;
pos = (606,0);
},
{
name = nukta;
pos = (110,0);
},
{
name = top;
pos = (592,689);
}
);
layerId = "E777F328-EA17-4AE7-9EBA-8002E537BA4F";
name = Light;
shapes = (
{
closed = 1;
nodes = (
(28,345,l),
(95,157,o),
(221,28,o),
(338,28,cs),
(419,28,o),
(481,99,o),
(481,187,cs),
(481,249,o),
(449,322,o),
(395,394,c),
(403,402,l),
(441,366,o),
(486,338,o),
(535,338,cs),
(547,338,o),
(559,340,o),
(572,345,c),
(572,166,ls),
(572,86,o),
(770,-55,o),
(888,-55,cs),
(908,-55,o),
(925,-46,o),
(943,-28,c),
(881,14,l),
(868,-4,o),
(850,-14,o),
(833,-14,cs),
(769,-14,o),
(640,69,o),
(640,117,cs),
(640,620,l),
(572,689,l),
(413,689,l),
(475,620,l),
(572,620,l),
(572,427,l),
(554,402,o),
(527,392,o),
(501,392,cs),
(472,392,o),
(441,403,o),
(421,425,c),
(439,453,o),
(449,485,o),
(449,519,cs),
(449,605,o),
(360,698,o),
(260,698,cs),
(196,698,o),
(128,665,o),
(88,608,c),
(140,558,l),
(181,609,o),
(238,646,o),
(296,646,cs),
(349,646,o),
(394,599,o),
(394,545,cs),
(394,511,o),
(380,472,o),
(356,449,c),
(326,487,o),
(292,509,o),
(262,509,cs),
(214,509,o),
(164,471,o),
(164,431,cs),
(164,384,o),
(229,328,o),
(275,328,cs),
(304,328,o),
(340,345,o),
(377,374,c),
(409,330,o),
(428,284,o),
(428,238,cs),
(428,160,o),
(379,91,o),
(308,91,cs),
(214,91,o),
(115,202,o),
(59,358,c)
);
},
{
closed = 1;
nodes = (
(758,620,l),
(758,689,l),
(613,689,l),
(681,620,l)
);
},
{
closed = 1;
nodes = (
(223,377,o),
(214,391,o),
(214,402,cs),
(214,426,o),
(260,457,o),
(288,457,cs),
(309,457,o),
(325,446,o),
(338,430,c),
(299,398,o),
(260,377,o),
(237,377,cs)
);
}
);
width = 743;
},
{
anchors = (
{
name = bottom;
pos = (762,0);
},
{
name = nukta;
pos = (124,0);
},
{
name = top;
pos = (754,689);
}
);
layerId = "39185045-6A8C-415A-8312-7B8F11386A4C";
name = Regular;
shapes = (
{
closed = 1;
nodes = (
(25,384,l),
(104,164,o),
(267,14,o),
(425,14,cs),
(522,14,o),
(602,92,o),
(602,185,cs),
(602,238,o),
(570,297,o),
(513,349,c),
(525,364,l),
(572,325,o),
(609,304,o),
(635,304,cs),
(652,304,o),
(668,308,o),
(686,314,c),
(686,166,ls),
(686,79,o),
(936,-89,o),
(1064,-89,cs),
(1104,-89,o),
(1143,-71,o),
(1168,-41,c),
(1037,32,l),
(1021,5,o),
(995,-7,o),
(968,-7,cs),
(923,-7,o),
(837,48,o),
(837,83,cs),
(837,551,l),
(720,689,l),
(492,689,l),
(603,551,l),
(686,551,l),
(686,436,l),
(654,406,o),
(611,392,o),
(573,392,cs),
(559,392,o),
(549,395,o),
(542,401,c),
(554,425,o),
(563,453,o),
(563,491,cs),
(563,597,o),
(427,722,o),
(289,722,cs),
(207,722,o),
(141,707,o),
(95,678,c),
(208,558,l),
(267,603,o),
(330,625,o),
(386,625,cs),
(427,625,o),
(447,597,o),
(447,561,cs),
(447,525,o),
(434,485,o),
(409,460,c),
(375,491,o),
(332,511,o),
(293,511,cs),
(230,511,o),
(176,467,o),
(176,413,cs),
(176,341,o),
(286,253,o),
(370,253,cs),
(406,253,o),
(449,277,o),
(478,317,c),
(491,297,o),
(500,283,o),
(500,267,cs),
(500,200,o),
(426,146,o),
(340,146,cs),
(237,146,o),
(131,248,o),
(71,405,c)
);
},
{
closed = 1;
nodes = (
(947,551,l),
(947,689,l),
(789,689,l),
(906,551,l)
);
},
{
closed = 1;
nodes = (
(289,340,o),
(283,347,o),
(283,356,cs),
(283,385,o),
(328,430,o),
(358,430,cs),
(368,430,o),
(375,425,o),
(384,413,c),
(340,356,o),
(313,340,o),
(297,340,cs)
);
}
);
width = 933;
}
);
unicode = 2309;
},
{
color = 3;
glyphname = "i-deva";
lastChange = "2023-01-27 11:07:39 +0000";
layers = (
{
anchors = (
{
name = top;
pos = (283,689);
}
);
layerId = "E777F328-EA17-4AE7-9EBA-8002E537BA4F";
name = Light;
shapes = (
{
closed = 1;
nodes = (
(294,620,l),
(315,599,o),
(330,573,o),
(330,551,cs),
(330,532,o),
(311,517,o),
(288,517,cs),
(161,517,ls),
(106,517,o),
(42,465,o),
(42,413,cs),
(42,355,o),
(128,268,o),
(211,268,cs),
(267,268,o),
(315,324,o),
(345,324,cs),
(370,324,o),
(394,299,o),
(394,268,cs),
(394,203,o),
(280,124,o),
(197,124,c),
(160,163,o),
(126,186,o),
(97,186,cs),
(74,186,o),
(50,168,o),
(50,145,cs),
(50,94,o),
(119,55,o),
(197,55,c),
(289,-51,o),
(394,-110,o),
(485,-110,cs),
(508,-110,o),
(535,-103,o),
(554,-83,c),
(498,-34,l),
(480,-54,o),
(457,-62,o),
(436,-62,cs),
(372,-62,o),
(294,-17,o),
(227,62,c),
(351,85,o),
(441,157,o),
(441,234,cs),
(441,300,o),
(379,372,o),
(317,372,cs),
(277,372,o),
(229,317,o),
(176,317,cs),
(134,317,o),
(97,345,o),
(97,379,cs),
(97,414,o),
(147,455,o),
(197,455,cs),
(324,455,ls),
(354,455,o),
(379,480,o),
(379,509,cs),
(379,545,o),
(361,584,o),
(330,620,c),
(262,689,l),
(-14,689,l),
(-14,620,l)
);
},
{
closed = 1;
nodes = (
(496,620,l),
(496,689,l),
(303,689,l),
(372,620,l)
);
}
);
width = 482;
},
{
anchors = (
{
name = top;
pos = (319,689);
}
);
layerId = "39185045-6A8C-415A-8312-7B8F11386A4C";
name = Regular;
shapes = (
{
closed = 1;
nodes = (
(345,551,l),
(355,544,o),
(365,530,o),
(365,523,cs),
(365,509,o),
(348,501,o),
(335,501,cs),
(186,498,ls),
(119,496,o),
(49,446,o),
(49,385,cs),
(49,313,o),
(192,193,o),
(275,193,cs),
(343,193,o),
(392,262,o),
(411,262,cs),
(428,262,o),
(441,248,o),
(441,227,cs),
(441,181,o),
(341,124,o),
(268,124,c),
(234,164,o),
(181,186,o),
(138,186,cs),
(97,186,o),
(62,160,o),
(62,124,cs),
(62,66,o),
(141,-7,o),
(275,-7,c),
(375,-112,o),
(468,-172,o),
(542,-172,cs),
(580,-172,o),
(617,-160,o),
(634,-138,c),
(526,-28,l),
(509,-50,o),
(477,-62,o),
(443,-62,cs),
(409,-62,o),
(370,-40,o),
(335,-2,c),
(446,7,o),
(535,71,o),
(535,145,cs),
(535,213,o),
(439,351,o),
(330,351,cs),
(264,351,o),
(232,275,o),
(193,275,cs),
(179,275,o),
(169,289,o),
(169,303,cs),
(169,346,o),
(218,383,o),
(275,385,cs),
(410,392,ls),
(451,394,o),
(480,416,o),
(480,441,cs),
(480,467,o),
(457,509,o),
(418,551,cs),
(285,689,l),
(-14,689,l),
(-14,551,l)
);
},
{
closed = 1;
nodes = (
(590,551,l),
(590,689,l),
(354,689,l),
(486,551,l)
);
}
);
width = 575;
}
);
unicode = 2311;
},
{
color = 3;
glyphname = "ii-deva";
lastChange = "2023-01-27 11:07:39 +0000";
layers = (
{
anchors = (
{
name = top;
pos = (394,689);
}
);
background = {
shapes = (
{
closed = 1;
nodes = (
(370,1328,o),
(257,1252,o),
(257,1131,cs),
(257,1040,o),
(329,941,o),
(419,871,c),
(419,788,l),
(508,869,l),
(453,920,o),
(386,1013,o),
(386,1094,cs),
(386,1183,o),
(441,1226,o),
(509,1226,cs),
(570,1226,o),
(643,1190,o),
(673,1166,c),
(709,1224,l),
(651,1286,o),
(570,1328,o),
(489,1328,cs)
);
},
{
closed = 0;
nodes = (
(253,1138,l),
(397,1096,l)
);
},
{
closed = 0;
nodes = (
(478,1348,l),
(508,1206,l)
);
}
);
};
layerId = "E777F328-EA17-4AE7-9EBA-8002E537BA4F";
name = Light;
shapes = (
{
alignment = -1;
ref = "i-deva";
},
{
alignment = -1;
pos = (451,-76);
ref = "reph-deva";
}
);
width = 434;
},
{
anchors = (
{
name = top;
pos = (394,689);
}
);
layerId = "39185045-6A8C-415A-8312-7B8F11386A4C";
name = Regular;
shapes = (
{
alignment = -1;
ref = "i-deva";
},
{
alignment = -1;
pos = (518,-76);
ref = "reph-deva";
}
);
width = 518;
}
);
unicode = 2312;
},
{
color = 3;
glyphname = "u-deva";
lastChange = "2023-01-27 11:07:39 +0000";
layers = (
{
anchors = (
{
name = bottom;
pos = (365,55);
},
{
name = top;
pos = (351,689);
}
);
layerId = "E777F328-EA17-4AE7-9EBA-8002E537BA4F";
name = Light;
shapes = (
{
closed = 1;
nodes = (
(351,620,l),
(392,591,o),
(420,549,o),
(420,509,cs),
(420,458,o),
(368,420,o),
(310,420,cs),
(281,420,o),
(253,421,o),
(227,427,c),
(239,401,o),
(258,377,o),
(288,353,c),
(293,351,o),
(310,349,o),
(328,349,cs),
(354,349,o),
(377,355,o),
(400,366,c),
(439,325,o),
(462,281,o),
(462,241,cs),
(462,171,o),
(397,117,o),
(324,117,cs),
(208,117,o),
(112,248,o),
(46,416,c),
(21,406,l),
(96,198,o),
(236,55,o),
(365,55,cs),
(446,55,o),
(509,119,o),
(509,193,cs),
(509,257,o),
(477,322,o),
(420,379,c),
(447,394,o),
(468,428,o),
(468,468,cs),
(468,511,o),
(449,570,o),
(400,620,cs),
(330,689,l),
(-14,689,l),
(-14,620,l)
);
},
{
closed = 1;
nodes = (
(579,620,l),
(579,689,l),
(372,689,l),
(441,620,l)
);
}
);
width = 564;
},
{
anchors = (
{
name = bottom;
pos = (420,7);
},
{
name = top;
pos = (379,689);
}
);
layerId = "39185045-6A8C-415A-8312-7B8F11386A4C";
name = Regular;
shapes = (
{
closed = 1;
nodes = (
(392,551,ls),
(416,551,o),
(434,525,o),
(434,496,cs),
(434,458,o),
(380,434,o),
(324,434,cs),
(280,434,o),
(246,437,o),
(221,447,c),
(248,375,o),
(275,325,o),
(303,296,c),
(315,292,o),
(336,289,o),
(365,289,cs),
(389,289,o),
(408,292,o),
(420,296,c),
(441,275,o),
(455,251,o),
(455,227,cs),
(455,176,o),
(402,138,o),
(345,138,cs),
(234,138,o),
(121,251,o),
(62,413,c),
(21,400,l),
(104,169,o),
(263,7,o),
(420,7,cs),
(504,7,o),
(572,68,o),
(572,138,cs),
(572,193,o),
(528,258,o),
(462,317,c),
(502,336,o),
(530,372,o),
(530,406,cs),
(530,446,o),
(504,500,o),
(462,551,cs),
(345,689,l),
(-14,689,l),
(-14,551,l)
);
},
{
closed = 1;
nodes = (
(635,551,l),
(635,689,l),
(413,689,l),
(530,551,l)
);
}
);
width = 621;
}
);
unicode = 2313;
},
{
color = 3;
glyphname = "uu-deva";
lastChange = "2023-01-27 11:07:39 +0000";
layers = (
{
anchors = (
{
name = bottom;
pos = (365,55);
},
{
name = top;
pos = (351,689);
}
);
layerId = "E777F328-EA17-4AE7-9EBA-8002E537BA4F";
name = Light;
shapes = (
{
closed = 1;
nodes = (
(351,620,l),
(392,591,o),
(420,549,o),
(420,509,cs),
(420,458,o),
(368,420,o),
(310,420,cs),
(281,420,o),
(253,421,o),
(227,427,c),
(239,401,o),
(258,377,o),
(288,353,c),
(293,351,o),
(310,349,o),
(328,349,cs),
(354,349,o),
(377,355,o),
(400,366,c),
(439,325,o),
(462,281,o),
(462,241,cs),
(462,171,o),
(397,117,o),
(324,117,cs),
(208,117,o),
(112,248,o),
(46,416,c),
(21,406,l),
(96,198,o),
(236,55,o),
(365,55,cs),
(446,55,o),
(509,119,o),
(509,193,cs),
(509,229,o),
(498,266,o),
(480,302,c),
(519,351,o),
(575,385,o),
(640,385,cs),
(673,385,o),
(702,355,o),
(702,317,cs),
(702,251,o),
(663,192,o),
(606,172,c),
(654,117,l),
(711,136,o),
(751,198,o),
(751,268,cs),
(751,346,o),
(661,441,o),
(585,441,cs),
(533,441,o),
(477,409,o),
(439,358,c),
(420,379,l),
(447,394,o),
(468,428,o),
(468,468,cs),
(468,511,o),
(449,570,o),
(400,620,cs),
(330,689,l),
(-14,689,l),
(-14,620,l)
);
},
{
closed = 1;
nodes = (
(802,620,l),
(802,689,l),
(372,689,l),
(441,620,l)
);
}
);
width = 788;
},
{
anchors = (
{
name = bottom;
pos = (420,7);
},
{
name = top;
pos = (379,689);
}
);
layerId = "39185045-6A8C-415A-8312-7B8F11386A4C";
name = Regular;
shapes = (
{
closed = 1;
nodes = (
(392,551,ls),
(416,551,o),
(434,525,o),
(434,496,cs),
(434,458,o),
(380,434,o),
(324,434,cs),
(280,434,o),
(246,437,o),
(221,447,c),
(248,375,o),
(275,325,o),
(303,296,c),
(315,292,o),
(336,289,o),
(365,289,cs),
(389,289,o),
(408,292,o),
(420,296,c),
(441,275,o),
(455,251,o),
(455,227,cs),
(455,176,o),
(402,138,o),
(345,138,cs),
(234,138,o),
(121,251,o),
(62,413,c),
(21,400,l),
(104,169,o),
(263,7,o),
(420,7,cs),
(504,7,o),
(572,68,o),
(572,138,cs),
(572,153,o),
(568,171,o),
(561,187,c),
(615,251,o),
(681,289,o),
(745,289,cs),
(758,289,o),
(773,275,o),
(773,262,cs),
(773,218,o),
(723,172,o),
(649,145,c),
(738,34,l),
(808,53,o),
(862,109,o),
(862,172,cs),
(862,267,o),
(752,392,o),
(670,392,cs),
(603,392,o),
(538,358,o),
(482,297,c),
(462,317,l),
(502,336,o),
(530,372,o),
(530,406,cs),
(530,446,o),
(504,500,o),
(462,551,cs),
(345,689,l),
(-14,689,l),
(-14,551,l)
);
},
{
closed = 1;
nodes = (
(914,551,l),
(914,689,l),
(413,689,l),
(530,551,l)
);
}
);
width = 899;
}
);
unicode = 2314;
},
{
color = 3;
glyphname = "rVocalic-deva";
lastChange = "2023-01-27 11:07:39 +0000";
layers = (
{
anchors = (
{
name = bottom;
pos = (385,0);
},
{
name = top;
pos = (372,689);
}
);
layerId = "E777F328-EA17-4AE7-9EBA-8002E537BA4F";
name = Light;
shapes = (
{
closed = 1;
nodes = (
(-14,689,l),
(-14,620,l),
(351,620,l),
(351,420,l),
(286,496,o),
(221,537,o),
(166,537,cs),
(109,537,o),
(54,515,o),
(14,475,c),
(62,413,l),
(106,457,o),
(160,482,o),
(207,482,cs),
(241,482,o),
(292,449,o),
(338,392,c),
(283,326,o),
(207,275,o),
(110,241,c),
(179,186,l),
(248,218,o),
(306,257,o),
(351,303,c),
(351,166,ls),
(351,86,o),
(549,-55,o),
(668,-55,cs),
(687,-55,o),
(706,-46,o),
(723,-28,c),
(661,14,l),
(647,-4,o),
(630,-14,o),
(613,-14,cs),
(548,-14,o),
(420,69,o),
(420,117,cs),
(420,365,l),
(460,338,o),
(502,324,o),
(551,324,cs),
(574,324,o),
(594,326,o),
(606,330,c),
(658,286,o),
(689,246,o),
(689,221,cs),
(689,176,o),
(651,138,o),
(606,138,cs),
(582,138,o),
(554,156,o),
(530,179,c),
(509,158,l),
(554,113,o),
(608,83,o),
(654,83,cs),
(702,83,o),
(751,132,o),
(751,186,cs),
(751,226,o),
(707,281,o),
(634,345,c),
(673,363,o),
(702,395,o),
(702,420,cs),
(702,462,o),
(646,517,o),
(599,517,cs),
(569,517,o),
(544,491,o),
(544,462,cs),
(544,437,o),
(553,414,o),
(572,392,c),
(548,379,o),
(525,372,o),
(502,372,cs),
(471,372,o),
(441,380,o),
(420,400,c),
(420,620,l),
(351,689,l)
);
},
{
closed = 1;
nodes = (
(392,689,l),
(462,620,l),
(803,620,l),
(803,689,l)
);
}
);
width = 788;
},
{
anchors = (
{
name = bottom;
pos = (486,0);
},
{
name = top;
pos = (458,689);
}
);
layerId = "39185045-6A8C-415A-8312-7B8F11386A4C";
name = Regular;
shapes = (
{
closed = 1;
nodes = (
(-14,689,l),
(-14,551,l),
(410,551,l),
(410,372,l),
(351,455,o),
(284,509,o),
(225,509,cs),
(140,509,o),
(64,481,o),
(18,434,c),
(114,296,l),
(167,348,o),
(234,379,o),
(300,379,cs),
(332,379,o),
(368,356,o),
(397,317,c),
(324,243,o),
(232,198,o),
(121,179,c),
(238,62,l),
(303,86,o),
(361,122,o),
(410,172,c),
(410,163,ls),
(410,81,o),
(658,-89,o),
(789,-89,cs),
(829,-89,o),
(868,-71,o),
(892,-41,c),
(762,32,l),
(745,5,o),
(719,-7,o),
(692,-7,cs),
(647,-7,o),
(563,48,o),
(563,83,cs),
(563,351,l),
(615,297,o),
(673,266,o),
(720,266,cs),
(747,266,o),
(769,269,o),
(789,277,c),
(813,253,o),
(830,227,o),
(830,212,cs),
(830,176,o),
(798,143,o),
(762,143,cs),
(728,143,o),
(699,150,o),
(686,164,c),
(665,136,l),
(714,80,o),
(777,44,o),
(837,44,cs),
(899,44,o),
(954,86,o),
(954,143,cs),
(954,183,o),
(938,203,o),
(844,303,c),
(883,322,o),
(906,346,o),
(906,372,cs),
(906,427,o),
(819,498,o),
(754,498,cs),
(722,498,o),
(692,475,o),
(692,443,cs),
(692,425,o),
(701,403,o),
(720,383,c),
(709,375,o),
(691,370,o),
(671,370,cs),
(626,370,o),
(584,389,o),
(563,420,c),
(563,551,l),
(425,689,l)
);
},
{
closed = 1;
nodes = (
(492,689,l),
(630,551,l),
(1007,551,l),
(1007,689,l)
);
}
);
width = 993;
}
);
unicode = 2315;
},
{
color = 3;
glyphname = "rrVocalic-deva";
lastChange = "2023-01-27 11:07:39 +0000";
layers = (
{
anchors = (
{
name = bottom;
pos = (392,0);
},
{
name = top;
pos = (372,689);
}
);
background = {
shapes = (
{
closed = 1;
nodes = (
(-14,689,l),
(351,689,l),
(420,620,l),
(420,400,l),
(441,381,o),
(469,372,o),
(502,372,cs),
(525,372,o),
(548,379,o),
(572,392,c),
(554,414,o),
(544,437,o),
(544,462,cs),
(544,492,o),
(568,517,o),
(599,517,cs),
(644,517,o),
(702,458,o),
(702,413,cs),
(702,397,o),
(686,374,o),
(658,351,c),
(698,319,o),
(723,285,o),
(723,262,cs),
(723,239,o),
(694,218,o),
(654,207,cs),
(632,200,o),
(614,193,o),
(599,185,c),
(585,176,o),
(579,167,o),
(579,158,cs),
(579,136,o),
(608,117,o),
(647,117,cs),
(680,117,o),
(712,131,o),
(743,158,c),
(798,117,l),
(762,86,o),
(717,69,o),
(675,69,cs),
(605,69,o),
(517,135,o),
(517,186,cs),
(517,220,o),
(559,251,o),
(620,262,cs),
(647,267,o),
(668,278,o),
(668,289,cs),
(668,294,o),
(663,302,o),
(657,310,c),
(651,319,o),
(639,329,o),
(626,339,c),
(602,329,o),
(577,324,o),
(551,324,cs),
(502,324,o),
(460,338,o),
(420,365,c),
(420,117,ls),
(420,71,o),
(543,-14,o),
(613,-14,cs),
(630,-14,o),
(646,-4,o),
(661,14,c),
(723,-28,l),
(706,-46,o),
(686,-55,o),
(668,-55,cs),
(554,-55,o),
(351,86,o),
(351,166,cs),
(351,303,l),
(306,257,o),
(248,218,o),
(179,186,c),
(110,241,l),
(207,275,o),
(283,326,o),
(338,392,c),
(289,449,o),
(241,482,o),
(207,482,cs),
(158,482,o),
(106,457,o),
(62,413,c),
(14,475,l),
(54,515,o),
(109,537,o),
(166,537,cs),
(221,537,o),
(289,492,o),
(351,420,c),
(351,620,l),
(-14,620,l)
);
},
{
closed = 1;
nodes = (
(392,689,l),
(826,689,l),
(826,620,l),
(462,620,l)
);
}
);
};
layerId = "E777F328-EA17-4AE7-9EBA-8002E537BA4F";
name = Light;
shapes = (
{
closed = 1;
nodes = (
(-14,689,l),
(-14,620,l),
(351,620,l),
(351,420,l),
(289,492,o),
(221,537,o),
(166,537,cs),
(109,537,o),
(54,515,o),
(14,475,c),
(62,413,l),
(106,457,o),
(158,482,o),
(207,482,cs),
(241,482,o),
(289,449,o),
(338,392,c),
(283,326,o),
(207,275,o),
(110,241,c),
(179,186,l),
(248,218,o),
(306,257,o),
(351,303,c),
(351,166,ls),
(351,86,o),
(554,-55,o),
(668,-55,cs),
(686,-55,o),
(706,-46,o),
(723,-28,c),
(661,14,l),
(646,-4,o),
(630,-14,o),
(613,-14,cs),
(543,-14,o),
(420,71,o),
(420,117,cs),
(420,365,l),
(460,338,o),
(502,324,o),
(551,324,cs),
(577,324,o),
(602,329,o),
(626,339,c),
(643,325,o),
(668,302,o),
(668,289,cs),
(668,253,o),
(517,267,o),
(517,186,cs),
(517,135,o),
(605,69,o),
(675,69,cs),
(717,69,o),
(762,86,o),
(798,117,c),
(743,158,l),
(712,131,o),
(680,117,o),
(647,117,cs),
(608,117,o),
(579,136,o),
(579,158,cs),
(579,207,o),
(723,200,o),
(723,262,cs),
(723,285,o),
(698,319,o),
(658,351,c),
(686,374,o),
(702,397,o),
(702,413,cs),
(702,458,o),
(644,517,o),
(599,517,cs),
(568,517,o),
(544,492,o),
(544,462,cs),
(544,437,o),
(554,414,o),
(572,392,c),
(548,379,o),
(525,372,o),
(502,372,cs),
(469,372,o),
(441,381,o),
(420,400,c),
(420,620,l),
(351,689,l)
);
},
{
closed = 1;
nodes = (
(392,689,l),
(462,620,l),
(826,620,l),
(826,689,l)
);
}
);
width = 813;
},
{
anchors = (
{
name = bottom;
pos = (486,0);
},
{
name = top;
pos = (458,689);
}
);
background = {
shapes = (
{
closed = 1;
nodes = (
(-14,689,l),
(425,689,l),
(563,551,l),
(563,439,l),
(584,410,o),
(625,392,o),
(671,392,cs),
(694,392,o),
(709,395,o),
(720,402,c),
(702,425,o),
(692,446,o),
(692,463,cs),
(692,491,o),
(720,517,o),
(754,517,cs),
(821,517,o),
(906,447,o),
(906,392,cs),
(906,366,o),
(886,340,o),
(851,319,c),
(899,292,o),
(926,257,o),
(926,234,cs),
(926,207,o),
(905,183,o),
(871,174,cs),
(842,166,o),
(819,157,o),
(803,147,cs),
(785,138,o),
(775,131,o),
(775,120,cs),
(775,109,o),
(788,99,o),
(803,99,cs),
(837,99,o),
(880,114,o),
(920,143,c),
(1016,59,l),
(977,34,o),
(928,23,o),
(871,23,cs),
(778,23,o),
(658,110,o),
(658,181,cs),
(658,208,o),
(701,236,o),
(762,248,c),
(779,251,o),
(795,255,o),
(806,258,c),
(819,264,o),
(824,269,o),
(824,275,cs),
(824,278,o),
(823,281,o),
(819,285,cs),
(814,289,o),
(808,293,o),
(802,299,c),
(774,292,o),
(749,288,o),
(727,288,cs),
(676,288,o),
(615,319,o),
(563,372,c),
(563,83,ls),
(563,49,o),
(643,-7,o),
(692,-7,cs),
(719,-7,o),
(745,8,o),
(762,32,c),
(892,-41,l),
(866,-74,o),
(829,-89,o),
(789,-89,cs),
(663,-89,o),
(410,86,o),
(410,172,c),
(361,122,o),
(303,86,o),
(238,62,c),
(121,179,l),
(232,198,o),
(324,243,o),
(397,317,c),
(370,355,o),
(334,379,o),
(300,379,cs),
(234,379,o),
(168,349,o),
(114,296,c),
(18,434,l),
(66,482,o),
(140,509,o),
(225,509,cs),
(281,509,o),
(349,458,o),
(410,372,c),
(410,551,l),
(-14,551,l)
);
},
{
closed = 1;
nodes = (
(492,689,l),
(1041,689,l),
(1041,551,l),
(630,551,l)
);
}
);
};
layerId = "39185045-6A8C-415A-8312-7B8F11386A4C";
name = Regular;
shapes = (
{
closed = 1;
nodes = (
(-14,689,l),
(-14,551,l),
(410,551,l),
(410,372,l),
(349,458,o),
(281,509,o),
(225,509,cs),
(140,509,o),
(66,482,o),
(18,434,c),
(114,296,l),
(168,349,o),
(234,379,o),
(300,379,cs),
(334,379,o),
(370,355,o),
(397,317,c),
(324,243,o),
(232,198,o),
(121,179,c),
(238,62,l),
(303,86,o),
(361,122,o),
(410,172,c),
(410,160,l),
(410,95,o),
(654,-89,o),
(789,-89,cs),
(829,-89,o),
(866,-74,o),
(892,-41,c),
(762,32,l),
(745,8,o),
(719,-7,o),
(692,-7,cs),
(643,-7,o),
(563,49,o),
(563,83,cs),
(563,372,l),
(615,319,o),
(676,288,o),
(727,288,cs),
(749,288,o),
(774,292,o),
(802,299,c),
(814,292,o),
(824,283,o),
(824,275,cs),
(824,243,o),
(658,249,o),
(658,181,cs),
(658,110,o),
(778,23,o),
(871,23,cs),
(928,23,o),
(977,34,o),
(1016,59,c),
(920,143,l),
(880,114,o),
(837,99,o),
(803,99,cs),
(788,99,o),
(775,109,o),
(775,120,cs),
(775,166,o),
(926,157,o),
(926,234,cs),
(926,257,o),
(899,292,o),
(851,319,c),
(886,340,o),
(906,366,o),
(906,392,cs),
(906,447,o),
(821,517,o),
(754,517,cs),
(720,517,o),
(692,491,o),
(692,463,cs),
(692,446,o),
(702,425,o),
(720,402,c),
(709,395,o),
(694,392,o),
(671,392,cs),
(625,392,o),
(584,410,o),
(563,439,c),
(563,551,l),
(425,689,l)
);
},
{
closed = 1;
nodes = (
(492,689,l),
(630,551,l),
(1041,551,l),
(1041,689,l)
);
}
);
width = 1028;
}
);
unicode = 2400;
},
{
color = 3;
glyphname = "lVocalic-deva";
lastChange = "2023-01-27 11:07:39 +0000";
layers = (
{
anchors = (
{
name = bottom;
pos = (439,0);
},
{
name = top;
pos = (530,689);
}
);
layerId = "E777F328-EA17-4AE7-9EBA-8002E537BA4F";
name = Light;
shapes = (
{
closed = 1;
nodes = (
(502,620,l),
(502,502,l),
(453,500,o),
(402,455,o),
(372,392,c),
(325,456,o),
(266,496,o),
(207,496,cs),
(134,496,o),
(55,410,o),
(55,330,cs),
(55,200,o),
(203,0,o),
(330,0,cs),
(355,0,o),
(380,8,o),
(400,28,c),
(345,76,l),
(325,57,o),
(310,49,o),
(296,49,cs),
(226,49,o),
(110,187,o),
(110,268,cs),
(110,355,o),
(176,441,o),
(249,441,cs),
(288,441,o),
(329,409,o),
(358,358,c),
(354,332,o),
(351,310,o),
(351,289,c),
(420,255,l),
(420,394,o),
(485,455,o),
(558,455,cs),
(628,455,o),
(689,394,o),
(689,324,cs),
(689,198,o),
(475,200,o),
(475,76,cs),
(475,9,o),
(580,-76,o),
(681,-76,cs),
(733,-76,o),
(775,-57,o),
(806,-21,c),
(758,21,l),
(722,-15,o),
(681,-34,o),
(640,-34,cs),
(581,-34,o),
(530,-3,o),
(530,41,cs),
(530,151,o),
(737,156,o),
(737,283,cs),
(737,372,o),
(671,460,o),
(572,496,c),
(572,620,l),
(509,689,l),
(-14,689,l),
(-14,620,l)
);
},
{
closed = 1;
nodes = (
(798,620,l),
(798,689,l),
(551,689,l),
(613,620,l)
);
}
);
width = 785;
},
{
anchors = (
{
name = bottom;
pos = (513,0);
},
{
name = top;
pos = (525,689);
}
);
background = {
shapes = (
{
closed = 1;
nodes = (
(477,551,l),
(477,482,l),
(437,474,o),
(400,436,o),
(380,379,c),
(326,443,o),
(264,482,o),
(214,482,cs),
(125,482,o),
(50,405,o),
(50,310,cs),
(50,167,o),
(257,-41,o),
(421,-41,cs),
(446,-41,o),
(471,-33,o),
(491,-14,c),
(408,104,l),
(384,80,o),
(348,69,o),
(304,69,cs),
(248,69,o),
(172,143,o),
(172,200,cs),
(172,291,o),
(230,365,o),
(306,365,cs),
(325,365,o),
(346,353,o),
(361,335,c),
(355,303,o),
(353,277,o),
(353,255,c),
(504,200,l),
(504,351,o),
(572,400,o),
(635,400,cs),
(671,400,o),
(697,364,o),
(697,324,cs),
(697,179,o),
(518,181,o),
(518,69,cs),
(518,-23,o),
(649,-145,o),
(773,-145,cs),
(832,-145,o),
(888,-126,o),
(924,-96,c),
(814,14,l),
(778,-31,o),
(728,-55,o),
(676,-55,cs),
(643,-55,o),
(621,-40,o),
(621,-14,cs),
(621,42,o),
(734,68,o),
(779,135,cs),
(803,168,o),
(814,203,o),
(814,241,cs),
(814,332,o),
(740,420,o),
(628,462,c),
(628,551,l),
(491,689,l),
(-14,689,l),
(-14,551,l)
);
}
);
};
layerId = "39185045-6A8C-415A-8312-7B8F11386A4C";
name = Regular;
shapes = (
{
closed = 1;
nodes = (
(477,551,l),
(477,482,l),
(437,474,o),
(400,436,o),
(380,379,c),
(326,443,o),
(264,482,o),
(214,482,cs),
(125,482,o),
(50,405,o),
(50,310,cs),
(50,167,o),
(257,-41,o),
(421,-41,cs),
(446,-41,o),
(471,-33,o),
(491,-14,c),
(408,104,l),
(384,80,o),
(348,69,o),
(304,69,cs),
(248,69,o),
(172,143,o),
(172,200,cs),
(172,291,o),
(230,365,o),
(306,365,cs),
(325,365,o),
(346,353,o),
(361,335,c),
(355,303,o),
(353,277,o),
(353,255,c),
(504,200,l),
(504,351,o),
(572,400,o),
(635,400,cs),
(671,400,o),
(697,364,o),
(697,324,cs),
(697,179,o),
(518,181,o),
(518,69,cs),
(518,-23,o),
(649,-145,o),
(773,-145,cs),
(832,-145,o),
(888,-126,o),
(924,-96,c),
(814,14,l),
(778,-31,o),
(728,-55,o),
(676,-55,cs),
(643,-55,o),
(621,-40,o),
(621,-14,cs),
(621,59,o),
(814,74,o),
(814,241,cs),
(814,332,o),
(740,420,o),
(628,462,c),
(628,551,l),
(491,689,l),
(-14,689,l),
(-14,551,l)
);
},
{
closed = 1;
nodes = (
(876,551,l),
(876,689,l),
(559,689,l),
(697,551,l)
);
}
);
width = 862;
}
);
unicode = 2316;
},
{
color = 3;
glyphname = "llVocalic-deva";
lastChange = "2023-01-27 11:07:39 +0000";
layers = (
{
anchors = (
{
name = bottom;
pos = (458,0);
},
{
name = top;
pos = (530,689);
}
);
background = {
shapes = (
{
closed = 1;
nodes = (
(502,620,l),
(502,502,l),
(477,501,o),
(453,491,o),
(430,469,cs),
(406,451,o),
(386,425,o),
(372,392,c),
(348,425,o),
(324,451,o),
(294,468,cs),
(266,486,o),
(236,496,o),
(207,496,cs),
(169,496,o),
(135,478,o),
(104,443,cs),
(71,409,o),
(55,372,o),
(55,330,cs),
(55,263,o),
(86,191,o),
(150,114,cs),
(213,39,o),
(275,0,o),
(330,0,cs),
(343,0,o),
(355,3,o),
(368,7,cs),
(380,11,o),
(391,18,o),
(400,28,c),
(351,76,l),
(341,66,o),
(334,59,o),
(324,55,cs),
(314,51,o),
(306,49,o),
(296,49,cs),
(260,49,o),
(221,75,o),
(176,126,cs),
(132,179,o),
(110,226,o),
(110,268,cs),
(110,314,o),
(124,354,o),
(153,389,cs),
(181,423,o),
(212,441,o),
(249,441,cs),
(268,441,o),
(288,434,o),
(308,419,cs),
(326,403,o),
(343,384,o),
(358,358,c),
(354,332,o),
(351,310,o),
(351,289,c),
(420,255,l),
(420,283,ls),
(420,330,o),
(434,370,o),
(460,403,cs),
(487,437,o),
(520,455,o),
(558,455,cs),
(594,455,o),
(625,443,o),
(651,420,cs),
(676,397,o),
(689,370,o),
(689,338,cs),
(689,317,o),
(680,297,o),
(662,278,cs),
(644,257,o),
(621,241,o),
(592,227,cs),
(554,209,o),
(525,191,o),
(502,169,cs),
(481,147,o),
(469,126,o),
(469,109,cs),
(469,94,o),
(480,76,o),
(498,59,cs),
(515,40,o),
(532,32,o),
(548,32,cs),
(569,32,l),
(561,25,o),
(554,18,o),
(549,11,cs),
(545,4,o),
(543,-2,o),
(543,-7,cs),
(543,-29,o),
(559,-50,o),
(591,-68,cs),
(623,-86,o),
(658,-95,o),
(696,-95,cs),
(723,-95,o),
(749,-89,o),
(773,-79,cs),
(797,-68,o),
(816,-53,o),
(832,-33,c),
(780,7,l),
(763,-15,o),
(743,-33,o),
(720,-46,cs),
(697,-59,o),
(675,-64,o),
(652,-64,cs),
(635,-64,o),
(621,-59,o),
(609,-53,cs),
(598,-46,o),
(592,-37,o),
(592,-28,cs),
(592,-17,o),
(600,-5,o),
(617,7,cs),
(634,19,o),
(655,32,o),
(683,41,c),
(644,92,l),
(630,83,o),
(614,75,o),
(602,69,cs),
(588,64,o),
(575,60,o),
(564,60,cs),
(554,60,o),
(547,64,o),
(540,68,cs),
(533,71,o),
(530,76,o),
(530,83,cs),
(530,97,o),
(538,113,o),
(556,131,cs),
(574,145,o),
(598,160,o),
(626,172,cs),
(660,186,o),
(686,203,o),
(707,227,cs),
(727,251,o),
(737,273,o),
(737,296,cs),
(737,339,o),
(722,377,o),
(691,413,cs),
(661,451,o),
(621,478,o),
(572,496,c),
(572,620,l),
(509,689,l),
(-14,689,l),
(-14,620,l)
);
},
{
closed = 1;
nodes = (
(795,620,l),
(795,689,l),
(551,689,l),
(613,620,l)
);
}
);
};
layerId = "E777F328-EA17-4AE7-9EBA-8002E537BA4F";
name = Light;
shapes = (
{
closed = 1;
nodes = (
(-14,689,l),
(509,689,l),
(572,620,l),
(572,496,l),
(671,458,o),
(737,380,o),
(737,296,cs),
(737,193,o),
(530,174,o),
(530,83,cs),
(530,68,o),
(543,60,o),
(561,60,cs),
(584,60,o),
(617,74,o),
(644,92,c),
(683,41,l),
(643,28,o),
(592,0,o),
(592,-28,cs),
(592,-49,o),
(619,-64,o),
(652,-64,cs),
(697,-64,o),
(743,-37,o),
(780,7,c),
(832,-33,l),
(797,-71,o),
(745,-95,o),
(686,-95,cs),
(614,-95,o),
(543,-51,o),
(543,-7,cs),
(543,4,o),
(553,19,o),
(569,32,c),
(509,32,o),
(469,71,o),
(469,109,cs),
(469,209,o),
(689,227,o),
(689,338,cs),
(689,402,o),
(630,455,o),
(558,455,cs),
(477,455,o),
(420,383,o),
(420,255,c),
(351,289,l),
(351,310,o),
(354,332,o),
(358,358,c),
(329,409,o),
(288,441,o),
(249,441,cs),
(176,441,o),
(110,358,o),
(110,268,cs),
(110,185,o),
(225,49,o),
(296,49,cs),
(314,49,o),
(334,59,o),
(351,76,c),
(400,28,l),
(381,9,o),
(356,0,o),
(330,0,cs),
(217,0,o),
(55,194,o),
(55,330,cs),
(55,413,o),
(131,496,o),
(207,496,cs),
(266,496,o),
(326,457,o),
(372,392,c),
(401,457,o),
(452,498,o),
(502,502,c),
(502,620,l),
(-14,620,l)
);
},
{
closed = 1;
nodes = (
(551,689,l),
(795,689,l),
(795,620,l),
(613,620,l)
);
}
);
width = 781;
},
{
anchors = (
{
name = bottom;
pos = (525,0);
},
{
name = top;
pos = (525,689);
}
);
background = {
shapes = (
{
closed = 1;
nodes = (
(-14,689,l),
(491,689,l),
(628,551,l),
(628,462,l),
(743,430,o),
(821,351,o),
(821,268,cs),
(821,218,o),
(785,168,o),
(730,141,c),
(704,131,o),
(681,110,o),
(681,101,cs),
(681,79,o),
(723,60,o),
(774,60,c),
(797,13,l),
(727,7,o),
(675,-29,o),
(675,-71,cs),
(675,-88,o),
(687,-99,o),
(706,-99,cs),
(752,-99,o),
(798,-85,o),
(842,-54,c),
(914,-132,l),
(881,-150,o),
(850,-160,o),
(819,-160,cs),
(690,-160,o),
(559,-91,o),
(559,-23,cs),
(559,5,o),
(595,37,o),
(649,54,c),
(590,80,o),
(553,117,o),
(553,149,cs),
(553,176,o),
(586,212,o),
(641,248,cs),
(680,269,o),
(704,303,o),
(704,330,cs),
(704,370,o),
(676,400,o),
(641,400,cs),
(569,400,o),
(504,338,o),
(504,200,c),
(353,255,l),
(353,277,o),
(355,303,o),
(361,335,c),
(345,353,o),
(324,365,o),
(306,365,cs),
(232,365,o),
(172,292,o),
(172,200,cs),
(172,143,o),
(246,69,o),
(304,69,cs),
(348,69,o),
(385,81,o),
(408,104,c),
(491,-14,l),
(472,-32,o),
(447,-41,o),
(421,-41,cs),
(267,-41,o),
(50,166,o),
(50,310,cs),
(50,405,o),
(122,482,o),
(214,482,cs),
(264,482,o),
(325,446,o),
(380,379,c),
(401,436,o),
(437,475,o),
(477,482,c),
(477,551,l),
(-14,551,l)
);
}
);
};
layerId = "39185045-6A8C-415A-8312-7B8F11386A4C";
name = Regular;
shapes = (
{
closed = 1;
nodes = (
(-14,689,l),
(491,689,l),
(628,551,l),
(628,462,l),
(743,430,o),
(821,351,o),
(821,268,cs),
(821,151,o),
(681,141,o),
(681,96,cs),
(681,75,o),
(707,62,o),
(743,62,cs),
(752,62,o),
(763,64,o),
(774,64,c),
(797,13,l),
(727,7,o),
(675,-29,o),
(675,-71,cs),
(675,-88,o),
(692,-99,o),
(717,-99,cs),
(762,-99,o),
(803,-85,o),
(842,-54,c),
(914,-132,l),
(881,-150,o),
(850,-160,o),
(819,-160,cs),
(690,-160,o),
(559,-91,o),
(559,-23,cs),
(559,5,o),
(595,37,o),
(649,54,c),
(590,80,o),
(553,117,o),
(553,149,cs),
(553,218,o),
(704,253,o),
(704,330,cs),
(704,370,o),
(676,400,o),
(641,400,cs),
(569,400,o),
(504,338,o),
(504,200,c),
(353,255,l),
(353,277,o),
(355,303,o),
(361,335,c),
(345,353,o),
(324,365,o),
(306,365,cs),
(232,365,o),
(172,292,o),
(172,200,cs),
(172,143,o),
(246,69,o),
(304,69,cs),
(348,69,o),
(385,81,o),
(408,104,c),
(491,-14,l),
(472,-32,o),
(447,-41,o),
(421,-41,cs),
(267,-41,o),
(50,166,o),
(50,310,cs),
(50,405,o),
(122,482,o),
(214,482,cs),
(264,482,o),
(325,446,o),
(380,379,c),
(401,436,o),
(437,475,o),
(477,482,c),
(477,551,l),
(-14,551,l)
);
},
{
closed = 1;
nodes = (
(559,689,l),
(875,689,l),
(875,551,l),
(697,551,l)
);
}
);
width = 860;
}
);
unicode = 2401;
},
{
color = 3;
glyphname = "eCandra-deva";
lastChange = "2023-01-27 11:07:39 +0000";
layers = (
{
anchors = (
{
name = top;
pos = (363,689);
}
);
background = {
shapes = (
{
closed = 1;
nodes = (
(549,447,ls),
(549,386,o),
(498,363,o),
(439,336,c),
(439,320,l),
(528,260,l),
(588,281,o),
(671,334,o),
(671,471,cs),
(671,792,l),
(809,792,l),
(809,813,l),
(766,896,l),
(-42,896,l),
(-42,873,l),
(0,792,l),
(125,792,l),
(125,384,ls),
(125,319,o),
(141,291,o),
(275,203,cs),
(770,-131,l),
(696,-212,l),
(696,-214,l),
(707,-242,o),
(738,-278,o),
(789,-278,cs),
(844,-278,o),
(891,-248,o),
(891,-187,cs),
(891,-140,o),
(860,-101,o),
(728,-14,cs),
(309,271,ls),
(257,308,o),
(248,330,o),
(248,370,cs),
(248,792,l),
(549,792,l)
);
},
{
closed = 1;
nodes = (
(597,1264,l),
(559,1203,o),
(475,1126,o),
(354,1126,cs),
(263,1126,o),
(192,1194,o),
(135,1274,c),
(89,1255,l),
(143,1160,o),
(253,1036,o),
(406,1036,cs),
(540,1036,o),
(621,1099,o),
(686,1180,c)
);
}
);
};
layerId = "E777F328-EA17-4AE7-9EBA-8002E537BA4F";
name = Light;
shapes = (
{
alignment = -1;
ref = "e-deva";
},
{
alignment = -1;
pos = (569,0);
ref = "eCandraMatra-deva";
}
);
width = 537;
},
{
anchors = (
{
name = top;
pos = (400,689);
}
);
background = {
shapes = (
{
closed = 1;
nodes = (
(549,447,ls),
(549,386,o),
(498,363,o),
(439,336,c),
(439,320,l),
(528,260,l),
(588,281,o),
(671,334,o),
(671,471,cs),
(671,792,l),
(809,792,l),
(809,813,l),
(766,896,l),
(-42,896,l),
(-42,873,l),
(0,792,l),
(125,792,l),
(125,384,ls),
(125,319,o),
(141,291,o),
(275,203,cs),
(770,-131,l),
(696,-212,l),
(696,-214,l),
(707,-242,o),
(738,-278,o),
(789,-278,cs),
(844,-278,o),
(891,-248,o),
(891,-187,cs),
(891,-140,o),
(860,-101,o),
(728,-14,cs),
(309,271,ls),
(257,308,o),
(248,330,o),
(248,370,cs),
(248,792,l),
(549,792,l)
);
},
{
closed = 1;
nodes = (
(597,1264,l),
(559,1203,o),
(475,1126,o),
(354,1126,cs),
(263,1126,o),
(192,1194,o),
(135,1274,c),
(89,1255,l),
(143,1160,o),
(253,1036,o),
(406,1036,cs),
(540,1036,o),
(621,1099,o),
(686,1180,c)
);
}
);
};
layerId = "39185045-6A8C-415A-8312-7B8F11386A4C";
name = Regular;
shapes = (
{
ref = "e-deva";
},
{
alignment = -1;
pos = (582,0);
ref = "eCandraMatra-deva";
}
);
width = 608;
}
);
metricRight = "=e-deva";
unicode = 2317;
},
{
color = 3;
glyphname = "eShort-deva";
lastChange = "2023-01-27 11:07:39 +0000";
layers = (
{
anchors = (
{
name = top;
pos = (361,689);
}
);
background = {
shapes = (
{
closed = 1;
nodes = (
(-23,1291,o),
(-36,1249,o),
(-36,1209,cs),
(-36,1150,o),
(50,1067,o),
(222,1067,cs),
(303,1067,o),
(384,1083,o),
(437,1083,cs),
(558,1083,o),
(592,993,o),
(592,914,cs),
(592,894,o),
(586,876,o),
(577,860,c),
(640,857,l),
(646,878,o),
(653,911,o),
(653,936,cs),
(653,985,o),
(630,1038,o),
(594,1083,cs),
(561,1124,o),
(494,1151,o),
(423,1151,cs),
(375,1151,o),
(207,1135,o),
(156,1135,cs),
(81,1135,o),
(25,1171,o),
(25,1230,cs),
(25,1251,o),
(32,1276,o),
(40,1306,c),
(-14,1315,l)
);
},
{
closed = 1;
nodes = (
(150,833,l),
(150,384,ls),
(150,324,o),
(176,280,o),
(275,212,cs),
(774,-125,l),
(704,-203,l),
(704,-205,l),
(717,-231,o),
(749,-264,o),
(789,-264,cs),
(835,-264,o),
(875,-236,o),
(878,-191,cs),
(880,-141,o),
(847,-109,o),
(728,-29,cs),
(309,257,ls),
(253,294,o),
(225,324,o),
(225,370,cs),
(225,833,l)
);
},
{
closed = 1;
nodes = (
(572,833,l),
(572,452,ls),
(572,391,o),
(520,356,o),
(463,330,c),
(463,319,l),
(520,278,l),
(573,296,o),
(646,345,o),
(646,467,cs),
(646,833,l)
);
},
{
closed = 1;
nodes = (
(-40,873,l),
(-40,860,l),
(-17,813,l),
(783,813,l),
(783,828,l),
(758,873,l)
);
}
);
};
layerId = "E777F328-EA17-4AE7-9EBA-8002E537BA4F";
name = Light;
shapes = (
{
alignment = -1;
ref = "e-deva";
},
{
alignment = -1;
pos = (569,0);
ref = "eShortMatra-deva";
}
);
width = 537;
},
{
anchors = (
{
name = top;
pos = (400,689);
}
);
layerId = "39185045-6A8C-415A-8312-7B8F11386A4C";
name = Regular;
shapes = (
{
alignment = -1;
ref = "e-deva";
},
{
alignment = -1;
pos = (643,0);
ref = "eShortMatra-deva";
}
);
width = 608;
}
);
unicode = 2318;
},
{
color = 3;
glyphname = "e-deva";
lastChange = "2023-01-27 11:07:39 +0000";
layers = (
{
anchors = (
{
name = top;
pos = (361,689);
}
);
layerId = "E777F328-EA17-4AE7-9EBA-8002E537BA4F";
name = Light;
shapes = (
{
closed = 1;
nodes = (
(167,620,l),
(97,535,o),
(59,439,o),
(59,338,cs),
(59,229,o),
(122,121,o),
(251,21,cs),
(379,-80,o),
(511,-131,o),
(651,-131,cs),
(675,-131,o),
(694,-122,o),
(716,-108,c),
(662,-59,l),
(647,-77,o),
(623,-89,o),
(595,-89,cs),
(394,-89,o),
(120,115,o),
(120,275,cs),
(120,409,o),
(166,535,o),
(251,620,c),
(363,620,l),
(418,551,o),
(443,480,o),
(443,434,cs),
(443,360,o),
(391,296,o),
(319,296,cs),
(297,296,o),
(271,314,o),
(249,346,c),
(236,328,l),
(268,269,o),
(319,234,o),
(368,234,cs),
(432,234,o),
(491,300,o),
(491,372,cs),
(491,446,o),
(464,533,o),
(395,620,cs),
(340,689,l),
(-14,689,l),
(-14,620,l)
);
},
{
closed = 1;
nodes = (
(551,620,l),
(551,689,l),
(381,689,l),
(437,620,l)
);
}
);
width = 537;
},
{
anchors = (
{
name = top;
pos = (400,689);
}
);
layerId = "39185045-6A8C-415A-8312-7B8F11386A4C";
name = Regular;
shapes = (
{
closed = 1;
nodes = (
(131,551,l),
(79,487,o),
(49,419,o),
(49,351,cs),
(49,251,o),
(125,138,o),
(281,14,cs),
(437,-110,o),
(577,-172,o),
(702,-172,cs),
(743,-172,o),
(780,-164,o),
(806,-145,c),
(689,-28,l),
(663,-50,o),
(625,-62,o),
(585,-62,cs),
(411,-62,o),
(200,103,o),
(200,248,cs),
(200,372,o),
(242,483,o),
(310,551,c),
(406,551,l),
(427,523,o),
(441,491,o),
(441,468,cs),
(441,397,o),
(384,338,o),
(317,338,cs),
(300,338,o),
(284,345,o),
(275,358,c),
(248,338,l),
(297,248,o),
(366,186,o),
(420,186,cs),
(496,186,o),
(564,260,o),
(564,338,cs),
(564,391,o),
(536,462,o),
(468,551,cs),
(365,689,l),
(-14,689,l),
(-14,551,l)
);
},
{
closed = 1;
nodes = (
(621,551,l),
(621,689,l),
(434,689,l),
(537,551,l)
);
}
);
width = 608;
}
);
unicode = 2319;
},
{
color = 3;
glyphname = "ai-deva";
lastChange = "2023-01-27 11:07:39 +0000";
layers = (
{
background = {
shapes = (
{
closed = 1;
nodes = (
(370,873,l),
(370,860,l),
(394,813,l),
(572,813,l),
(570,18,l),
(630,-15,l),
(646,-15,l),
(646,813,l),
(806,813,l),
(806,828,l),
(779,873,l)
);
},
{
closed = 1;
nodes = (
(176,1391,o),
(141,1364,o),
(141,1317,cs),
(141,1280,o),
(164,1247,o),
(183,1231,c),
(340,1278,l),
(364,1263,o),
(423,1168,o),
(496,1030,cs),
(511,1002,o),
(551,919,o),
(572,871,c),
(640,871,l),
(614,931,o),
(554,1047,o),
(530,1094,cs),
(446,1257,o),
(361,1391,o),
(227,1391,cs)
);
}
);
};
layerId = "E777F328-EA17-4AE7-9EBA-8002E537BA4F";
name = Light;
shapes = (
{
alignment = -1;
ref = "e-deva";
},
{
alignment = -1;
pos = (529,-76);
ref = "eMatra-deva";
}
);
width = 483;
},
{
background = {
shapes = (
{
closed = 1;
nodes = (
(549,447,ls),
(549,386,o),
(498,363,o),
(439,336,c),
(439,320,l),
(528,260,l),
(588,281,o),
(671,334,o),
(671,471,cs),
(671,792,l),
(809,792,l),
(809,813,l),
(766,896,l),
(640,896,l),
(614,952,o),
(564,1053,o),
(538,1103,cs),
(451,1273,o),
(361,1402,o),
(226,1402,cs),
(167,1402,o),
(128,1372,o),
(128,1317,cs),
(128,1278,o),
(150,1239,o),
(176,1219,c),
(340,1268,l),
(370,1253,o),
(426,1163,o),
(496,1037,cs),
(508,1016,o),
(545,940,o),
(566,896,c),
(-42,896,l),
(-42,873,l),
(0,792,l),
(125,792,l),
(125,384,ls),
(125,319,o),
(141,291,o),
(275,203,cs),
(770,-131,l),
(696,-212,l),
(696,-214,l),
(707,-242,o),
(738,-278,o),
(789,-278,cs),
(844,-278,o),
(891,-248,o),
(891,-187,cs),
(891,-140,o),
(860,-101,o),
(728,-14,cs),
(309,271,ls),
(257,308,o),
(248,330,o),
(248,370,cs),
(248,792,l),
(549,792,l)
);
}
);
};
layerId = "39185045-6A8C-415A-8312-7B8F11386A4C";
name = Regular;
shapes = (
{
alignment = -1;
ref = "e-deva";
},
{
alignment = -1;
pos = (599,-76);
ref = "eMatra-deva";
}
);
width = 547;
}
);
unicode = 2320;
},
{
color = 3;
glyphname = "oCandra-deva";
lastChange = "2023-01-27 11:07:39 +0000";
layers = (
{
background = {
shapes = (
{
closed = 1;
nodes = (
(975,873,l),
(975,860,l),
(998,813,l),
(1175,813,l),
(1175,18,l),
(1234,-15,l),
(1251,-15,l),
(1251,813,l),
(1410,813,l),
(1410,828,l),
(1384,873,l)
);
},
{
closed = 1;
nodes = (
(1414,1203,l),
(1373,1150,o),
(1285,1080,o),
(1160,1081,cs),
(1071,1083,o),
(1000,1145,o),
(943,1219,c),
(912,1196,l),
(963,1119,o),
(1060,1013,o),
(1202,1013,cs),
(1329,1011,o),
(1406,1074,o),
(1469,1152,c)
);
}
);
};
layerId = "E777F328-EA17-4AE7-9EBA-8002E537BA4F";
name = Light;
shapes = (
{
alignment = -1;
ref = "aa-deva";
},
{
alignment = -1;
pos = (1037,-76);
ref = "eCandraMatra-deva";
}
);
width = 850;
},
{
background = {
shapes = (
{
closed = 1;
nodes = (
(1313,-2,l),
(1411,-59,l),
(1432,-59,l),
(1432,792,l),
(1584,792,l),
(1584,813,l),
(1540,896,l),
(643,896,l),
(643,873,l),
(687,792,l),
(888,792,l),
(888,451,l),
(851,427,o),
(811,408,o),
(751,408,cs),
(678,408,o),
(595,441,o),
(547,467,c),
(591,508,o),
(621,577,o),
(621,635,cs),
(621,768,o),
(463,915,o),
(353,919,cs),
(302,919,o),
(183,868,o),
(132,830,c),
(196,711,l),
(253,762,o),
(322,807,o),
(400,807,cs),
(471,807,o),
(535,749,o),
(535,685,cs),
(535,620,o),
(496,585,o),
(452,561,cs),
(402,535,o),
(320,526,o),
(271,523,c),
(257,486,l),
(304,398,l),
(347,403,o),
(434,418,o),
(489,436,c),
(532,400,o),
(549,340,o),
(549,289,cs),
(549,207,o),
(482,135,o),
(385,135,cs),
(257,135,o),
(128,275,o),
(59,392,c),
(11,361,l),
(79,238,o),
(211,25,o),
(437,25,cs),
(570,25,o),
(658,106,o),
(658,238,cs),
(658,288,o),
(646,330,o),
(626,368,c),
(634,372,l),
(686,330,o),
(740,303,o),
(806,303,cs),
(839,303,o),
(868,310,o),
(886,319,c),
(888,319,l),
(888,-2,l),
(987,-59,l),
(1009,-59,l),
(1009,792,l),
(1313,792,l)
);
},
{
closed = 1;
nodes = (
(1580,1264,l),
(1541,1203,o),
(1457,1126,o),
(1337,1126,cs),
(1247,1126,o),
(1174,1194,o),
(1117,1274,c),
(1073,1255,l),
(1128,1160,o),
(1236,1036,o),
(1390,1036,cs),
(1524,1036,o),
(1604,1099,o),
(1668,1180,c)
);
}
);
};
layerId = "39185045-6A8C-415A-8312-7B8F11386A4C";
name = Regular;
shapes = (
{
ref = "aa-deva";
},
{
alignment = -1;
pos = (1249,0);
ref = "eCandraMatra-deva";
}
);
width = 1179;
}
);
metricLeft = "=aa-deva";
metricRight = "=aa-deva";
unicode = 2321;
},
{
color = 3;
glyphname = "oShort-deva";
lastChange = "2023-01-27 11:07:39 +0000";
layers = (
{
background = {
shapes = (
{
closed = 1;
nodes = (
(582,1291,o),
(569,1249,o),
(569,1209,cs),
(569,1150,o),
(654,1067,o),
(826,1067,cs),
(908,1067,o),
(988,1083,o),
(1041,1083,cs),
(1163,1083,o),
(1196,993,o),
(1196,914,cs),
(1196,894,o),
(1191,876,o),
(1181,860,c),
(1245,857,l),
(1251,878,o),
(1257,911,o),
(1257,936,cs),
(1257,985,o),
(1234,1038,o),
(1198,1083,cs),
(1166,1124,o),
(1099,1151,o),
(1028,1151,cs),
(980,1151,o),
(811,1135,o),
(760,1135,cs),
(686,1135,o),
(630,1171,o),
(630,1230,cs),
(630,1251,o),
(635,1276,o),
(644,1306,c),
(591,1315,l)
);
},
{
closed = 1;
nodes = (
(386,467,l),
(443,425,o),
(508,354,o),
(508,278,cs),
(508,189,o),
(441,131,o),
(346,131,cs),
(213,131,o),
(97,283,o),
(41,385,c),
(0,360,l),
(57,255,o),
(171,60,o),
(379,60,cs),
(492,60,o),
(577,147,o),
(577,248,cs),
(577,358,o),
(494,447,o),
(428,500,c)
);
},
{
closed = 1;
nodes = (
(263,899,o),
(160,857,o),
(114,826,c),
(153,752,l),
(203,792,o),
(271,830,o),
(335,830,c),
(397,830,o),
(482,766,o),
(485,702,cs),
(487,635,o),
(458,591,o),
(418,563,cs),
(366,527,o),
(296,515,o),
(239,509,c),
(234,496,l),
(264,441,l),
(320,441,o),
(380,452,o),
(430,475,cs),
(501,508,o),
(554,563,o),
(554,649,cs),
(554,785,o),
(431,899,o),
(306,899,cs)
);
},
{
closed = 1;
nodes = (
(738,483,o),
(681,455,o),
(608,455,cs),
(545,455,o),
(483,472,o),
(446,485,c),
(449,441,l),
(487,418,l),
(508,427,l),
(533,416,o),
(586,385,o),
(654,385,cs),
(707,385,o),
(756,413,o),
(782,430,c),
(785,523,l)
);
},
{
closed = 1;
nodes = (
(782,840,l),
(780,486,l),
(698,427,l),
(780,427,l),
(780,18,l),
(840,-15,l),
(857,-15,l),
(857,840,l)
);
},
{
closed = 1;
nodes = (
(1175,840,l),
(1175,18,l),
(1234,-15,l),
(1251,-15,l),
(1251,840,l)
);
},
{
closed = 1;
nodes = (
(580,873,l),
(580,860,l),
(603,813,l),
(1410,813,l),
(1410,828,l),
(1385,873,l)
);
}
);
};
layerId = "E777F328-EA17-4AE7-9EBA-8002E537BA4F";
name = Light;
shapes = (
{
alignment = -1;
ref = "a-deva";
},
{
alignment = -1;
pos = (743,0);
ref = "aaMatra-deva";
},
{
alignment = -1;
pos = (1049,0);
ref = "eShortMatra-deva";
}
);
width = 944;
},
{
layerId = "39185045-6A8C-415A-8312-7B8F11386A4C";
name = Regular;
shapes = (
{
alignment = -1;
ref = "a-deva";
},
{
alignment = -1;
pos = (933,0);
ref = "aaMatra-deva";
},
{
alignment = -1;
pos = (1287,0);
ref = "eShortMatra-deva";
}
);
width = 1179;
}
);
unicode = 2322;
},
{
color = 3;
glyphname = "o-deva";
lastChange = "2023-01-27 11:07:39 +0000";
layers = (
{
anchors = (
{
name = top;
pos = (869,689);
}
);
background = {
shapes = (
{
closed = 1;
nodes = (
(975,873,l),
(975,860,l),
(998,813,l),
(1175,813,l),
(1175,18,l),
(1234,-15,l),
(1251,-15,l),
(1251,813,l),
(1410,813,l),
(1410,828,l),
(1384,873,l)
);
},
{
closed = 1;
nodes = (
(779,1391,o),
(747,1364,o),
(747,1317,cs),
(747,1280,o),
(769,1247,o),
(788,1231,c),
(945,1278,l),
(968,1263,o),
(1028,1168,o),
(1100,1030,cs),
(1115,1002,o),
(1156,919,o),
(1175,871,c),
(1245,871,l),
(1219,931,o),
(1159,1047,o),
(1135,1094,cs),
(1049,1257,o),
(966,1391,o),
(832,1391,cs)
);
}
);
};
layerId = "E777F328-EA17-4AE7-9EBA-8002E537BA4F";
name = Light;
shapes = (
{
alignment = -1;
ref = "aa-deva";
},
{
alignment = -1;
pos = (1037,-76);
ref = "eMatra-deva";
}
);
width = 850;
},
{
anchors = (
{
name = top;
pos = (1073,689);
}
);
background = {
shapes = (
{
closed = 1;
nodes = (
(1313,-2,l),
(1411,-59,l),
(1432,-59,l),
(1432,792,l),
(1584,792,l),
(1584,813,l),
(1540,896,l),
(1381,896,l),
(1356,952,o),
(1308,1053,o),
(1281,1103,cs),
(1191,1273,o),
(1102,1402,o),
(968,1402,cs),
(908,1402,o),
(869,1372,o),
(869,1317,cs),
(869,1278,o),
(892,1239,o),
(919,1219,c),
(1083,1268,l),
(1112,1253,o),
(1166,1163,o),
(1238,1037,cs),
(1251,1016,o),
(1288,940,o),
(1309,896,c),
(643,896,l),
(643,873,l),
(687,792,l),
(888,792,l),
(888,451,l),
(851,427,o),
(811,408,o),
(751,408,cs),
(678,408,o),
(595,441,o),
(547,467,c),
(591,508,o),
(621,577,o),
(621,635,cs),
(621,768,o),
(463,915,o),
(353,919,cs),
(302,919,o),
(183,868,o),
(132,830,c),
(196,711,l),
(253,762,o),
(322,807,o),
(400,807,cs),
(471,807,o),
(535,749,o),
(535,685,cs),
(535,620,o),
(496,585,o),
(452,561,cs),
(402,535,o),
(320,526,o),
(271,523,c),
(257,486,l),
(304,398,l),
(347,403,o),
(434,418,o),
(489,436,c),
(532,400,o),
(549,340,o),
(549,289,cs),
(549,207,o),
(482,135,o),
(385,135,cs),
(257,135,o),
(128,275,o),
(59,392,c),
(11,361,l),
(79,238,o),
(211,25,o),
(437,25,cs),
(570,25,o),
(658,106,o),
(658,238,cs),
(658,288,o),
(646,330,o),
(626,368,c),
(634,372,l),
(686,330,o),
(740,303,o),
(806,303,cs),
(839,303,o),
(868,310,o),
(886,319,c),
(888,319,l),
(888,-2,l),
(987,-59,l),
(1009,-59,l),
(1009,792,l),
(1313,792,l)
);
}
);
};
layerId = "39185045-6A8C-415A-8312-7B8F11386A4C";
name = Regular;
shapes = (
{
alignment = -1;
ref = "aa-deva";
},
{
alignment = -1;
pos = (1273,-76);
ref = "eMatra-deva";
}
);
width = 1061;
}
);
unicode = 2323;
},
{
color = 3;
glyphname = "au-deva";
lastChange = "2023-01-27 11:07:39 +0000";
layers = (
{
anchors = (
{
name = top;
pos = (924,689);
}
);
background = {
shapes = (
{
closed = 1;
nodes = (
(975,873,l),
(975,860,l),
(998,813,l),
(1175,813,l),
(1175,18,l),
(1234,-15,l),
(1251,-15,l),
(1251,813,l),
(1410,813,l),
(1410,828,l),
(1384,873,l)
);
},
{
closed = 1;
nodes = (
(778,1186,o),
(747,1160,o),
(747,1119,cs),
(747,1085,o),
(766,1058,o),
(779,1045,c),
(780,1045,l),
(952,1073,l),
(983,1058,o),
(1060,966,o),
(1160,832,c),
(1196,835,l),
(1091,1013,o),
(947,1186,o),
(826,1186,cs)
);
},
{
closed = 1;
nodes = (
(798,1428,o),
(766,1400,o),
(766,1354,cs),
(766,1317,o),
(788,1283,o),
(807,1268,c),
(808,1268,l),
(964,1315,l),
(988,1300,o),
(1052,1206,o),
(1126,1067,cs),
(1147,1029,o),
(1196,912,o),
(1223,845,c),
(1267,845,l),
(1238,921,o),
(1180,1073,o),
(1151,1131,cs),
(1071,1292,o),
(985,1428,o),
(851,1428,cs)
);
}
);
};
layerId = "E777F328-EA17-4AE7-9EBA-8002E537BA4F";
name = Light;
shapes = (
{
alignment = -1;
ref = "aa-deva";
},
{
alignment = -1;
pos = (1037,-76);
ref = "aiMatra-deva";
}
);
width = 850;
},
{
anchors = (
{
name = top;
pos = (1410,896);
}
);
background = {
shapes = (
{
closed = 1;
nodes = (
(1313,-2,l),
(1411,-59,l),
(1432,-59,l),
(1432,792,l),
(1584,792,l),
(1584,813,l),
(1540,896,l),
(1410,896,l),
(1388,961,o),
(1346,1053,o),
(1324,1103,cs),
(1251,1278,o),
(1152,1439,o),
(993,1439,cs),
(932,1439,o),
(896,1409,o),
(896,1354,cs),
(896,1317,o),
(919,1276,o),
(943,1257,c),
(946,1257,l),
(1131,1309,l),
(1166,1276,o),
(1239,1157,o),
(1301,1031,cs),
(1313,1007,o),
(1341,941,o),
(1362,896,c),
(1319,896,l),
(1221,1047,o),
(1104,1196,o),
(968,1196,cs),
(914,1196,o),
(875,1166,o),
(875,1117,cs),
(875,1092,o),
(892,1058,o),
(919,1038,c),
(921,1038,l),
(1119,1064,l),
(1138,1053,o),
(1223,951,o),
(1267,896,c),
(643,896,l),
(643,873,l),
(687,792,l),
(888,792,l),
(888,451,l),
(851,427,o),
(811,408,o),
(751,408,cs),
(678,408,o),
(595,441,o),
(547,467,c),
(591,508,o),
(621,577,o),
(621,635,cs),
(621,768,o),
(463,915,o),
(353,919,cs),
(302,919,o),
(183,868,o),
(132,830,c),
(196,711,l),
(253,762,o),
(322,807,o),
(400,807,cs),
(471,807,o),
(535,749,o),
(535,685,cs),
(535,620,o),
(496,585,o),
(452,561,cs),
(402,535,o),
(320,526,o),
(271,523,c),
(257,486,l),
(304,398,l),
(347,403,o),
(434,418,o),
(489,436,c),
(532,400,o),
(549,340,o),
(549,289,cs),
(549,207,o),
(482,135,o),
(385,135,cs),
(257,135,o),
(128,275,o),
(59,392,c),
(11,361,l),
(79,238,o),
(211,25,o),
(437,25,cs),
(570,25,o),
(658,106,o),
(658,238,cs),
(658,288,o),
(646,330,o),
(626,368,c),
(634,372,l),
(686,330,o),
(740,303,o),
(806,303,cs),
(839,303,o),
(868,310,o),
(886,319,c),
(888,319,l),
(888,-2,l),
(987,-59,l),
(1009,-59,l),
(1009,792,l),
(1313,792,l)
);
}
);
};
layerId = "39185045-6A8C-415A-8312-7B8F11386A4C";
name = Regular;
shapes = (
{
alignment = -1;
ref = "aa-deva";
},
{
alignment = -1;
pos = (1273,-76);
ref = "aiMatra-deva";
}
);
width = 1061;
}
);
unicode = 2324;
},
{
color = 3;
glyphname = "ue-deva";
lastChange = "2023-01-27 11:07:39 +0000";
layers = (
{
background = {
shapes = (
{
closed = 1;
nodes = (
(1066,792,l),
(1066,813,l),
(1022,896,l),
(548,896,l),
(548,873,l),
(592,792,l),
(793,792,l),
(793,451,l),
(756,427,o),
(716,408,o),
(655,408,cs),
(582,408,o),
(500,441,o),
(452,467,c),
(496,508,o),
(526,577,o),
(526,635,cs),
(526,768,o),
(368,915,o),
(257,919,cs),
(207,919,o),
(88,868,o),
(37,830,c),
(101,711,l),
(157,762,o),
(227,807,o),
(304,807,cs),
(375,807,o),
(439,749,o),
(439,685,cs),
(439,620,o),
(401,585,o),
(356,561,cs),
(308,535,o),
(226,526,o),
(176,523,c),
(161,486,l),
(209,398,l),
(253,403,o),
(339,418,o),
(394,436,c),
(437,400,o),
(455,340,o),
(455,289,cs),
(455,207,o),
(386,135,o),
(291,135,cs),
(161,135,o),
(33,275,o),
(-37,392,c),
(-85,361,l),
(-17,238,o),
(115,25,o),
(341,25,cs),
(475,25,o),
(563,106,o),
(563,238,cs),
(563,288,o),
(551,330,o),
(532,368,c),
(538,372,l),
(591,330,o),
(644,303,o),
(711,303,cs),
(743,303,o),
(773,310,o),
(791,319,c),
(793,319,l),
(793,-2,l),
(892,-59,l),
(914,-59,l),
(914,792,l)
);
},
{
closed = 1;
nodes = (
(356,-203,o),
(280,-147,o),
(230,-85,c),
(177,-126,l),
(231,-221,o),
(347,-299,o),
(478,-299,c),
(608,-299,o),
(723,-221,o),
(777,-126,c),
(725,-85,l),
(676,-147,o),
(599,-203,o),
(478,-203,c)
);
}
);
};
layerId = "E777F328-EA17-4AE7-9EBA-8002E537BA4F";
name = Light;
shapes = (
{
ref = "a-deva";
},
{
alignment = -1;
pos = (558,-69);
ref = uni0956;
}
);
width = 743;
},
{
background = {
shapes = (
{
closed = 1;
nodes = (
(1160,792,l),
(1160,813,l),
(1117,896,l),
(643,896,l),
(643,873,l),
(687,792,l),
(888,792,l),
(888,451,l),
(851,427,o),
(811,408,o),
(751,408,cs),
(678,408,o),
(595,441,o),
(547,467,c),
(591,508,o),
(621,577,o),
(621,635,cs),
(621,768,o),
(463,915,o),
(353,919,cs),
(302,919,o),
(183,868,o),
(132,830,c),
(196,711,l),
(253,762,o),
(322,807,o),
(400,807,cs),
(471,807,o),
(535,749,o),
(535,685,cs),
(535,620,o),
(496,585,o),
(452,561,cs),
(402,535,o),
(320,526,o),
(271,523,c),
(257,486,l),
(304,398,l),
(347,403,o),
(434,418,o),
(489,436,c),
(532,400,o),
(549,340,o),
(549,289,cs),
(549,207,o),
(482,135,o),
(385,135,cs),
(257,135,o),
(128,275,o),
(59,392,c),
(11,361,l),
(79,238,o),
(211,25,o),
(437,25,cs),
(570,25,o),
(658,106,o),
(658,238,cs),
(658,288,o),
(646,330,o),
(626,368,c),
(634,372,l),
(686,330,o),
(740,303,o),
(806,303,cs),
(839,303,o),
(868,310,o),
(886,319,c),
(888,319,l),
(888,-2,l),
(987,-59,l),
(1009,-59,l),
(1009,792,l)
);
},
{
closed = 1;
nodes = (
(452,-203,o),
(375,-147,o),
(325,-85,c),
(273,-126,l),
(326,-221,o),
(441,-299,o),
(573,-299,c),
(702,-299,o),
(819,-221,o),
(871,-126,c),
(821,-85,l),
(771,-147,o),
(694,-203,o),
(573,-203,c)
);
}
);
};
layerId = "39185045-6A8C-415A-8312-7B8F11386A4C";
name = Regular;
shapes = (
{
ref = "a-deva";
},
{
alignment = -1;
pos = (730,-69);
ref = uni0956;
}
);
width = 933;
}
);
unicode = 2422;
},
{
color = 3;
glyphname = "uue-deva";
lastChange = "2023-01-27 11:07:39 +0000";
layers = (
{
layerId = "E777F328-EA17-4AE7-9EBA-8002E537BA4F";
name = Light;
shapes = (
{
alignment = -1;
ref = "a-deva";
},
{
alignment = -1;
pos = (558,-69);
ref = uni0957;
}
);
width = 669;
},
{
background = {
shapes = (
{
closed = 1;
nodes = (
(1160,792,l),
(1160,813,l),
(1117,896,l),
(643,896,l),
(643,873,l),
(687,792,l),
(888,792,l),
(888,451,l),
(851,427,o),
(811,408,o),
(751,408,cs),
(678,408,o),
(595,441,o),
(547,467,c),
(591,508,o),
(621,577,o),
(621,635,cs),
(621,768,o),
(463,915,o),
(353,919,cs),
(302,919,o),
(183,868,o),
(132,830,c),
(196,711,l),
(253,762,o),
(322,807,o),
(400,807,cs),
(471,807,o),
(535,749,o),
(535,685,cs),
(535,620,o),
(496,585,o),
(452,561,cs),
(402,535,o),
(320,526,o),
(271,523,c),
(257,486,l),
(304,398,l),
(347,403,o),
(434,418,o),
(489,436,c),
(532,400,o),
(549,340,o),
(549,289,cs),
(549,207,o),
(482,135,o),
(385,135,cs),
(257,135,o),
(128,275,o),
(59,392,c),
(11,361,l),
(79,238,o),
(211,25,o),
(437,25,cs),
(570,25,o),
(658,106,o),
(658,238,cs),
(658,288,o),
(646,330,o),
(626,368,c),
(634,372,l),
(686,330,o),
(740,303,o),
(806,303,cs),
(839,303,o),
(868,310,o),
(886,319,c),
(888,319,l),
(888,-2,l),
(987,-59,l),
(1009,-59,l),
(1009,792,l)
);
},
{
closed = 1;
nodes = (
(452,-203,o),
(375,-147,o),
(325,-85,c),
(273,-126,l),
(326,-221,o),
(441,-299,o),
(573,-299,c),
(702,-299,o),
(819,-221,o),
(871,-126,c),
(821,-85,l),
(771,-147,o),
(694,-203,o),
(573,-203,c)
);
},
{
closed = 1;
nodes = (
(452,-431,o),
(375,-375,o),
(325,-313,c),
(273,-355,l),
(326,-449,o),
(441,-527,o),
(573,-527,c),
(702,-527,o),
(819,-449,o),
(871,-355,c),
(821,-313,l),
(771,-375,o),
(694,-431,o),
(573,-431,c)
);
}
);
};
layerId = "39185045-6A8C-415A-8312-7B8F11386A4C";
name = Regular;
shapes = (
{
alignment = -1;
ref = "a-deva";
},
{
alignment = -1;
pos = (730,-69);
ref = uni0957;
}
);
width = 840;
}
);
unicode = 2423;
},
{
color = 3;
glyphname = "aaMatra-deva";
lastChange = "2023-01-27 11:07:39 +0000";
layers = (
{
anchors = (
{
name = bottom;
pos = (138,0);
},
{
name = top;
pos = (124,689);
}
);
layerId = "E777F328-EA17-4AE7-9EBA-8002E537BA4F";
name = Light;
shapes = (
{
closed = 1;
nodes = (
(104,620,l),
(104,166,ls),
(104,86,o),
(302,-55,o),
(420,-55,cs),
(439,-55,o),
(457,-46,o),
(475,-28,c),
(413,14,l),
(400,-4,o),
(381,-14,o),
(365,-14,cs),
(300,-14,o),
(172,69,o),
(172,117,cs),
(172,620,l),
(104,689,l),
(-14,689,l),
(-14,620,l)
);
},
{
closed = 1;
nodes = (
(289,620,l),
(289,689,l),
(145,689,l),
(213,620,l)
);
}
);
width = 275;
},
{
anchors = (
{
name = bottom;
pos = (169,0);
},
{
name = top;
pos = (140,689);
}
);
layerId = "39185045-6A8C-415A-8312-7B8F11386A4C";
name = Regular;
shapes = (
{
closed = 1;
nodes = (
(91,551,l),
(91,179,ls),
(91,83,o),
(340,-89,o),
(469,-89,cs),
(513,-89,o),
(551,-71,o),
(573,-41,c),
(441,34,l),
(421,8,o),
(397,-7,o),
(366,-7,cs),
(322,-7,o),
(242,48,o),
(242,83,cs),
(242,551,l),
(104,689,l),
(-14,689,l),
(-14,551,l)
);
},
{
closed = 1;
nodes = (
(353,551,l),
(353,689,l),
(174,689,l),
(311,551,l)
);
}
);
width = 339;
}
);
unicode = 2366;
},
{
color = 3;
glyphname = "iMatra-deva";
lastChange = "2023-01-27 11:07:39 +0000";
layers = (
{
anchors = (
{
name = iimatra;
pos = (572,689);
},
{
name = top;
pos = (606,689);
}
);
layerId = "E777F328-EA17-4AE7-9EBA-8002E537BA4F";
name = Light;
shapes = (
{
closed = 1;
nodes = (
(14,800,o),
(53,738,o),
(110,689,c),
(138,689,l),
(96,728,o),
(76,773,o),
(76,813,cs),
(76,876,o),
(124,936,o),
(234,936,cs),
(411,936,o),
(501,696,o),
(592,696,cs),
(611,696,o),
(639,712,o),
(661,737,c),
(620,785,l),
(606,763,o),
(586,751,o),
(572,751,cs),
(508,751,o),
(395,998,o),
(172,998,cs),
(80,998,o),
(14,930,o),
(14,860,cs)
);
},
{
closed = 1;
nodes = (
(104,620,l),
(104,166,ls),
(104,86,o),
(302,-55,o),
(420,-55,cs),
(439,-55,o),
(457,-46,o),
(475,-28,c),
(413,14,l),
(400,-4,o),
(381,-14,o),
(365,-14,cs),
(300,-14,o),
(172,69,o),
(172,117,cs),
(172,620,l),
(104,689,l),
(-14,689,l),
(-14,620,l)
);
},
{
closed = 1;
nodes = (
(289,620,l),
(289,689,l),
(145,689,l),
(213,620,l)
);
}
);
width = 275;
},
{
anchors = (
{
name = iimatra;
pos = (686,689);
},
{
name = top;
pos = (769,689);
}
);
layerId = "39185045-6A8C-415A-8312-7B8F11386A4C";
name = Regular;
shapes = (
{
closed = 1;
nodes = (
(-26,816,o),
(25,745,o),
(112,689,c),
(167,689,l),
(128,725,o),
(104,769,o),
(104,798,cs),
(104,862,o),
(186,915,o),
(284,915,cs),
(597,915,o),
(632,698,o),
(779,698,cs),
(815,698,o),
(850,716,o),
(876,752,c),
(752,832,l),
(747,824,o),
(733,814,o),
(715,814,cs),
(625,814,o),
(508,1033,o),
(181,1033,cs),
(68,1033,o),
(-26,967,o),
(-26,881,cs)
);
},
{
closed = 1;
nodes = (
(91,551,l),
(91,179,ls),
(91,83,o),
(340,-89,o),
(469,-89,cs),
(513,-89,o),
(551,-71,o),
(573,-41,c),
(441,34,l),
(421,8,o),
(397,-7,o),
(366,-7,cs),
(322,-7,o),
(242,48,o),
(242,83,cs),
(242,551,l),
(104,689,l),
(-14,689,l),
(-14,551,l)
);
},
{
closed = 1;
nodes = (
(353,551,l),
(353,689,l),
(174,689,l),
(311,551,l)
);
}
);
width = 339;
}
);
unicode = 2367;
},
{
color = 3;
glyphname = "iMatra_anusvara-deva";
lastChange = "2023-01-27 11:07:39 +0000";
layers = (
{
anchors = (
{
name = imatra;
pos = (572,689);
},
{
name = top;
pos = (606,689);
}
);
background = {
shapes = (
{
closed = 1;
nodes = (
(386,792,l),
(386,813,l),
(343,896,l),
(202,896,l),
(181,925,o),
(140,1016,o),
(140,1094,cs),
(140,1209,o),
(232,1265,o),
(349,1265,cs),
(523,1265,o),
(725,1108,o),
(921,941,c),
(958,991,l),
(773,1157,o),
(513,1374,o),
(300,1374,cs),
(128,1374,o),
(11,1283,o),
(11,1159,cs),
(11,1064,o),
(75,966,o),
(125,896,c),
(-79,896,l),
(-79,873,l),
(-36,792,l),
(114,792,l),
(114,-2,l),
(214,-59,l),
(237,-59,l),
(237,792,l)
);
},
{
closed = 1;
nodes = (
(1047,995,l),
(1151,1103,l),
(1045,1211,l),
(940,1102,l)
);
}
);
};
layerId = "E777F328-EA17-4AE7-9EBA-8002E537BA4F";
name = Light;
shapes = (
{
ref = "iMatra-deva";
},
{
alignment = -1;
pos = (758,-41);
ref = "anusvara-deva";
}
);
width = 275;
},
{
anchors = (
{
name = imatra;
pos = (686,689);
},
{
name = top;
pos = (762,689);
}
);
background = {
shapes = (
{
closed = 1;
nodes = (
(1083,995,l),
(1186,1103,l),
(1081,1211,l),
(975,1102,l)
);
}
);
};
layerId = "39185045-6A8C-415A-8312-7B8F11386A4C";
name = Regular;
shapes = (
{
alignment = -1;
ref = "iMatra-deva";
},
{
alignment = -1;
pos = (943,59);
ref = "anusvara-deva";
}
);
width = 423;
}
);
},
{
color = 3;
glyphname = "iMatra_reph-deva";
lastChange = "2023-01-27 11:07:39 +0000";
layers = (
{
anchors = (
{
name = iimatra;
pos = (572,689);
},
{
name = top;
pos = (606,689);
}
);
background = {
shapes = (
{
closed = 1;
nodes = (
(14,800,o),
(53,738,o),
(110,689,c),
(138,689,l),
(96,728,o),
(76,773,o),
(76,813,cs),
(76,876,o),
(124,936,o),
(234,936,cs),
(411,936,o),
(501,696,o),
(592,696,cs),
(611,696,o),
(639,712,o),
(661,737,c),
(620,785,l),
(606,763,o),
(586,751,o),
(572,751,cs),
(508,751,o),
(395,998,o),
(172,998,cs),
(80,998,o),
(14,930,o),
(14,860,cs)
);
},
{
closed = 1;
nodes = (
(104,620,l),
(104,166,ls),
(104,86,o),
(302,-55,o),
(420,-55,cs),
(439,-55,o),
(457,-46,o),
(475,-28,c),
(413,14,l),
(400,-4,o),
(381,-14,o),
(365,-14,cs),
(300,-14,o),
(172,69,o),
(172,117,cs),
(172,620,l),
(104,689,l),
(-14,689,l),
(-14,620,l)
);
},
{
closed = 1;
nodes = (
(289,620,l),
(289,689,l),
(145,689,l),
(213,620,l)
);
},
{
closed = 1;
nodes = (
(468,823,o),
(513,752,o),
(585,689,c),
(626,689,l),
(572,736,o),
(540,785,o),
(540,824,cs),
(540,875,o),
(585,932,o),
(630,932,cs),
(647,932,o),
(663,923,o),
(678,909,c),
(698,928,l),
(658,977,o),
(619,1004,o),
(586,1004,cs),
(532,1004,o),
(468,932,o),
(468,873,cs)
);
}
);
};
layerId = "E777F328-EA17-4AE7-9EBA-8002E537BA4F";
name = Light;
shapes = (
{
closed = 1;
nodes = (
(14,800,o),
(53,738,o),
(110,689,c),
(138,689,l),
(96,728,o),
(76,773,o),
(76,813,cs),
(76,876,o),
(124,936,o),
(234,936,cs),
(379,936,o),
(530,730,o),
(585,689,c),
(585,719,l),
(522,793,o),
(363,998,o),
(172,998,cs),
(80,998,o),
(14,930,o),
(14,860,cs)
);
},
{
closed = 1;
nodes = (
(104,620,l),
(104,166,ls),
(104,86,o),
(302,-55,o),
(420,-55,cs),
(439,-55,o),
(457,-46,o),
(475,-28,c),
(413,14,l),
(400,-4,o),
(381,-14,o),
(365,-14,cs),
(300,-14,o),
(172,69,o),
(172,117,cs),
(172,620,l),
(104,689,l),
(-14,689,l),
(-14,620,l)
);
},
{
closed = 1;
nodes = (
(289,620,l),
(289,689,l),
(145,689,l),
(213,620,l)
);
},
{
closed = 1;
nodes = (
(468,823,o),
(513,752,o),
(585,689,c),
(626,689,l),
(572,736,o),
(540,785,o),
(540,824,cs),
(540,875,o),
(585,932,o),
(630,932,cs),
(647,932,o),
(663,923,o),
(678,909,c),
(698,928,l),
(658,977,o),
(619,1004,o),
(586,1004,cs),
(532,1004,o),
(468,932,o),
(468,873,cs)
);
}
);
width = 275;
},
{
anchors = (
{
name = iimatra;
pos = (686,689);
},
{
name = top;
pos = (769,689);
}
);
background = {
shapes = (
{
closed = 1;
nodes = (
(584,830,o),
(641,751,o),
(734,689,c),
(803,689,l),
(756,723,o),
(725,775,o),
(725,830,cs),
(725,881,o),
(758,926,o),
(798,926,cs),
(819,926,o),
(839,917,o),
(852,899,c),
(887,928,l),
(842,988,o),
(783,1030,o),
(734,1030,cs),
(652,1030,o),
(584,969,o),
(584,899,cs)
);
}
);
};
layerId = "39185045-6A8C-415A-8312-7B8F11386A4C";
name = Regular;
shapes = (
{
closed = 1;
nodes = (
(-26,816,o),
(25,745,o),
(112,689,c),
(167,689,l),
(128,725,o),
(104,769,o),
(104,798,cs),
(104,862,o),
(186,915,o),
(284,915,cs),
(538,915,o),
(626,751,o),
(734,689,c),
(734,758,l),
(699,782,o),
(508,1033,o),
(181,1033,cs),
(68,1033,o),
(-26,967,o),
(-26,881,cs)
);
},
{
closed = 1;
nodes = (
(91,551,l),
(91,179,ls),
(91,83,o),
(340,-89,o),
(469,-89,cs),
(513,-89,o),
(551,-71,o),
(573,-41,c),
(441,34,l),
(421,8,o),
(397,-7,o),
(366,-7,cs),
(322,-7,o),
(242,48,o),
(242,83,cs),
(242,551,l),
(104,689,l),
(-14,689,l),
(-14,551,l)
);
},
{
closed = 1;
nodes = (
(353,551,l),
(353,689,l),
(174,689,l),
(311,551,l)
);
},
{
closed = 1;
nodes = (
(584,830,o),
(641,751,o),
(734,689,c),
(803,689,l),
(756,723,o),
(725,775,o),
(725,830,cs),
(725,881,o),
(758,926,o),
(798,926,cs),
(819,926,o),
(839,917,o),
(852,899,c),
(887,928,l),
(842,988,o),
(783,1030,o),
(734,1030,cs),
(652,1030,o),
(584,969,o),
(584,899,cs)
);
}
);
width = 339;
}
);
},
{
color = 3;
glyphname = "iMatra_reph_anusvara-deva";
lastChange = "2023-01-27 11:07:39 +0000";
layers = (
{
background = {
shapes = (
{
closed = 1;
nodes = (
(842,1430,o),
(747,1354,o),
(747,1247,cs),
(747,1141,o),
(813,1060,o),
(881,995,c),
(881,966,l),
(964,992,l),
(890,1049,o),
(815,1139,o),
(815,1226,cs),
(815,1313,o),
(885,1360,o),
(959,1360,cs),
(1018,1360,o),
(1064,1333,o),
(1106,1306,c),
(1136,1351,l),
(1084,1396,o),
(1014,1430,o),
(946,1430,cs)
);
},
{
closed = 1;
nodes = (
(905,1184,l),
(992,1097,l),
(1079,1184,l),
(992,1271,l)
);
}
);
};
layerId = "E777F328-EA17-4AE7-9EBA-8002E537BA4F";
name = Light;
shapes = (
{
alignment = -1;
ref = "iMatra_reph-deva";
},
{
alignment = -1;
pos = (818,-127);
ref = "anusvara-deva";
}
);
width = 275;
},
{
background = {
shapes = (
{
closed = 1;
nodes = (
(150,-2,l),
(251,-59,l),
(273,-59,l),
(273,792,l),
(423,792,l),
(423,813,l),
(379,896,l),
(237,896,l),
(217,925,o),
(176,1016,o),
(176,1094,cs),
(176,1209,o),
(268,1265,o),
(385,1265,cs),
(559,1265,o),
(762,1108,o),
(957,941,c),
(992,986,l),
(936,1037,o),
(869,1131,o),
(869,1211,cs),
(869,1301,o),
(925,1344,o),
(995,1344,cs),
(1057,1344,o),
(1128,1310,o),
(1157,1285,c),
(1194,1343,l),
(1135,1405,o),
(1051,1446,o),
(969,1446,cs),
(873,1446,o),
(754,1388,o),
(754,1263,cs),
(754,1230,o),
(770,1196,o),
(789,1168,c),
(785,1164,l),
(635,1281,o),
(478,1374,o),
(336,1374,cs),
(164,1374,o),
(48,1283,o),
(48,1159,cs),
(48,1064,o),
(110,966,o),
(161,896,c),
(-42,896,l),
(-42,873,l),
(0,792,l),
(150,792,l)
);
}
);
};
layerId = "39185045-6A8C-415A-8312-7B8F11386A4C";
name = Regular;
shapes = (
{
ref = "iMatra_reph-deva";
},
{
alignment = -1;
pos = (1026,-59);
ref = "anusvara-deva";
scale = (0.833,0.909);
}
);
width = 339;
}
);
},
{
color = 3;
glyphname = "iiMatra-deva";
lastChange = "2023-01-27 11:07:39 +0000";
layers = (
{
anchors = (
{
name = iimatra;
pos = (-151,689);
},
{
name = top;
pos = (289,689);
}
);
layerId = "E777F328-EA17-4AE7-9EBA-8002E537BA4F";
name = Light;
shapes = (
{
closed = 1;
nodes = (
(-268,792,o),
(-227,742,o),
(-166,696,c),
(-145,712,l),
(-183,745,o),
(-207,775,o),
(-207,798,cs),
(-207,852,o),
(-140,902,o),
(-83,902,cs),
(25,902,o),
(50,696,o),
(124,696,cs),
(146,696,o),
(168,707,o),
(186,730,c),
(151,778,l),
(141,764,o),
(131,751,o),
(117,751,cs),
(64,751,o),
(28,964,o),
(-124,964,cs),
(-194,964,o),
(-268,900,o),
(-268,840,cs)
);
},
{
closed = 1;
nodes = (
(104,620,l),
(104,166,ls),
(104,86,o),
(302,-55,o),
(420,-55,cs),
(439,-55,o),
(457,-46,o),
(475,-28,c),
(413,14,l),
(400,-4,o),
(381,-14,o),
(365,-14,cs),
(300,-14,o),
(172,69,o),
(172,117,cs),
(172,620,l),
(104,689,l),
(-14,689,l),
(-14,620,l)
);
},
{
closed = 1;
nodes = (
(289,620,l),
(289,689,l),
(145,689,l),
(213,620,l)
);
}
);
width = 275;
},
{
anchors = (
{
name = iimatra;
pos = (-179,689);
},
{
name = top;
pos = (353,689);
}
);
layerId = "39185045-6A8C-415A-8312-7B8F11386A4C";
name = Regular;
shapes = (
{
closed = 1;
nodes = (
(-345,823,o),
(-294,752,o),
(-213,696,c),
(-171,725,l),
(-198,754,o),
(-213,789,o),
(-213,816,cs),
(-213,869,o),
(-168,909,o),
(-115,909,cs),
(8,909,o),
(62,696,o),
(154,696,cs),
(189,696,o),
(226,711,o),
(249,737,c),
(140,844,l),
(125,828,o),
(115,819,o),
(104,819,cs),
(57,819,o),
(5,1026,o),
(-187,1026,cs),
(-275,1026,o),
(-345,958,o),
(-345,881,cs)
);
},
{
closed = 1;
nodes = (
(91,551,l),
(91,179,ls),
(91,83,o),
(340,-89,o),
(469,-89,cs),
(513,-89,o),
(551,-71,o),
(573,-41,c),
(441,34,l),
(421,8,o),
(397,-7,o),
(366,-7,cs),
(322,-7,o),
(242,48,o),
(242,83,cs),
(242,551,l),
(104,689,l),
(-14,689,l),
(-14,551,l)
);
},
{
closed = 1;
nodes = (
(353,551,l),
(353,689,l),
(174,689,l),
(311,551,l)
);
}
);
width = 339;
}
);
unicode = 2368;
},
{
color = 3;
glyphname = "iiMatra_anusvara-deva";
lastChange = "2023-01-27 11:07:39 +0000";
layers = (
{
anchors = (
{
name = iimatra;
pos = (-151,689);
}
);
background = {
shapes = (
{
closed = 1;
nodes = (
(328,993,l),
(434,1102,l),
(326,1209,l),
(221,1100,l)
);
},
{
closed = 1;
nodes = (
(409,792,l),
(409,813,l),
(365,896,l),
(225,896,l),
(145,1089,o),
(29,1402,o),
(-191,1402,cs),
(-324,1402,o),
(-409,1311,o),
(-409,1211,cs),
(-409,1102,o),
(-332,1007,o),
(-267,957,c),
(-203,988,l),
(-203,992,l),
(-232,1024,o),
(-273,1094,o),
(-273,1160,cs),
(-273,1223,o),
(-232,1293,o),
(-154,1293,cs),
(-18,1293,o),
(92,1038,o),
(153,896,c),
(-57,896,l),
(-57,873,l),
(-14,792,l),
(136,792,l),
(136,-2,l),
(237,-59,l),
(258,-59,l),
(258,792,l)
);
}
);
};
layerId = "E777F328-EA17-4AE7-9EBA-8002E537BA4F";
name = Light;
shapes = (
{
ref = "iiMatra-deva";
},
{
alignment = -1;
pos = (346,-41);
ref = "anusvara-deva";
}
);
width = 275;
},
{
anchors = (
{
name = iimatra;
pos = (-179,689);
}
);
background = {
shapes = (
{
closed = 1;
nodes = (
(341,993,l),
(447,1102,l),
(340,1209,l),
(234,1100,l)
);
},
{
closed = 1;
nodes = (
(423,792,l),
(423,813,l),
(379,896,l),
(238,896,l),
(158,1089,o),
(42,1402,o),
(-176,1402,cs),
(-310,1402,o),
(-395,1311,o),
(-395,1211,cs),
(-395,1102,o),
(-319,1007,o),
(-253,957,c),
(-189,988,l),
(-189,992,l),
(-220,1024,o),
(-258,1094,o),
(-258,1160,cs),
(-258,1223,o),
(-220,1293,o),
(-140,1293,cs),
(-4,1293,o),
(106,1038,o),
(167,896,c),
(-42,896,l),
(-42,873,l),
(0,792,l),
(150,792,l),
(150,-2,l),
(251,-59,l),
(273,-59,l),
(273,792,l)
);
}
);
};
layerId = "39185045-6A8C-415A-8312-7B8F11386A4C";
name = Regular;
shapes = (
{
alignment = -1;
ref = "iiMatra-deva";
},
{
alignment = -1;
pos = (400,59);
ref = "anusvara-deva";
}
);
width = 423;
}
);
},
{
color = 3;
glyphname = "iiMatra_reph-deva";
lastChange = "2023-01-27 11:07:39 +0000";
layers = (
{
anchors = (
{
name = iimatra;
pos = (-151,689);
},
{
name = top;
pos = (289,689);
}
);
layerId = "E777F328-EA17-4AE7-9EBA-8002E537BA4F";
name = Light;
shapes = (
{
closed = 1;
nodes = (
(104,620,l),
(104,166,ls),
(104,86,o),
(302,-55,o),
(420,-55,cs),
(439,-55,o),
(457,-46,o),
(475,-28,c),
(413,14,l),
(400,-4,o),
(381,-14,o),
(365,-14,cs),
(300,-14,o),
(172,69,o),
(172,117,cs),
(172,620,l),
(104,689,l),
(-14,689,l),
(-14,620,l)
);
},
{
closed = 1;
nodes = (
(289,620,l),
(289,689,l),
(145,689,l),
(213,620,l)
);
},
{
closed = 1;
nodes = (
(57,1004,o),
(-11,949,o),
(-11,896,c),
(-36,934,o),
(-69,964,o),
(-124,964,cs),
(-209,964,o),
(-268,894,o),
(-268,833,cs),
(-268,785,o),
(-227,742,o),
(-166,696,c),
(-145,712,l),
(-183,745,o),
(-207,789,o),
(-207,813,cs),
(-207,869,o),
(-172,902,o),
(-136,902,cs),
(-68,902,o),
(-15,833,o),
(104,689,c),
(145,689,l),
(95,749,o),
(59,793,o),
(59,839,cs),
(59,883,o),
(104,932,o),
(149,932,cs),
(166,932,o),
(181,923,o),
(196,909,c),
(217,928,l),
(176,977,o),
(136,1004,o),
(104,1004,cs)
);
}
);
width = 275;
},
{
anchors = (
{
name = iimatra;
pos = (-179,689);
},
{
name = top;
pos = (353,689);
}
);
layerId = "39185045-6A8C-415A-8312-7B8F11386A4C";
name = Regular;
shapes = (
{
closed = 1;
nodes = (
(91,551,l),
(91,179,ls),
(91,83,o),
(340,-89,o),
(469,-89,cs),
(513,-89,o),
(551,-71,o),
(573,-41,c),
(441,34,l),
(421,8,o),
(397,-7,o),
(366,-7,cs),
(322,-7,o),
(242,48,o),
(242,83,cs),
(242,551,l),
(104,689,l),
(-14,689,l),
(-14,551,l)
);
},
{
closed = 1;
nodes = (
(353,551,l),
(353,689,l),
(174,689,l),
(311,551,l)
);
},
{
closed = 1;
nodes = (
(40,1030,o),
(-14,995,o),
(-36,945,c),
(-76,991,o),
(-128,1026,o),
(-187,1026,cs),
(-263,1026,o),
(-345,943,o),
(-345,881,cs),
(-345,823,o),
(-294,752,o),
(-213,696,c),
(-171,725,l),
(-198,754,o),
(-213,803,o),
(-213,830,cs),
(-213,869,o),
(-193,909,o),
(-151,909,cs),
(-92,909,o),
(4,809,o),
(104,689,c),
(174,689,l),
(126,743,o),
(96,775,o),
(96,830,cs),
(96,881,o),
(131,926,o),
(169,926,cs),
(189,926,o),
(209,917,o),
(223,899,c),
(257,928,l),
(212,988,o),
(154,1030,o),
(104,1030,cs)
);
}
);
width = 339;
}
);
},
{
color = 3;
glyphname = "oCandraMatra-deva";
lastChange = "2023-01-27 11:07:39 +0000";
layers = (
{
anchors = (
{
name = top;
pos = (125,689);
}
);
background = {
shapes = (
{
closed = 1;
nodes = (
(410,792,l),
(410,813,l),
(366,896,l),
(-55,896,l),
(-55,873,l),
(-13,792,l),
(138,792,l),
(138,-2,l),
(238,-59,l),
(260,-59,l),
(260,792,l)
);
},
{
closed = 1;
nodes = (
(408,1264,l),
(368,1203,o),
(285,1126,o),
(164,1126,cs),
(74,1126,o),
(2,1194,o),
(-55,1274,c),
(-101,1255,l),
(-46,1160,o),
(62,1036,o),
(217,1036,cs),
(351,1036,o),
(431,1099,o),
(496,1180,c)
);
}
);
};
layerId = "E777F328-EA17-4AE7-9EBA-8002E537BA4F";
name = Light;
shapes = (
{
alignment = -1;
ref = "aaMatra-deva";
},
{
alignment = -1;
pos = (292,-76);
ref = "eCandraMatra-deva";
}
);
width = 248;
},
{
anchors = (
{
name = top;
pos = (140,689);
}
);
background = {
shapes = (
{
closed = 1;
nodes = (
(423,792,l),
(423,813,l),
(379,896,l),
(-42,896,l),
(-42,873,l),
(0,792,l),
(150,792,l),
(150,-2,l),
(251,-59,l),
(273,-59,l),
(273,792,l)
);
},
{
closed = 1;
nodes = (
(420,1264,l),
(380,1203,o),
(297,1126,o),
(176,1126,cs),
(86,1126,o),
(14,1194,o),
(-42,1274,c),
(-88,1255,l),
(-33,1160,o),
(75,1036,o),
(229,1036,cs),
(364,1036,o),
(443,1099,o),
(508,1180,c)
);
}
);
};
layerId = "39185045-6A8C-415A-8312-7B8F11386A4C";
name = Regular;
shapes = (
{
alignment = -1;
ref = "aaMatra-deva";
},
{
alignment = -1;
pos = (339,-50);
ref = "eCandraMatra-deva";
}
);
width = 305;
}
);
unicode = 2377;
},
{
color = 3;
glyphname = "oShortMatra-deva";
lastChange = "2023-01-27 11:07:39 +0000";
layers = (
{
anchors = (
{
name = bottom;
pos = (145,0);
},
{
name = top;
pos = (125,689);
}
);
background = {
shapes = (
{
closed = 1;
nodes = (
(-432,1291,o),
(-446,1249,o),
(-446,1209,cs),
(-446,1150,o),
(-361,1067,o),
(-189,1067,cs),
(-108,1067,o),
(-26,1083,o),
(26,1083,cs),
(147,1083,o),
(181,993,o),
(181,914,cs),
(181,894,o),
(176,876,o),
(167,860,c),
(230,857,l),
(236,878,o),
(242,911,o),
(242,936,cs),
(242,983,o),
(220,1038,o),
(183,1083,cs),
(150,1124,o),
(85,1151,o),
(13,1151,cs),
(-34,1151,o),
(-203,1135,o),
(-255,1135,cs),
(-329,1135,o),
(-385,1171,o),
(-385,1230,cs),
(-385,1251,o),
(-379,1276,o),
(-370,1306,c),
(-425,1315,l)
);
},
{
closed = 1;
nodes = (
(-40,873,l),
(-40,860,l),
(-17,813,l),
(161,813,l),
(160,18,l),
(220,-15,l),
(236,-15,l),
(236,813,l),
(395,813,l),
(395,828,l),
(370,873,l)
);
}
);
};
layerId = "E777F328-EA17-4AE7-9EBA-8002E537BA4F";
name = Light;
shapes = (
{
alignment = -1;
ref = "aaMatra-deva";
},
{
alignment = -1;
pos = (292,-76);
ref = "eShortMatra-deva";
}
);
width = 248;
},
{
anchors = (
{
name = bottom;
pos = (167,0);
},
{
name = top;
pos = (140,689);
}
);
layerId = "39185045-6A8C-415A-8312-7B8F11386A4C";
name = Regular;
shapes = (
{
alignment = -1;
ref = "aaMatra-deva";
},
{
alignment = -1;
pos = (339,-76);
ref = "eShortMatra-deva";
}
);
width = 305;
}
);
unicode = 2378;
},
{
color = 3;
glyphname = "oMatra-deva";
lastChange = "2023-01-27 11:07:39 +0000";
layers = (
{
anchors = (
{
name = top;
pos = (172,689);
}
);
layerId = "E777F328-EA17-4AE7-9EBA-8002E537BA4F";
name = Light;
shapes = (
{
alignment = -1;
ref = "aaMatra-deva";
},
{
alignment = -1;
pos = (292,-76);
ref = "eMatra-deva";
}
);
width = 248;
},
{
anchors = (
{
name = top;
pos = (241,689);
}
);
background = {
shapes = (
{
closed = 1;
nodes = (
(423,813,l),
(379,896,l),
(248,896,l),
(222,952,o),
(171,1053,o),
(145,1103,cs),
(57,1273,o),
(-33,1402,o),
(-168,1402,cs),
(-227,1402,o),
(-266,1372,o),
(-266,1317,cs),
(-266,1278,o),
(-243,1239,o),
(-218,1219,c),
(-54,1268,l),
(-23,1253,o),
(32,1163,o),
(103,1037,c),
(115,1016,o),
(151,940,o),
(172,896,c),
(-42,896,l),
(-42,873,l),
(0,792,l),
(150,792,l),
(150,-2,l),
(251,-59,l),
(273,-59,l),
(273,792,l),
(423,792,l)
);
},
{
closed = 1;
nodes = (
(336,993,l),
(441,1102,l),
(335,1209,l),
(229,1100,l)
);
}
);
};
layerId = "39185045-6A8C-415A-8312-7B8F11386A4C";
name = Regular;
shapes = (
{
alignment = -1;
ref = "aaMatra-deva";
},
{
alignment = -1;
pos = (339,-76);
ref = "eMatra-deva";
}
);
width = 305;
}
);
unicode = 2379;
},
{
color = 3;
glyphname = "oMatra_anusvara-deva";
lastChange = "2023-01-27 11:07:39 +0000";
layers = (
{
layerId = "E777F328-EA17-4AE7-9EBA-8002E537BA4F";
name = Light;
shapes = (
{
alignment = -1;
ref = "oMatra-deva";
},
{
alignment = -1;
pos = (340,-76);
ref = "anusvara-deva";
}
);
width = 223;
},
{
background = {
shapes = (
{
closed = 1;
nodes = (
(423,813,l),
(379,896,l),
(248,896,l),
(222,952,o),
(171,1053,o),
(145,1103,cs),
(57,1273,o),
(-33,1402,o),
(-168,1402,cs),
(-227,1402,o),
(-266,1372,o),
(-266,1317,cs),
(-266,1278,o),
(-243,1239,o),
(-218,1219,c),
(-54,1268,l),
(-23,1253,o),
(32,1163,o),
(103,1037,c),
(115,1016,o),
(151,940,o),
(172,896,c),
(-42,896,l),
(-42,873,l),
(0,792,l),
(150,792,l),
(150,-2,l),
(251,-59,l),
(273,-59,l),
(273,792,l),
(423,792,l)
);
},
{
closed = 1;
nodes = (
(336,993,l),
(441,1102,l),
(335,1209,l),
(229,1100,l)
);
}
);
};
layerId = "39185045-6A8C-415A-8312-7B8F11386A4C";
name = Regular;
shapes = (
{
alignment = -1;
ref = "oMatra-deva";
},
{
alignment = -1;
pos = (440,-76);
ref = "anusvara-deva";
}
);
width = 275;
}
);
metricLeft = "=oMatra-deva";
metricRight = "=oMatra-deva";
},
{
color = 3;
glyphname = "oMatra_reph-deva";
lastChange = "2023-01-27 11:07:39 +0000";
layers = (
{
background = {
shapes = (
{
closed = 1;
nodes = (
(-236,1391,o),
(-268,1364,o),
(-268,1317,cs),
(-268,1280,o),
(-248,1247,o),
(-227,1231,c),
(-69,1278,l),
(-48,1263,o),
(13,1168,o),
(86,1030,cs),
(101,1002,o),
(140,919,o),
(161,871,c),
(230,871,l),
(172,997,o),
(135,1064,o),
(135,1135,cs),
(135,1223,o),
(203,1269,o),
(280,1269,cs),
(338,1269,o),
(384,1242,o),
(426,1214,c),
(456,1260,l),
(403,1306,o),
(334,1339,o),
(264,1339,cs),
(163,1339,o),
(66,1256,o),
(66,1156,cs),
(66,1143,o),
(68,1130,o),
(69,1119,c),
(108,1119,l),
(26,1269,o),
(-57,1391,o),
(-183,1391,cs)
);
},
{
closed = 1;
nodes = (
(-40,873,l),
(-40,860,l),
(-17,813,l),
(161,813,l),
(160,18,l),
(220,-15,l),
(236,-15,l),
(236,813,l),
(395,813,l),
(395,828,l),
(370,873,l)
);
}
);
};
layerId = "E777F328-EA17-4AE7-9EBA-8002E537BA4F";
name = Light;
shapes = (
{
alignment = -1;
ref = "aaMatra-deva";
},
{
alignment = -1;
pos = (292,-76);
ref = "eMatra_reph-deva";
}
);
width = 248;
},
{
layerId = "39185045-6A8C-415A-8312-7B8F11386A4C";
name = Regular;
shapes = (
{
alignment = -1;
ref = "aaMatra-deva";
},
{
alignment = -1;
pos = (339,-76);
ref = "eMatra_reph-deva";
}
);
width = 305;
}
);
},
